STARTFONT 2.3
FONT -FontForge-Syncopate-Book-R-Normal--28-280-72-72-P-210-ISO10646-1
SIZE 28 72 72  4
FONTBOUNDINGBOX 52 32 -6 -7
COMMENT "Generated by fontforge, http://fontforge.sourceforge.net"
COMMENT "Copyright (c) 2010 by Brian J. Bonislawsky DBA Astigmatic (AOETI). All rights reserved. Available under the Apache 2.0 licence.http://www.apache.org/licenses/LICENSE-2.0.html"
STARTPROPERTIES 40
FOUNDRY "FontForge"
FAMILY_NAME "Syncopate"
WEIGHT_NAME "Book"
SLANT "R"
SETWIDTH_NAME "Normal"
ADD_STYLE_NAME ""
PIXEL_SIZE 28
POINT_SIZE 280
RESOLUTION_X 72
RESOLUTION_Y 72
SPACING "P"
AVERAGE_WIDTH 210
CHARSET_REGISTRY "ISO10646"
CHARSET_ENCODING "1"
FONTNAME_REGISTRY ""
CHARSET_COLLECTIONS "ISO8859-2 ISO8859-9 ISO8859-4 ISO10646-1"
BITS_PER_PIXEL 4
FONT_NAME "Syncopate-Regular"
FACE_NAME "Syncopate Regular"
COPYRIGHT "Copyright (c) 2010 by Brian J. Bonislawsky DBA Astigmatic (AOETI). All rights reserved. Available under the Apache 2.0 licence.http://www.apache.org/licenses/LICENSE-2.0.html"
FONT_VERSION "001.001"
FONT_ASCENT 22
FONT_DESCENT 6
UNDERLINE_POSITION -3
UNDERLINE_THICKNESS 2
X_HEIGHT 18
CAP_HEIGHT 18
RAW_ASCENT 799
RAW_DESCENT 200
NORM_SPACE 11
RELATIVE_WEIGHT 40
RELATIVE_SETWIDTH 70
SUPERSCRIPT_X 0
SUPERSCRIPT_Y 8
SUPERSCRIPT_SIZE 5
SUBSCRIPT_X 0
SUBSCRIPT_Y 8
SUBSCRIPT_SIZE 5
AVG_LOWERCASE_WIDTH 239
AVG_UPPERCASE_WIDTH 229
ENDPROPERTIES
CHARS 370
STARTCHAR space
ENCODING 32
SWIDTH 375 0
DWIDTH 11 0
BBX 1 1 0 0
BITMAP
00
ENDCHAR
STARTCHAR exclam
ENCODING 33
SWIDTH 274 0
DWIDTH 8 0
BBX 3 19 2 0
BITMAP
3FD0
3FD0
3FD0
3FD0
2FC0
1FC0
1FB0
0FA0
0EA0
0E90
0D90
0C80
0C70
0B70
0000
0000
3FD0
3FD0
3FD0
ENDCHAR
STARTCHAR quotedbl
ENCODING 34
SWIDTH 290 0
DWIDTH 8 0
BBX 7 6 1 13
BITMAP
FE00CF20
ED00BF10
EC00BF00
DC00AF00
CB009E00
CA009D00
ENDCHAR
STARTCHAR numbersign
ENCODING 35
SWIDTH 701 0
DWIDTH 20 0
BBX 18 19 1 0
BITMAP
0000007E000006E000
000000AA00000AB000
000000E700000D7000
000002F300002F4000
000006E000006F1000
00FFFFFFFFFFFFFFF3
00000D700000D80000
00001F400001F50000
00004F100004F20000
00008D000007E00000
0000BA00000AB00000
0000E700000D800000
9FFFFFFFFFFFFFFA00
0006F000005F100000
0009C000008D000000
000C900000BA000000
000E600000E6000000
003F300002F3000000
006F000005F1000000
ENDCHAR
STARTCHAR dollar
ENCODING 36
SWIDTH 767 0
DWIDTH 21 0
BBX 18 22 2 -1
BITMAP
00000000F500000000
00000001F500000000
00049CDFFFECA74100
02CFFFFFFFFFFFFB00
1DFC7311F51247AA00
8F900000F500000000
AF100000F500000000
AF200000F500000000
5FC20000F500000000
09FFA510F500000000
005DFFFDF810000000
000049DFFFFC720000
00000003FCEFFF9100
00000000F5026CFE20
00000000F500006FC0
00000000F5000009F2
00000000F5000008F3
00000000F500003EE0
9A743211F5236AFF50
AFFFFFFFFFFFFFD500
147ACDEFFFDC950000
00000000F500000000
ENDCHAR
STARTCHAR percent
ENCODING 37
SWIDTH 992 0
DWIDTH 28 0
BBX 25 19 1 0
BITMAP
0018DFEB50000000007F500000
03EB3017F900000004F8000000
1DC000005F6000002EB0000000
6F4000000CD00001CD10000000
8F10000009F0000AF300000000
8F10000009F0007F6000000000
5F4000000CC004F90000000000
1DC000005F602EC00000000000
03EB3017F900CE200000000000
0018DFEB4009F4017CEEC60000
00000000006F702DD4116EB100
0000000003FA00BE100003F900
000000001DC103F7000000AE10
00000000BE2005F40000007F30
00000008F50005F40000007F30
0000005F800002F7000000AE10
000003EB000000BE100003F800
00001DD10000001CD4116EB000
0000BE30000000017CFEC60000
ENDCHAR
STARTCHAR ampersand
ENCODING 38
SWIDTH 926 0
DWIDTH 26 0
BBX 22 19 2 0
BITMAP
0000049CEFDB6100000000
0000AFFFFFFFFE30000000
0008FD731013AFB0000000
000DE10000000DD0000000
000DC00000002E80000000
0009E1000004DA00000000
0002EA0004BE6000000000
00005F97DE810000000000
00001CFF81000000000000
0007EE9FB1000000000000
01BE7105FD300000000BE0
1CD200003DE50000000EB0
7F30000001BF9100004F60
CE0000000007FD3000BE10
CF10000000003DF707F600
8FC200000000018FCF9000
1CFE95210011357DFF6000
01AFFFFFFFFFFFFB49FB20
00027BDEFEEC9610004DE7
ENDCHAR
STARTCHAR quotesingle
ENCODING 39
SWIDTH 140 0
DWIDTH 4 0
BBX 2 6 1 13
BITMAP
FE
ED
EC
DC
CB
CA
ENDCHAR
STARTCHAR parenleft
ENCODING 40
SWIDTH 420 0
DWIDTH 12 0
BBX 7 23 2 -2
BITMAP
00001A50
0000BF90
0009F800
005FB000
01EE2000
07F70000
0DE10000
3FA00000
6F500000
9F300000
AF100000
BF000000
AF100000
9F300000
7F500000
3FA00000
0DE10000
07F70000
01EE2000
005FB000
000AF800
0000BF90
00001A50
ENDCHAR
STARTCHAR parenright
ENCODING 41
SWIDTH 420 0
DWIDTH 12 0
BBX 8 23 2 -2
BITMAP
08700000
1CF80000
00BF6000
001DF300
0004FB00
0000AF40
00004FA0
00000DE0
000009F3
000006F6
000004F7
000004F8
000004F7
000006F6
000009F3
00000DE0
00003FA0
0000AF40
0004FB00
001DF300
00BF6000
1CF80000
08800000
ENDCHAR
STARTCHAR asterisk
ENCODING 42
SWIDTH 503 0
DWIDTH 14 0
BBX 12 11 1 8
BITMAP
00000BC00000
00000AB00000
0C6009A005C1
1AFB29A2BFB2
003BFDDEC400
00008FF90000
003BFDDEC400
1AFB29A2AFB2
0C6009B005C1
00000AB00000
00000BC00000
ENDCHAR
STARTCHAR plus
ENCODING 43
SWIDTH 634 0
DWIDTH 18 0
BBX 14 14 2 3
BITMAP
000000DA000000
000000DA000000
000000DA000000
000000DA000000
000000DA000000
000000DA000000
AFFFFFFFFFFFF6
AFFFFFFFFFFFF6
000000DA000000
000000DA000000
000000DA000000
000000DA000000
000000DA000000
000000DA000000
ENDCHAR
STARTCHAR comma
ENCODING 44
SWIDTH 185 0
DWIDTH 5 0
BBX 4 6 0 -3
BITMAP
04FD
07F9
0AF5
0DF1
1FB0
4F70
ENDCHAR
STARTCHAR hyphen
ENCODING 45
SWIDTH 540 0
DWIDTH 15 0
BBX 11 2 2 9
BITMAP
BFFFFFFFFFD0
BFFFFFFFFFD0
ENDCHAR
STARTCHAR period
ENCODING 46
SWIDTH 185 0
DWIDTH 5 0
BBX 3 3 1 0
BITMAP
9FC0
9FC0
9FC0
ENDCHAR
STARTCHAR slash
ENCODING 47
SWIDTH 500 0
DWIDTH 14 0
BBX 12 21 1 -1
BITMAP
0000000006F3
000000000DC0
000000004F50
00000000BD00
00000003F700
00000009E100
0000001F9000
0000007F2000
000000EB0000
000006F40000
00000CC00000
00004F600000
0000BE000000
0002F7000000
0009F1000000
001E90000000
007F30000000
00DB00000000
05F400000000
0CD000000000
4F6000000000
ENDCHAR
STARTCHAR zero
ENCODING 48
SWIDTH 833 0
DWIDTH 23 0
BBX 21 19 1 0
BITMAP
00000028CEFEC940000000
00002AFFFFFFFFFD400000
0004EFE8410137CFF80000
003FF81000000006EF8000
01DF6000000000003EF300
07F900000000000004FB00
0DF100000000000000CF20
1FA0000000000000006F60
3F80000000000000003F80
4F70000000000000002F90
3F80000000000000003F80
1FA0000000000000005F60
0DF100000000000000BF20
07F900000000000004FB00
01DF6000000000002EF400
003EF80000000005EF8000
0004EFE8410137CFF80000
00001AFFFFFFFFFD300000
00000028CEFED940000000
ENDCHAR
STARTCHAR one
ENCODING 49
SWIDTH 339 0
DWIDTH 10 0
BBX 7 19 0 0
BITMAP
258CFF30
FFFFFF30
DA738F30
00008F30
00008F30
00008F30
00008F30
00008F30
00008F30
00008F30
00008F30
00008F30
00008F30
00008F30
00008F30
00008F30
00008F30
00008F30
00008F30
ENDCHAR
STARTCHAR two
ENCODING 50
SWIDTH 728 0
DWIDTH 20 0
BBX 18 19 1 0
BITMAP
00049CEFFECA510000
18EFFFFFFFFFFE8000
AFEA63110136AFFC10
86000000000002CF90
000000000000001EF1
0000000000000008F4
0000000000000007F3
000000000000000BE0
000000000000006F60
00000000000006F900
0000000000009F9000
00000000003CF60000
0000000018FC300000
00000006EE70000000
000004CF9100000000
0003BFA20000000000
03AFB3000000000000
9FFFFFFFFFFFFFFFFB
DFFFFFFFFFFFFFFFFB
ENDCHAR
STARTCHAR three
ENCODING 51
SWIDTH 726 0
DWIDTH 20 0
BBX 18 19 1 0
BITMAP
047ACEEFFECA620000
8FFFFFFFFFFFFF9100
7B85311001359EFC00
00000000000001BF60
000000000000003FA0
000000000000002F80
00000000000002BE20
000000011247AFD300
000006FFFFFEB60000
000006FFFFFEB72000
000000012347AEF800
000000000000017FA0
0000000000000009F3
0000000000000006F5
000000000000000AF3
000000000000008FC0
CA64321001359EFE20
DFFFFFFFFFFFFFA200
158BDEFFFECA720000
ENDCHAR
STARTCHAR four
ENCODING 52
SWIDTH 769 0
DWIDTH 22 0
BBX 21 19 0 0
BITMAP
0000000000008FFD000000
000000000008FADD000000
00000000009FA0CD000000
0000000009FA00CD000000
00000000AFA000CD000000
0000000AFA0000CD000000
000000AF900000CD000000
00000BF9000000CD000000
0001BF90000000CD000000
001BF900000000CD000000
01CF9000000000CD000000
1CF90000000000CD000000
3FFFFFFFFFFFFFFFFFFFA0
3FFFFFFFFFFFFFFFFFFFA0
00000000000000CD000000
00000000000000CD000000
00000000000000CD000000
00000000000000CD000000
00000000000000CD000000
ENDCHAR
STARTCHAR five
ENCODING 53
SWIDTH 738 0
DWIDTH 21 0
BBX 18 19 1 0
BITMAP
08FFFFFFFFFFFFFF60
08FFFFFFFFFFFFFF60
08F100000000000000
08F100000000000000
08F100000000000000
08F100000000000000
08F100000000000000
08FACDEFFEDB951000
08FFFFFFFFFFFFE700
0000000001247CFFA0
000000000000003DF6
0000000000000002FC
0000000000000000CE
0000000000000000BE
0000000000000003FC
000000000000004DF5
4C85321001247CFF80
5FFFFFFFFFFFFFD500
0379CDEFFEDB840000
ENDCHAR
STARTCHAR six
ENCODING 54
SWIDTH 772 0
DWIDTH 22 0
BBX 20 19 1 0
BITMAP
00000026ADEFEDB84100
000029FFFFFFFFFFF800
0004EFE842101247A800
002EF700000000000000
00CF4000000000000000
05F90000000000000000
0AF20000000000000000
0ED00038CEFFEC840000
1FA05DFFFFFFFFFFC300
2FBCFFB63101247DFE30
2FFFA200000000007FD0
1FD300000000000009F4
0ED000000000000004F7
09F300000000000004F7
03FC1000000000000AF3
008FC200000000008FC0
000AFFA52101248DFD20
00006EFFFFFFFFFFA100
00000059CEFEDB720000
ENDCHAR
STARTCHAR seven
ENCODING 55
SWIDTH 669 0
DWIDTH 19 0
BBX 18 19 0 0
BITMAP
FFFFFFFFFFFFFFFFFE
FFFFFFFFFFFFFFFFFB
000000000000000BE2
000000000000006F70
00000000000001EC00
0000000000000AF300
0000000000005F9000
000000000001DD1000
000000000009F50000
00000000004FA00000
0000000000DE100000
0000000008F6000000
000000003FB0000000
00000000CF20000000
00000007F800000000
0000002ED000000000
000000BF4000000000
000006F90000000000
00001EE10000000000
ENDCHAR
STARTCHAR eight
ENCODING 56
SWIDTH 793 0
DWIDTH 22 0
BBX 20 19 1 0
BITMAP
0000059CEFFEDA610000
0004DFFFFFFFFFFF7000
004FFB631001259EF800
00CF400000000002DF10
00FB0000000000007F40
00DD100000000000AF20
006FC3000000002AF700
0005EFD852147CFE5000
000017DFFFFFFD610000
000027CFFFFFFFB61000
002AFFB852147AEFE600
04EE710000000005DFA0
1ED10000000000000AF6
6F5000000000000002FA
6F7000000000000003FA
3FE50000000000003DF5
08FFD8521001247BFF90
005DFFFFFFFFFFFFD500
000048BDEFFEDB840000
ENDCHAR
STARTCHAR nine
ENCODING 57
SWIDTH 776 0
DWIDTH 22 0
BBX 19 19 1 0
BITMAP
000038BEEFEC84000000
003CFFFFFFFFFFC30000
04EFC73100136BFF6000
1EE500000000005EF500
7F60000000000003ED00
AF100000000000008F50
AF000000000000002FA0
8F500000000000007FC0
2FE400000000003CFFD0
07FFB63100137CFF7DD0
005EFFFFFFFFFFB30EC0
00015ACEFFEB83002FA0
00000000000000007F60
0000000000000000DF10
0000000000000009F900
00000000000001AFC100
01C8531001259EFC2000
01FFFFFFFFFFFE800000
00369CEFFEC951000000
ENDCHAR
STARTCHAR colon
ENCODING 58
SWIDTH 245 0
DWIDTH 7 0
BBX 3 13 2 0
BITMAP
BF90
BF90
BF90
0000
0000
0000
0000
0000
0000
0000
BF90
BF90
BF90
ENDCHAR
STARTCHAR semicolon
ENCODING 59
SWIDTH 234 0
DWIDTH 7 0
BBX 4 16 1 -3
BITMAP
0BF9
0BF9
0BF9
0000
0000
0000
0000
0000
0000
0000
0BF7
0EF2
2FD0
4F90
7F50
AF10
ENDCHAR
STARTCHAR less
ENCODING 60
SWIDTH 634 0
DWIDTH 18 0
BBX 14 13 2 3
BITMAP
00000000000296
0000000003AFF7
00000005CFFC61
000016DFE93000
0018EFB5000000
29FE8200000000
DFA10000000000
29FE8200000000
0018EFB5000000
000016DFE93000
00000005CFFC61
0000000003AFF7
00000000000296
ENDCHAR
STARTCHAR equal
ENCODING 61
SWIDTH 634 0
DWIDTH 18 0
BBX 14 7 2 6
BITMAP
AFFFFFFFFFFFF6
AFFFFFFFFFFFF6
00000000000000
00000000000000
00000000000000
AFFFFFFFFFFFF6
AFFFFFFFFFFFF6
ENDCHAR
STARTCHAR greater
ENCODING 62
SWIDTH 634 0
DWIDTH 18 0
BBX 14 13 2 3
BITMAP
97100000000000
AFE92000000000
17DFFA30000000
0004AFFC500000
0000017DFD6100
000000004AFE81
00000000002CFA
000000004AFE81
0000017DFD6100
0004AFFC500000
17DFFA30000000
AFE92000000000
97100000000000
ENDCHAR
STARTCHAR question
ENCODING 63
SWIDTH 568 0
DWIDTH 16 0
BBX 13 19 1 0
BITMAP
049CEFFDB71000
5FFFFFFFFFE500
4B6310125BFF30
00000000008FB0
00000000000EE0
00000000000DE0
00000000003F90
0000000005ED10
00000016CFA100
00048CFFB40000
000AFB72000000
000AF100000000
000AF100000000
00000000000000
00000000000000
00000000000000
000AF700000000
000AF700000000
000AF700000000
ENDCHAR
STARTCHAR at
ENCODING 64
SWIDTH 1016 0
DWIDTH 28 0
BBX 25 20 2 0
BITMAP
0000000159CEFFEC9610000000
0000018EFFFFFFFFFFFA200000
00005EFFB74100136AEFE50000
0008FFA2000000000018FF6000
008FD4000000000000005FE200
04FD2000039DFEB6EB0007FA00
0DF300008F93016EF80000EF10
4F900007F5000004F600009F30
9F40002FB0000006F400007F40
CF00006F50000009F100007F30
DE00008F3000000BE000009F10
CF00008F4000000DC00002E900
AF30004F8000005FA0000AE200
5F900009F72028ECE424BE3000
1EF300006CEEC8119EFD810000
06FE3000000000000000000000
009FE710000000000000000000
0008FFEA6310012469D3000000
00003BFFFFFFFFFFFFD4000000
00000026ACEFFEDB8300000000
ENDCHAR
STARTCHAR A
ENCODING 65
SWIDTH 812 0
DWIDTH 23 0
BBX 23 19 0 0
BITMAP
0000000000DFA00000000000
0000000006FEF30000000000
000000000DE3FA0000000000
000000006F609F3000000000
00000001ED002FB000000000
00000007F50008F400000000
0000001EC00001EB00000000
0000007F4000007F40000000
000001EB0000001DC0000000
000008F300000006F5000000
00001EA000000000DC000000
00008F20000000005F500000
0002FFFFFFFFFFFFFFD00000
0009FFFFFFFFFFFFFFF60000
002FB0000000000001ED0000
009F400000000000007F6000
02FB000000000000000DE100
0AF30000000000000006F700
3FA00000000000000000DE10
ENDCHAR
STARTCHAR B
ENCODING 66
SWIDTH 836 0
DWIDTH 23 0
BBX 19 19 3 0
BITMAP
DFFFFFFFFFFEDB710000
DFFFFFFFFFFFFFFD3000
DD000000000125AFC000
DD00000000000009F400
DD00000000000004F600
DD00000000000004F500
DD00000000000009F200
DD000000000125BF8000
DFFFFFFFFFFFFFA40000
DFFFFFFFFFFFFFFC6000
DD0000000000137DFA00
DD00000000000001BF50
DD000000000000003FA0
DD000000000000001FB0
DD000000000000002FB0
DD000000000000009F80
DD0000000000125BFE10
DFFFFFFFFFFFFFFFE400
DFFFFFFFFFFFEDA61000
ENDCHAR
STARTCHAR C
ENCODING 67
SWIDTH 869 0
DWIDTH 24 0
BBX 22 19 1 0
BITMAP
000000037BDEFEDC962000
000005DFFFFFFFFFFFFC61
0001BFFD8521001258CFF6
001DFC4000000000000296
00BFA00000000000000000
04FC000000000000000000
0AF3000000000000000000
0ED0000000000000000000
1FB0000000000000000000
2F90000000000000000000
1FB0000000000000000000
0ED0000000000000000000
0AF3000000000000000000
04FC000000000000000000
00BFA00000000000000000
001DFC4000000000000286
0001BFFD8521001258CFF6
000005DFFFFFFFFFFFFC61
000000037BDEFEEC962000
ENDCHAR
STARTCHAR D
ENCODING 68
SWIDTH 910 0
DWIDTH 25 0
BBX 21 19 3 0
BITMAP
DFFFFFFFFFEECA61000000
DFFFFFFFFFFFFFFF910000
DD000000001136AFFD2000
DD00000000000002AFD100
DD0000000000000009F900
DD0000000000000001EF10
DD00000000000000008F50
DD00000000000000004F80
DD00000000000000002F90
DD00000000000000002FA0
DD00000000000000003F90
DD00000000000000004F80
DD00000000000000009F50
DD0000000000000001EF10
DD000000000000000AF900
DD00000000000002AFE100
DD000000000135AEFE3000
DFFFFFFFFFFFFFFFA10000
DFFFFFFFFFEDC962000000
ENDCHAR
STARTCHAR E
ENCODING 69
SWIDTH 754 0
DWIDTH 21 0
BBX 16 19 3 0
BITMAP
DFFFFFFFFFFFFFFC
DFFFFFFFFFFFFFFC
DF00000000000000
DF00000000000000
DF00000000000000
DF00000000000000
DF00000000000000
DF00000000000000
DFFFFFFFFFFFFFF2
DFFFFFFFFFFFFFF2
DF00000000000000
DF00000000000000
DF00000000000000
DF00000000000000
DF00000000000000
DF00000000000000
DF00000000000000
DFFFFFFFFFFFFFFF
DFFFFFFFFFFFFFFF
ENDCHAR
STARTCHAR F
ENCODING 70
SWIDTH 687 0
DWIDTH 19 0
BBX 15 19 3 0
BITMAP
DFFFFFFFFFFFFFF0
DFFFFFFFFFFFFFF0
DD00000000000000
DD00000000000000
DD00000000000000
DD00000000000000
DD00000000000000
DD00000000000000
DFFFFFFFFFFFFF50
DFFFFFFFFFFFFF50
DD00000000000000
DD00000000000000
DD00000000000000
DD00000000000000
DD00000000000000
DD00000000000000
DD00000000000000
DD00000000000000
DD00000000000000
ENDCHAR
STARTCHAR G
ENCODING 71
SWIDTH 910 0
DWIDTH 25 0
BBX 23 19 1 0
BITMAP
000000027ACEFFEDA8300000
000004CFFFFFFFFFFFFD8200
0001AFFE9632101247BFFB00
001CFD500000000000017900
00AFB1000000000000000000
04FD00000000000000000000
0AF400000000000000000000
0ED000000000000000000000
1FB000000000000000000000
2FA000000000000000000000
1FB0000000002FFFFFFFFF30
0EE0000000002FFFFFFFFF30
0AF400000000000000008F30
04FD10000000000000008F30
00AFC1000000000000008F30
001CFE600000000000008F30
0001BFFE963210012357CF30
000005CFFFFFFFFFFFFFFD20
000000027ACEEFEEDB852000
ENDCHAR
STARTCHAR H
ENCODING 72
SWIDTH 949 0
DWIDTH 27 0
BBX 21 19 3 0
BITMAP
DD00000000000000004F60
DD00000000000000004F60
DD00000000000000004F60
DD00000000000000004F60
DD00000000000000004F60
DD00000000000000004F60
DD00000000000000004F60
DD00000000000000004F60
DFFFFFFFFFFFFFFFFFFF60
DFFFFFFFFFFFFFFFFFFF60
DD00000000000000004F60
DD00000000000000004F60
DD00000000000000004F60
DD00000000000000004F60
DD00000000000000004F60
DD00000000000000004F60
DD00000000000000004F60
DD00000000000000004F60
DD00000000000000004F60
ENDCHAR
STARTCHAR I
ENCODING 73
SWIDTH 287 0
DWIDTH 8 0
BBX 2 19 3 0
BITMAP
DD
DD
DD
DD
DD
DD
DD
DD
DD
DD
DD
DD
DD
DD
DD
DD
DD
DD
DD
ENDCHAR
STARTCHAR J
ENCODING 74
SWIDTH 590 0
DWIDTH 17 0
BBX 14 19 0 0
BITMAP
000000000004F7
000000000004F7
000000000004F7
000000000004F7
000000000004F7
000000000004F7
000000000004F7
000000000004F7
000000000004F7
000000000004F7
000000000004F7
000000000004F7
000000000004F7
000000000006F6
00000000000BF4
00000000007FD0
D85310015BFF40
FFFFFFFFFFE500
26ACEFFDB61000
ENDCHAR
STARTCHAR K
ENCODING 75
SWIDTH 806 0
DWIDTH 23 0
BBX 19 19 3 0
BITMAP
DD0000000000002BF700
DD000000000007FC3000
DD0000000003CF700000
DD000000018FC3000000
DD0000004DF700000000
DD00001AFC2000000000
DD0006EE700000000000
DD02BFC2000000000000
DE7EE700000000000000
DEBFD300000000000000
DD06EF80000000000000
DD002BFC300000000000
DD00007EF70000000000
DD000002CFC300000000
DD00000007FF70000000
DD000000003CFC200000
DD00000000008FE60000
DD000000000003CFB200
DD00000000000008FE60
ENDCHAR
STARTCHAR L
ENCODING 76
SWIDTH 701 0
DWIDTH 20 0
BBX 16 19 3 0
BITMAP
DD00000000000000
DD00000000000000
DD00000000000000
DD00000000000000
DD00000000000000
DD00000000000000
DD00000000000000
DD00000000000000
DD00000000000000
DD00000000000000
DD00000000000000
DD00000000000000
DD00000000000000
DD00000000000000
DD00000000000000
DD00000000000000
DD00000000000000
DFFFFFFFFFFFFFF9
DFFFFFFFFFFFFFF9
ENDCHAR
STARTCHAR M
ENCODING 77
SWIDTH 1139 0
DWIDTH 32 0
BBX 26 19 3 0
BITMAP
DF5000000000000000000006FB
DFD10000000000000000002EFB
DFF9000000000000000000AFFB
DDCF400000000000000005FBEB
DD3FD1000000000000001EE2EB
DD08F8000000000000009F70EB
DD00DF30000000000004FC00EB
DD003FC000000000001DF300EB
DD0009F800000000008F8000EB
DD0001DF3000000003FD0000EB
DD00004FC00000000CF30000EB
DD00000AF70000007F900000EB
DD000001EE200002FD100000EB
DD0000005FB0000BF4000000EB
DD0000000BF6006F90000000EB
DD00000002EE21EE10000000EB
DD000000006FBAF500000000EB
DD000000000BFFA000000000EB
DD0000000002FE2000000000EB
ENDCHAR
STARTCHAR N
ENCODING 78
SWIDTH 936 0
DWIDTH 26 0
BBX 21 19 3 0
BITMAP
DF80000000000000009F10
DFF8000000000000009F10
DECF700000000000009F10
DD1CF70000000000009F10
DD01DF6000000000009F10
DD002DF600000000009F10
DD0002DF50000000009F10
DD00002DF5000000009F10
DD000002DF500000009F10
DD0000002EF40000009F10
DD00000003EF4000009F10
DD000000003EE400009F10
DD0000000003EE30009F10
DD00000000003EE3009F10
DD000000000004EE309F10
DD0000000000004EE39F10
DD00000000000004FECF10
DD000000000000004FFF10
DD0000000000000005FF10
ENDCHAR
STARTCHAR O
ENCODING 79
SWIDTH 983 0
DWIDTH 28 0
BBX 25 19 1 0
BITMAP
000000048BCDFEEC9610000000
000006DFFFFFFFFFFFFB200000
0002CFFC7521011369EFF70000
002DFC30000000000007EF8000
00CF90000000000000002DF400
05FC000000000000000003FD00
0BF3000000000000000000AF30
0ED00000000000000000005F70
1FB00000000000000000002F90
2FA00000000000000000001FA0
1FB00000000000000000002F90
0ED00000000000000000005F70
0AF3000000000000000000AF30
05FB000000000000000003FD00
00BF90000000000000002DF400
002DFB30000000000006EF8000
0002CFFC7421001359EFF70000
000006DFFFFFFFFFFFFB300000
000000038BDEFEEC9610000000
ENDCHAR
STARTCHAR P
ENCODING 80
SWIDTH 818 0
DWIDTH 23 0
BBX 19 19 3 0
BITMAP
DFFFFFFFFFFEDB720000
DFFFFFFFFFFFFFFF7000
DD0000000001249EF700
DD00000000000002EE10
DD000000000000008F50
DD000000000000005F70
DD000000000000005F70
DD000000000000008F50
DD00000000000003EE10
DD0000000000149FF700
DFFFFFFFFFFFFFFF7000
DFFFFFFFFFFEDB720000
DD000000000000000000
DD000000000000000000
DD000000000000000000
DD000000000000000000
DD000000000000000000
DD000000000000000000
DD000000000000000000
ENDCHAR
STARTCHAR Q
ENCODING 81
SWIDTH 983 0
DWIDTH 28 0
BBX 27 19 1 0
BITMAP
000000048BCDFEEC961000000000
000006DFFFFFFFFFFFFB20000000
0002CFFC7521011369EFF7000000
002DFC30000000000007EF800000
00CF90000000000000002DF40000
05FC000000000000000003FD0000
0BF3000000000000000000AF3000
0ED00000000000000000005F7000
1FB00000000000000000002F9000
2FA00000000000000000001FA000
1FB00000000000000000003F9000
0ED00000000000000000005F8000
0AF3000000000000000000AF3000
05FB00000000006B300003FD0000
00BF90000000002BFA302DF50000
002DFB30000000005DFCEF800000
0002CFFC742101236AFFFE753100
000006DFFFFFFFFFFFFA9DFFFF30
000000038BDEFFECA6200037AC00
ENDCHAR
STARTCHAR R
ENCODING 82
SWIDTH 833 0
DWIDTH 23 0
BBX 20 19 3 0
BITMAP
DFFFFFFFFFEEB8300000
DFFFFFFFFFFFFFFA1000
DD000000001248DFB000
DD0000000000001CF400
DD00000000000005F700
DD00000000000003F800
DD00000000000005F700
DD0000000000000CF400
DD000000001247DFC000
DFFFFFFFFFFFFFFC1000
DFFFFFFFFFFFF9400000
DD0000000007F7000000
DD0000000000BF400000
DD00000000001DE20000
DD000000000003FC0000
DD0000000000007F9000
DD0000000000000BF600
DD00000000000001DE30
DD000000000000003FD1
ENDCHAR
STARTCHAR S
ENCODING 83
SWIDTH 787 0
DWIDTH 22 0
BBX 18 19 2 0
BITMAP
00027ADEFFEDB86300
02AFFFFFFFFFFFFF50
1DFD74210012358C50
8F9000000000000000
BF1000000000000000
AF4000000000000000
4FE610000000000000
06FFEA620000000000
0029EFFFEA62000000
0000159DFFFFD72000
00000000269DFFF910
00000000000027DFD1
0000000000000009F9
0000000000000000ED
0000000000000001FD
000000000000000AF9
9B753211011258EFD1
9FFFFFFFFFFFFFF910
1369CDEFFFECA62000
ENDCHAR
STARTCHAR T
ENCODING 84
SWIDTH 708 0
DWIDTH 20 0
BBX 20 19 0 0
BITMAP
7FFFFFFFFFFFFFFFFFF5
7FFFFFFFFFFFFFFFFFF5
000000000EC000000000
000000000EC000000000
000000000EC000000000
000000000EC000000000
000000000EC000000000
000000000EC000000000
000000000EC000000000
000000000EC000000000
000000000EC000000000
000000000EC000000000
000000000EC000000000
000000000EC000000000
000000000EC000000000
000000000EC000000000
000000000EC000000000
000000000EC000000000
000000000EC000000000
ENDCHAR
STARTCHAR U
ENCODING 85
SWIDTH 891 0
DWIDTH 25 0
BBX 19 19 3 0
BITMAP
FB000000000000000BE0
FB000000000000000BE0
FB000000000000000BE0
FB000000000000000BE0
FB000000000000000BE0
FB000000000000000BE0
FB000000000000000BE0
FB000000000000000BE0
FB000000000000000BE0
FB000000000000000BE0
FB000000000000000BE0
FB000000000000000BE0
FB000000000000000BE0
ED000000000000000ED0
BF600000000000007FA0
4FF7000000000008FF30
08FFD842101259EFF700
005DFFFFFFFFFFFD5000
000049BEEFEDB9400000
ENDCHAR
STARTCHAR V
ENCODING 86
SWIDTH 817 0
DWIDTH 23 0
BBX 22 19 0 0
BITMAP
1ED00000000000000001ED
08F60000000000000008F6
01ED000000000000001ED0
008F600000000000008F60
001EE0000000000001ED00
0008F7000000000008F600
0001EE10000000001ED000
00008F70000000008F6000
00001EE100000001ED0000
000008F700000008F60000
000002FE1000001ED00000
0000009F7000008F600000
0000002FE10001ED000000
00000009F70008F6000000
00000002FE101ED0000000
000000009F708F60000000
000000002FE2FE00000000
0000000009FDF700000000
0000000002FFE000000000
ENDCHAR
STARTCHAR W
ENCODING 87
SWIDTH 1266 0
DWIDTH 35 0
BBX 34 19 1 0
BITMAP
BF20000000000009FF1000000000000AF3
5F8000000000001EFF7000000000001FC0
0EE000000000006F8EC000000000007F60
08F50000000000BF1AF30000000000DE10
03FB0000000002FA04F90000000004F900
00CF2000000008F500DE000000000AF300
006F700000000DE0007F500000001FC000
001ED00000004F80002FB00000007F6000
0009F4000000AF20000BF2000000DE1000
0003FA000001FC000005F7000003F90000
0000CF100006F6000000ED000009F40000
00006F70000CE10000009F40001ED00000
00001ED0002F900000003F90006F700000
000009F4008F400000000CE100CF100000
000003FA00ED0000000006F603FA000000
000000CF15F70000000001FB09F4000000
0000006F7AF20000000000AF3ED0000000
0000001EDFB000000000004FDF70000000
00000009FF5000000000000DFF10000000
ENDCHAR
STARTCHAR X
ENCODING 88
SWIDTH 821 0
DWIDTH 23 0
BBX 21 19 1 0
BITMAP
1CF500000000000004FC10
01CF4000000000003ED100
001DE30000000003ED2000
0002DE200000002DE20000
00002ED1000001DE300000
000003EC10001CE3000000
0000003EB000BE40000000
00000004EA0AF400000000
000000004FDF5000000000
000000000CFD1000000000
00000000BFDFB000000000
0000000AFA0AFB00000000
0000009FB000AFA0000000
000008FB00000AF9000000
00007FB1000000BF800000
0007FC100000000BF70000
006FC10000000001BF6000
05FC1000000000001CF600
4FC100000000000001CF50
ENDCHAR
STARTCHAR Y
ENCODING 89
SWIDTH 763 0
DWIDTH 21 0
BBX 20 19 1 0
BITMAP
9F700000000000002ED1
0BF5000000000001DE30
01DE30000000000BF500
003FD1000000009F8000
0006FC00000007FB0000
00008F9000004FD10000
00000BF70002EE300000
000001DF501DF5000000
0000003EE3BF80000000
00000005FFFB00000000
000000008FD100000000
000000003F8000000000
000000003F8000000000
000000003F8000000000
000000003F8000000000
000000003F8000000000
000000003F8000000000
000000003F8000000000
000000003F8000000000
ENDCHAR
STARTCHAR Z
ENCODING 90
SWIDTH 728 0
DWIDTH 20 0
BBX 17 19 2 0
BITMAP
9FFFFFFFFFFFFFFF40
9FFFFFFFFFFFFFFD10
0000000000001CE200
000000000000BF3000
000000000009F50000
00000000008F600000
0000000006F8000000
000000004FA0000000
00000003EB00000000
0000002EC100000000
000001DD2000000000
00001CE30000000000
0000BF400000000000
000AF5000000000000
008F70000000000000
06F900000000000000
5FA000000000000000
EFFFFFFFFFFFFFFF80
FFFFFFFFFFFFFFFF80
ENDCHAR
STARTCHAR bracketleft
ENCODING 91
SWIDTH 409 0
DWIDTH 11 0
BBX 8 22 3 -2
BITMAP
7FFFFFF1
7FFFFFF1
7F400000
7F400000
7F400000
7F400000
7F400000
7F400000
7F400000
7F400000
7F400000
7F400000
7F400000
7F400000
7F400000
7F400000
7F400000
7F400000
7F400000
7F400000
7FFFFFF1
7FFFFFF1
ENDCHAR
STARTCHAR backslash
ENCODING 92
SWIDTH 500 0
DWIDTH 14 0
BBX 12 21 1 -1
BITMAP
4F6000000000
0CD000000000
05F400000000
00DB00000000
007F30000000
001E90000000
0009F1000000
0002F7000000
0000BE000000
00004F600000
00000CC00000
000006F40000
000000EB0000
0000007F2000
0000001F9000
00000009E100
00000003F700
00000000BD00
000000004F50
000000000DC0
0000000006F3
ENDCHAR
STARTCHAR bracketright
ENCODING 93
SWIDTH 409 0
DWIDTH 11 0
BBX 7 22 1 -2
BITMAP
9FFFFFE0
9FFFFFE0
00000CE0
00000CE0
00000CE0
00000CE0
00000CE0
00000CE0
00000CE0
00000CE0
00000CE0
00000CE0
00000CE0
00000CE0
00000CE0
00000CE0
00000CE0
00000CE0
00000CE0
00000CE0
9FFFFFE0
9FFFFFE0
ENDCHAR
STARTCHAR asciicircum
ENCODING 94
SWIDTH 459 0
DWIDTH 13 0
BBX 11 8 1 11
BITMAP
0000CFA00000
0005FBF40000
001EB0DC0000
008F305F6000
02FA000BE100
0BE20003F900
4F8000009F30
DE1000001EB0
ENDCHAR
STARTCHAR underscore
ENCODING 95
SWIDTH 500 0
DWIDTH 14 0
BBX 14 2 0 -4
BITMAP
FFFFFFFFFFFFFF
FFFFFFFFFFFFFF
ENDCHAR
STARTCHAR grave
ENCODING 96
SWIDTH 527 0
DWIDTH 15 0
BBX 7 4 2 15
BITMAP
1C600000
3DFD6000
004AFD60
000028B0
ENDCHAR
STARTCHAR a
ENCODING 97
SWIDTH 888 0
DWIDTH 25 0
BBX 21 19 1 0
BITMAP
000358ACDEFFEDB8300000
008FFFFFFFFFFFFFFC3000
007C964211001248CFF500
000000000000000004DF20
0000000000000000003F80
0000000000000000000DB0
0000000000000000000CD0
00000000002578ABCDEFD0
00000159CFFFFFFFFFFFD0
0003AFFFFECA8653211CD0
008FFD8510000000000CD0
08FD400000000000000CD0
1FD1000000000000000CD0
4F80000000000000000CD0
3FA0000000000000002DD0
1EF500000000000049EFD0
07FFB631001247AEFFDED0
007EFFFFFFFFFFFEA50CD0
00017BDEFEDCA740000CD0
ENDCHAR
STARTCHAR b
ENCODING 98
SWIDTH 836 0
DWIDTH 23 0
BBX 19 19 3 0
BITMAP
DFFFFFFFFFFEDB710000
DFFFFFFFFFFFFFFD3000
DD000000000125AFC000
DD00000000000009F400
DD00000000000004F600
DD00000000000004F500
DD00000000000009F200
DD000000000125BF8000
DFFFFFFFFFFFFFA40000
DFFFFFFFFFFFFFFC6000
DD0000000000137DFA00
DD00000000000001BF50
DD000000000000003FA0
DD000000000000001FB0
DD000000000000002FB0
DD000000000000009F80
DD0000000000125BFE10
DFFFFFFFFFFFFFFFE400
DFFFFFFFFFFFEDA61000
ENDCHAR
STARTCHAR c
ENCODING 99
SWIDTH 869 0
DWIDTH 24 0
BBX 22 19 1 0
BITMAP
000000037BDEFEDC962000
000005DFFFFFFFFFFFFC61
0001BFFD8521001258CFF6
001DFC4000000000000296
00BFA00000000000000000
04FC000000000000000000
0AF3000000000000000000
0ED0000000000000000000
1FB0000000000000000000
2F90000000000000000000
1FB0000000000000000000
0ED0000000000000000000
0AF3000000000000000000
04FC000000000000000000
00BFA00000000000000000
001DFC4000000000000286
0001BFFD8521001258CFF6
000005DFFFFFFFFFFFFC61
000000037BDEFEEC962000
ENDCHAR
STARTCHAR d
ENCODING 100
SWIDTH 910 0
DWIDTH 25 0
BBX 21 19 3 0
BITMAP
DFFFFFFFFFEECA61000000
DFFFFFFFFFFFFFFF910000
DD000000001136AFFD2000
DD00000000000002AFD100
DD0000000000000009F900
DD0000000000000001EF10
DD00000000000000008F50
DD00000000000000004F80
DD00000000000000002F90
DD00000000000000002FA0
DD00000000000000003F90
DD00000000000000004F80
DD00000000000000009F50
DD0000000000000001EF10
DD000000000000000AF900
DD00000000000002AFE100
DD000000000135AEFE3000
DFFFFFFFFFFFFFFFA10000
DFFFFFFFFFEDC962000000
ENDCHAR
STARTCHAR e
ENCODING 101
SWIDTH 910 0
DWIDTH 25 0
BBX 23 19 1 0
BITMAP
000000048CDFEDC840000000
000006DFFFFFFFFFFD600000
0001BFFB63101136BFFA0000
001CFA200000000002BFA000
00AF7000000000000009F500
03F90000000000000000CD00
09F100000000000000006F30
0EB000000000000000002F70
1FFFFFFFFFFFFFFFFFFFFF80
2FFFFFFFFFFFFFFFFFFFFF90
1FB000000000000000000000
0EE000000000000000000000
0AF500000000000000000000
04FD10000000000000000000
00AFB1000000000000000000
001CFD500000000000000000
0001AFFE953110113469C100
000005CFFFFFFFFFFFFFF100
000000037ADEFFFECB852000
ENDCHAR
STARTCHAR f
ENCODING 102
SWIDTH 817 0
DWIDTH 23 0
BBX 19 19 3 0
BITMAP
000159CEEFFFFFFFFF30
007EFFFFFFFFFFFFFF30
09FFC742100000000000
4FF60000000000000000
9F700000000000000000
CF100000000000000000
DE000000000000000000
DD000000000000000000
DD000000000000000000
DFFFFFFFFFFFFFFFFE00
DFFFFFFFFFFFFFFFFE00
DD000000000000000000
DD000000000000000000
DD000000000000000000
DD000000000000000000
DD000000000000000000
DD000000000000000000
DD000000000000000000
DD000000000000000000
ENDCHAR
STARTCHAR g
ENCODING 103
SWIDTH 910 0
DWIDTH 25 0
BBX 23 19 1 0
BITMAP
000000027ACEFFEDA8300000
000004CFFFFFFFFFFFFD8200
0001AFFE9632101247BFFB00
001CFD500000000000017900
00AFB1000000000000000000
04FD00000000000000000000
0AF400000000000000000000
0ED000000000000000000000
1FB000000000000000000000
2FA000000000000000000000
1FB0000000002FFFFFFFFF30
0EE0000000002FFFFFFFFF30
0AF400000000000000008F30
04FD10000000000000008F30
00AFC1000000000000008F30
001CFE600000000000008F30
0001BFFE963210012357CF30
000005CFFFFFFFFFFFFFFD20
000000027ACEEFEEDB852000
ENDCHAR
STARTCHAR h
ENCODING 104
SWIDTH 949 0
DWIDTH 27 0
BBX 21 19 3 0
BITMAP
DD00000000000000004F60
DD00000000000000004F60
DD00000000000000004F60
DD00000000000000004F60
DD00000000000000004F60
DD00000000000000004F60
DD00000000000000004F60
DD00000000000000004F60
DFFFFFFFFFFFFFFFFFFF60
DFFFFFFFFFFFFFFFFFFF60
DD00000000000000004F60
DD00000000000000004F60
DD00000000000000004F60
DD00000000000000004F60
DD00000000000000004F60
DD00000000000000004F60
DD00000000000000004F60
DD00000000000000004F60
DD00000000000000004F60
ENDCHAR
STARTCHAR i
ENCODING 105
SWIDTH 287 0
DWIDTH 8 0
BBX 2 19 3 0
BITMAP
DD
DD
DD
DD
DD
DD
DD
DD
DD
DD
DD
DD
DD
DD
DD
DD
DD
DD
DD
ENDCHAR
STARTCHAR j
ENCODING 106
SWIDTH 590 0
DWIDTH 17 0
BBX 14 19 0 0
BITMAP
000000000004F7
000000000004F7
000000000004F7
000000000004F7
000000000004F7
000000000004F7
000000000004F7
000000000004F7
000000000004F7
000000000004F7
000000000004F7
000000000004F7
000000000004F7
000000000006F6
00000000000BF4
00000000007FD0
D85310015BFF40
FFFFFFFFFFE500
26ACEFFDB61000
ENDCHAR
STARTCHAR k
ENCODING 107
SWIDTH 867 0
DWIDTH 24 0
BBX 20 19 3 0
BITMAP
DD000000000000007F40
DD00000000000000BF10
DD00000000000003FB00
DD0000000000001CF200
DD000000000001BF7000
DD00000000003CF80000
DD000000003AFE600000
DD0001359DFE91000000
DFFFFFFFFC6100000000
DFFFFFFFFFE930000000
DD00012369DFFC300000
DD0000000005CFF80000
DD000000000004DFA000
DD0000000000001CF800
DD00000000000002DF30
DD000000000000005FA0
DD000000000000000DF1
DD0000000000000007F5
DD0000000000000005F7
ENDCHAR
STARTCHAR l
ENCODING 108
SWIDTH 709 0
DWIDTH 20 0
BBX 17 19 3 0
BITMAP
DD0000000000000000
DD0000000000000000
DD0000000000000000
DD0000000000000000
DD0000000000000000
DD0000000000000000
DD0000000000000000
DD0000000000000000
DD0000000000000000
DD0000000000000000
DD0000000000000000
DD0000000000000000
DD0000000000000000
CE0000000000000000
BF2000000000000000
7FA000000000000000
2EFC63100000000000
04EFFFFFFFFFFFFF90
0017BDEFFFFFFFFF90
ENDCHAR
STARTCHAR m
ENCODING 109
SWIDTH 1246 0
DWIDTH 35 0
BBX 29 19 3 0
BITMAP
DD00028DEEC710000016BDFEB50000
DD01AFFFFFFFE40018FFFFFFFFB100
DD4EFD62024AFE23DFE831026DFA00
DFFF600000007FDFF800000001DF40
DFD3000000000DFE30000000005F90
DE200000000009F400000000000FB0
DD000000000007F400000000000EC0
DD000000000007F400000000000DC0
DD000000000007F400000000000DC0
DD000000000007F400000000000DC0
DD000000000007F400000000000DC0
DD000000000007F400000000000DC0
DD000000000007F400000000000DC0
DD000000000007F400000000000DC0
DD000000000007F400000000000DC0
DD000000000007F400000000000DC0
DD000000000007F400000000000DC0
DD000000000007F400000000000DC0
DD000000000007F400000000000DC0
ENDCHAR
STARTCHAR n
ENCODING 110
SWIDTH 933 0
DWIDTH 26 0
BBX 21 19 3 0
BITMAP
DD0000016ADEFED9400000
DD0004BFFFFFFFFFFB1000
DD04CFFE95210136DFC000
DEAFFB40000000001BF700
DFFC40000000000002FC00
DF7000000000000000CF00
DD0000000000000000BF10
DD0000000000000000AF10
DD0000000000000000AF10
DD0000000000000000AF10
DD0000000000000000AF10
DD0000000000000000AF10
DD0000000000000000AF10
DD0000000000000000AF10
DD0000000000000000AF10
DD0000000000000000AF10
DD0000000000000000AF10
DD0000000000000000AF10
DD0000000000000000AF10
ENDCHAR
STARTCHAR o
ENCODING 111
SWIDTH 983 0
DWIDTH 28 0
BBX 25 19 1 0
BITMAP
000000048BCDFEEC9610000000
000006DFFFFFFFFFFFFB200000
0002CFFC7521011369EFF70000
002DFC30000000000007EF8000
00CF90000000000000002DF400
05FC000000000000000003FD00
0BF3000000000000000000AF30
0ED00000000000000000005F70
1FB00000000000000000002F90
2FA00000000000000000001FA0
1FB00000000000000000002F90
0ED00000000000000000005F70
0AF3000000000000000000AF30
05FB000000000000000003FD00
00BF90000000000000002DF400
002DFB30000000000006EF8000
0002CFFC7421001359EFF70000
000006DFFFFFFFFFFFFB300000
000000038BDEFEEC9610000000
ENDCHAR
STARTCHAR p
ENCODING 112
SWIDTH 818 0
DWIDTH 23 0
BBX 19 19 3 0
BITMAP
DFFFFFFFFFFEDB720000
DFFFFFFFFFFFFFFF7000
DD0000000001249EF700
DD00000000000002EE10
DD000000000000008F50
DD000000000000005F70
DD000000000000005F70
DD000000000000008F50
DD00000000000003EE10
DD0000000000149FF700
DFFFFFFFFFFFFFFF7000
DFFFFFFFFFFEDB720000
DD000000000000000000
DD000000000000000000
DD000000000000000000
DD000000000000000000
DD000000000000000000
DD000000000000000000
DD000000000000000000
ENDCHAR
STARTCHAR q
ENCODING 113
SWIDTH 983 0
DWIDTH 28 0
BBX 27 19 1 0
BITMAP
000000048BCDFEEC961000000000
000006DFFFFFFFFFFFFB20000000
0002CFFC7521011369EFF7000000
002DFC30000000000007EF800000
00CF90000000000000002DF40000
05FC000000000000000003FD0000
0BF3000000000000000000AF3000
0ED00000000000000000005F7000
1FB00000000000000000002F9000
2FA00000000000000000001FA000
1FB00000000000000000002F9000
0ED00000000000000000005F8000
0AF3000000000000000000AF3000
05FB000000000000000003FD0000
00BF90000000000000002DF50000
002DFB30000000000006EF800000
0002CFFC7421001359EFFD642100
000006DFFFFFFFFFFFFCEFFFFF20
000000038BDEFFECA6200258CB00
ENDCHAR
STARTCHAR r
ENCODING 114
SWIDTH 609 0
DWIDTH 17 0
BBX 15 19 3 0
BITMAP
DD0000049DEFEC10
DD0006EFFFFFFF10
DD03CFE952101400
DD5EF81000000000
DFFD300000000000
DFC1000000000000
DE10000000000000
DD00000000000000
DD00000000000000
DD00000000000000
DD00000000000000
DD00000000000000
DD00000000000000
DD00000000000000
DD00000000000000
DD00000000000000
DD00000000000000
DD00000000000000
DD00000000000000
ENDCHAR
STARTCHAR s
ENCODING 115
SWIDTH 787 0
DWIDTH 22 0
BBX 18 19 2 0
BITMAP
00027ADEFFEDB86300
02AFFFFFFFFFFFFF50
1DFD74210012358C50
8F9000000000000000
BF1000000000000000
AF4000000000000000
4FE610000000000000
06FFEA620000000000
0029EFFFEA62000000
0000159DFFFFD72000
00000000269DFFF910
00000000000027DFD1
0000000000000009F9
0000000000000000ED
0000000000000001FD
000000000000000AF9
9B753211011258EFD1
9FFFFFFFFFFFFFF910
1369CDEFFFECA62000
ENDCHAR
STARTCHAR t
ENCODING 116
SWIDTH 708 0
DWIDTH 20 0
BBX 20 19 0 0
BITMAP
7FFFFFFFFFFFFFFFFFF5
7FFFFFFFFFFFFFFFFFF5
000000000EC000000000
000000000EC000000000
000000000EC000000000
000000000EC000000000
000000000EC000000000
000000000EC000000000
000000000EC000000000
000000000EC000000000
000000000EC000000000
000000000EC000000000
000000000EC000000000
000000000EC000000000
000000000EC000000000
000000000EC000000000
000000000EC000000000
000000000EC000000000
000000000EC000000000
ENDCHAR
STARTCHAR u
ENCODING 117
SWIDTH 931 0
DWIDTH 26 0
BBX 20 19 3 0
BITMAP
EC0000000000000000CE
EC0000000000000000CE
EC0000000000000000CE
EC0000000000000000CE
EC0000000000000000CE
EC0000000000000000CE
EC0000000000000000CE
EC0000000000000000CE
EC0000000000000000CE
EC0000000000000000CE
EC0000000000000000CE
EC0000000000000000CE
ED0000000000000000CE
DE0000000000000007FE
AF40000000000003CFFE
4FC10000000004BFFADE
0AFD73101259EFFC40CE
019FFFFFFFFFFC5000CE
00039CEFEDB7200000CE
ENDCHAR
STARTCHAR v
ENCODING 118
SWIDTH 817 0
DWIDTH 23 0
BBX 22 19 0 0
BITMAP
1ED00000000000000001ED
08F60000000000000008F6
01ED000000000000001ED0
008F600000000000008F60
001EE0000000000001ED00
0008F7000000000008F600
0001EE10000000001ED000
00008F70000000008F6000
00001EE100000001ED0000
000008F700000008F60000
000002FE1000001ED00000
0000009F7000008F600000
0000002FE10001ED000000
00000009F70008F6000000
00000002FE101ED0000000
000000009F708F60000000
000000002FE2FE00000000
0000000009FDF700000000
0000000002FFE000000000
ENDCHAR
STARTCHAR w
ENCODING 119
SWIDTH 1266 0
DWIDTH 35 0
BBX 34 19 1 0
BITMAP
BF20000000000009FF1000000000000AF3
5F8000000000001EFF7000000000001FC0
0EE000000000006F8EC000000000007F60
08F50000000000BF1AF30000000000DE10
03FB0000000002FA04F90000000004F900
00CF2000000008F500DE000000000AF300
006F700000000DE0007F500000001FC000
001ED00000004F80002FB00000007F6000
0009F4000000AF20000BF2000000DE1000
0003FA000001FC000005F7000003F90000
0000CF100006F6000000ED000009F40000
00006F70000CE10000009F40001ED00000
00001ED0002F900000003F90006F700000
000009F4008F400000000CE100CF100000
000003FA00ED0000000006F603FA000000
000000CF15F70000000001FB09F4000000
0000006F7AF20000000000AF3ED0000000
0000001EDFB000000000004FDF70000000
00000009FF5000000000000DFF10000000
ENDCHAR
STARTCHAR x
ENCODING 120
SWIDTH 821 0
DWIDTH 23 0
BBX 21 19 1 0
BITMAP
1CF500000000000004FC10
01CF4000000000003ED100
001DE30000000003ED2000
0002DE200000002DE20000
00002ED1000001DE300000
000003EC10001CE3000000
0000003EB000BE40000000
00000004EA0AF400000000
000000004FDF5000000000
000000000CFD1000000000
00000000BFDFB000000000
0000000AFA0AFB00000000
0000009FB000AFA0000000
000008FB00000AF9000000
00007FB1000000BF800000
0007FC100000000BF70000
006FC10000000001BF6000
05FC1000000000001CF600
4FC100000000000001CF50
ENDCHAR
STARTCHAR y
ENCODING 121
SWIDTH 911 0
DWIDTH 26 0
BBX 21 19 2 0
BITMAP
7F40000000000000006F50
7F40000000000000006F50
7F40000000000000006F50
7F40000000000000006F50
7F40000000000000006F50
6F50000000000000006F50
5F8000000000000001DF50
1FC00000000000000BFF50
0CF6000000000001CFDF50
04FE50000000004DFA6F50
008FFC6310136CFF806F50
0006EFFFFFFFFFB3006F50
000016ADEFEC8200008F40
000000000000000000DF20
000000000000000009FB00
0000000000000003CFE200
7C964311001248CFFD3000
7FFFFFFFFFFFFFFE810000
0479BDEEFFEDB951000000
ENDCHAR
STARTCHAR z
ENCODING 122
SWIDTH 728 0
DWIDTH 20 0
BBX 17 19 2 0
BITMAP
9FFFFFFFFFFFFFFF40
9FFFFFFFFFFFFFFD10
0000000000001CE200
000000000000BF3000
000000000009F50000
00000000008F600000
0000000006F8000000
000000004FA0000000
00000003EB00000000
0000002EC100000000
000001DD2000000000
00001CE30000000000
0000BF400000000000
000AF5000000000000
008F70000000000000
06F900000000000000
5FA000000000000000
EFFFFFFFFFFFFFFF80
FFFFFFFFFFFFFFFF80
ENDCHAR
STARTCHAR braceleft
ENCODING 123
SWIDTH 386 0
DWIDTH 11 0
BBX 10 22 0 -2
BITMAP
000006CFF6
00005FFFF6
0000BF5100
0000EC0000
0000FA0000
0000FA0000
0000FA0000
0001F90000
0004F60000
002CC00000
3FFC100000
003CB00000
0004F40000
0001F80000
0000FA0000
0000FA0000
0000FA0000
0000FB0000
0000EC0000
0000AF5100
00004FFFF6
000005CFF6
ENDCHAR
STARTCHAR bar
ENCODING 124
SWIDTH 259 0
DWIDTH 7 0
BBX 3 28 2 -7
BITMAP
3F70
3F70
3F70
3F70
3F70
3F70
3F70
3F70
3F70
3F70
3F70
3F70
3F70
3F70
3F70
3F70
3F70
3F70
3F70
3F70
3F70
3F70
3F70
3F70
3F70
3F70
3F70
3F70
ENDCHAR
STARTCHAR braceright
ENCODING 125
SWIDTH 386 0
DWIDTH 11 0
BBX 9 22 1 -2
BITMAP
9FEB400000
9FFFF30000
0017F90000
0000EC0000
0000DD0000
0000DD0000
0000DD0000
0000CD0000
00009F1000
00002EA200
000002DFF0
00001DA200
00007F1000
0000BE0000
0000DD0000
0000DD0000
0000DD0000
0000DC0000
0000FB0000
0018F80000
9FFFE20000
9FEB300000
ENDCHAR
STARTCHAR asciitilde
ENCODING 126
SWIDTH 634 0
DWIDTH 18 0
BBX 14 3 2 8
BITMAP
3AEFEC96310268
DFFFFFFFFFFFFA
A5102469CEFD92
ENDCHAR
STARTCHAR nonbreakingspace
ENCODING 160
SWIDTH 375 0
DWIDTH 11 0
BBX 1 1 0 0
BITMAP
00
ENDCHAR
STARTCHAR exclamdown
ENCODING 161
SWIDTH 274 0
DWIDTH 8 0
BBX 3 19 2 0
BITMAP
3FD0
3FD0
3FD0
0000
0000
0B70
0C70
0C80
0D90
0E90
0EA0
0FA0
1FB0
1FC0
2FC0
3FD0
3FD0
3FD0
3FD0
ENDCHAR
STARTCHAR cent
ENCODING 162
SWIDTH 736 0
DWIDTH 21 0
BBX 19 22 1 -2
BITMAP
0000000006F100000000
0000000006F100000000
00000159CEFEDB830000
00018EFFFFFFFFFFC500
002DFFA637F1237BFF40
01DFB20006F100002930
09FA000006F100000000
1FE1000006F100000000
6F80000006F100000000
8F50000006F100000000
9F40000006F100000000
8F50000006F100000000
6F80000006F100000000
1FD1000006F100000000
09F9000006F100000000
01DFA20006F100002930
002DFFA637F1237BFF40
00019EFFFFFFFFFFC500
0000016ACEFFDB830000
0000000006F100000000
0000000006F100000000
0000000006F100000000
ENDCHAR
STARTCHAR sterling
ENCODING 163
SWIDTH 792 0
DWIDTH 22 0
BBX 20 19 1 0
BITMAP
0000000049CEFEDB8400
0000001BFFFFFFFFFF60
000001CFD73100137B60
000007FB000000000000
00000DF1000000000000
00002FB0000000000000
00003F80000000000000
00004F70000000000000
00004F60000000000000
4FFFFFFFFFFFFFF70000
4FFFFFFFFFFFFFF70000
00004F60000000000000
00004F60000000000000
00004F60000000000000
00007F30000000000000
0002EB00000000000000
027EFEFEDB8632012487
5FFFFFFFFFFFFFFFFFF8
5D952002358ACEFFDA61
ENDCHAR
STARTCHAR currency
ENCODING 164
SWIDTH 560 0
DWIDTH 16 0
BBX 13 12 1 3
BITMAP
1D600000000AA0
0AF66CEEA4AF60
00AFFFFFFFF600
007FC4126EF200
00EC000002E900
02F40000009C00
02F50000008C00
00EA000002E900
006FB4115DF300
00BFFFFFFFF600
0BF55CEEA3AF70
1D500000000A90
ENDCHAR
STARTCHAR yen
ENCODING 165
SWIDTH 811 0
DWIDTH 23 0
BBX 20 19 1 0
BITMAP
1DE200000000000006F9
02ED1000000000004FC0
004FB00000000002ED10
0007F8000000000CF300
0000AF500000009F5000
00001CE3000006F80000
000002ED10003FB00000
0000003FB002ED100000
07FFFFFFF80CFFFFFFF3
07FFFFFFFFBFFFFFFFF3
000000003EFB10000000
0000000008F300000000
07FFFFFFFFFFFFFFFFF3
07FFFFFFFFFFFFFFFFF3
0000000008F300000000
0000000008F300000000
0000000008F300000000
0000000008F300000000
0000000008F300000000
ENDCHAR
STARTCHAR brokenbar
ENCODING 166
SWIDTH 259 0
DWIDTH 7 0
BBX 3 25 2 -5
BITMAP
3F70
3F70
3F70
3F70
3F70
3F70
3F70
3F70
3F70
3F70
0000
0000
0000
0000
0000
3F70
3F70
3F70
3F70
3F70
3F70
3F70
3F70
3F70
3F70
ENDCHAR
STARTCHAR section
ENCODING 167
SWIDTH 500 0
DWIDTH 14 0
BBX 12 19 1 0
BITMAP
0017CEFD9300
01CFFFFFFF00
06FB31026C00
06F400000000
02EC10000000
003FE8100000
02CEAFF93000
0CC1018EF910
3F6000018FB0
4F90000009F4
0BF8000006F3
019FE7101DD0
0003AFEAEC20
0000028EF400
00000002CE20
000000004F60
07941014CF60
08FFFFFFFC10
016BEFEC7100
ENDCHAR
STARTCHAR dieresis
ENCODING 168
SWIDTH 527 0
DWIDTH 15 0
BBX 9 2 3 16
BITMAP
5FA000DF20
5FA000DF20
ENDCHAR
STARTCHAR copyright
ENCODING 169
SWIDTH 770 0
DWIDTH 22 0
BBX 20 19 1 0
BITMAP
0000016BDFEC93000000
00005EB620138EA20000
0008E5000000019E3000
006E200000000007D100
03F40018DFEC8200AB00
0BA003EC4115DC002F40
2F300DC0000018000AA0
6E005F400000000005E0
8C009E000000000003F2
9B00AD000000000002F3
8C009E000000000003F2
6E006F400000000005E0
2F300DC00000180009A0
0BA003EC4115DC001E40
03F40018DFEC8200AB00
006E200000000007D100
0008E4000000019D3000
00005EB620138EA10000
0000016BEFEC93000000
ENDCHAR
STARTCHAR ordfeminine
ENCODING 170
SWIDTH 497 0
DWIDTH 14 0
BBX 13 13 0 6
BITMAP
0037BEFEDA5000
02B6310138FA00
00000000006F30
00000000002F50
000258ACDEFF60
02BFB753212F60
0DC20000002F60
2F700000004F60
0CD410136BFF60
017CEFFEC73F60
00000000000000
00000000000000
0BFFFFFFFFFF60
ENDCHAR
STARTCHAR guillemotleft
ENCODING 171
SWIDTH 440 0
DWIDTH 12 0
BBX 11 11 1 4
BITMAP
000680005900
003FC003EC10
01DE201DE200
0BF400BF5000
8F7008F80000
DD000CD00000
8F7008F80000
0BF400BF4000
01DE201DE200
003FC003EC10
000680005900
ENDCHAR
STARTCHAR logicalnot
ENCODING 172
SWIDTH 634 0
DWIDTH 18 0
BBX 14 6 2 7
BITMAP
AFFFFFFFFFFFF6
AFFFFFFFFFFFF6
000000000001F6
000000000001F6
000000000001F6
000000000001F6
ENDCHAR
STARTCHAR uni00AD
ENCODING 173
SWIDTH 540 0
DWIDTH 15 0
BBX 11 2 2 9
BITMAP
BFFFFFFFFFD0
BFFFFFFFFFD0
ENDCHAR
STARTCHAR registered
ENCODING 174
SWIDTH 600 0
DWIDTH 17 0
BBX 15 14 1 5
BITMAP
00005BEFD9300000
001BC51027D90000
01C80000001B9000
09A05FFFD601D500
1F205E005F405C00
5C005E000D701F10
79005E005F400D30
79005FFFF7000D30
5C005E00C7001F20
1F205E003E205C00
09A05E0009B1D500
01C80000001B9000
001BC51027D90000
00005BEFDA300000
ENDCHAR
STARTCHAR macron
ENCODING 175
SWIDTH 527 0
DWIDTH 15 0
BBX 9 2 3 16
BITMAP
5FFFFFFF20
5FFFFFFF20
ENDCHAR
STARTCHAR degree
ENCODING 176
SWIDTH 373 0
DWIDTH 10 0
BBX 8 7 1 12
BITMAP
007DEA20
08D319D1
1F6000E7
2F3000B9
1F5000E7
08D319D1
007EFA20
ENDCHAR
STARTCHAR plusminus
ENCODING 177
SWIDTH 634 0
DWIDTH 18 0
BBX 14 15 2 2
BITMAP
000000DA000000
000000DA000000
000000DA000000
000000DA000000
000000DA000000
AFFFFFFFFFFFF6
AFFFFFFFFFFFF6
000000DA000000
000000DA000000
000000DA000000
000000DA000000
000000DA000000
00000000000000
AFFFFFFFFFFFF6
AFFFFFFFFFFFF6
ENDCHAR
STARTCHAR twosuperior
ENCODING 178
SWIDTH 511 0
DWIDTH 14 0
BBX 12 12 1 7
BITMAP
27ADEFDC8200
DF941025AF70
9200000006F4
0000000001F8
0000000004F6
000000002DD1
00000004EC20
0000019F9100
00006ED40000
004CE7000000
2BFA20000000
FFFFFFFFFFFC
ENDCHAR
STARTCHAR threesuperior
ENCODING 179
SWIDTH 512 0
DWIDTH 14 0
BBX 12 12 1 7
BITMAP
27BDFFEC8300
A73211249F70
0000000009F0
000000000BE0
00001247DD30
0005FFFE8100
00000135AE70
0000000006F4
0000000002F7
0000000007F4
C7320125AF80
38BEFEDC9300
ENDCHAR
STARTCHAR acute
ENCODING 180
SWIDTH 527 0
DWIDTH 15 0
BBX 8 4 5 15
BITMAP
000017B0
0017EFB1
17EE9300
1C710000
ENDCHAR
STARTCHAR micro
ENCODING 181
SWIDTH 705 0
DWIDTH 20 0
BBX 17 19 1 -6
BITMAP
0008F200000000AF10
000BE000000000DD00
000EB000000001FA00
002F8000000005F700
005F5000000008F400
008F100000000BF100
00AD000000000ED000
00DA000000003FA000
01FB00000002DF8000
04FF4000003DEF6000
07FDE61039FD5F6000
0AE3EFFFFFB12F8000
0CC03BEEB5000DC000
0F9000000000000000
3F7000000000000000
6F4000000000000000
9F1000000000000000
CE0000000000000000
EB0000000000000000
ENDCHAR
STARTCHAR paragraph
ENCODING 182
SWIDTH 585 0
DWIDTH 16 0
BBX 13 19 1 0
BITMAP
00039DFFFFFF10
008FFFFF303F10
07FFFFFF303F10
0EFFFFFF303F10
3FFFFFFF303F10
4FFFFFFF303F10
3FFFFFFF303F10
0EFFFFFF303F10
07FFFFFF303F10
008FFFFF303F10
00039DFF303F10
0000001F303F10
0000001F303F10
0000001F303F10
0000001F303F10
0000001F303F10
0000001F303F10
0000001F303F10
0000001F303F10
ENDCHAR
STARTCHAR periodcentered
ENCODING 183
SWIDTH 185 0
DWIDTH 5 0
BBX 3 3 1 8
BITMAP
9FC0
9FC0
9FC0
ENDCHAR
STARTCHAR cedilla
ENCODING 184
SWIDTH 527 0
DWIDTH 15 0
BBX 7 5 4 -5
BITMAP
003E1000
00AFEA10
00104F70
95104F60
29EFD800
ENDCHAR
STARTCHAR onesuperior
ENCODING 185
SWIDTH 261 0
DWIDTH 7 0
BBX 5 12 0 7
BITMAP
16BFC0
994CC0
000CC0
000CC0
000CC0
000CC0
000CC0
000CC0
000CC0
000CC0
000CC0
000CC0
ENDCHAR
STARTCHAR ordmasculine
ENCODING 186
SWIDTH 520 0
DWIDTH 15 0
BBX 14 13 0 6
BITMAP
00028CEFEB6100
007FA42126CD20
06F40000000AD1
0DA000000001F7
2F6000000000CA
2F6000000000CA
0DA000000001F7
06F40000000AE1
008FA42125CD30
00039CEFEB6100
00000000000000
00000000000000
07FFFFFFFFFFF1
ENDCHAR
STARTCHAR guillemotright
ENCODING 187
SWIDTH 440 0
DWIDTH 12 0
BBX 11 11 1 4
BITMAP
4A0004A00000
8F7007F80000
0BF400AF5000
01DE201DE200
003FC102ED10
0009F3008F30
003FC102ED10
01DE201DE200
0BF400AF5000
8F7007F80000
4A0004A00000
ENDCHAR
STARTCHAR onequarter
ENCODING 188
SWIDTH 857 0
DWIDTH 24 0
BBX 23 19 0 0
BITMAP
05AEF000000000003EA00000
6A58F00000000001DC100000
0008F0000000000BE2000000
0008F0000000008F40000000
0008F000000005F800000000
0008F00000002EB000000000
0008F0000001DD1000000000
0008F000000AE30000000000
0008F000007F500000000000
0008F00004F9000007FF0000
000000002EB000007FCF0000
00000000CE100006F58F0000
00000009F300005F608F0000
0000006F600005F7008F0000
000003F900004F80008F0000
00001DC10004E900008F0000
0000BE20000BFFFFFFFFFF90
0009F40000000000008F0000
005F700000000000008F0000
ENDCHAR
STARTCHAR onehalf
ENCODING 189
SWIDTH 937 0
DWIDTH 26 0
BBX 24 19 0 0
BITMAP
05AEF000000000003EA00000
6A58F00000000001DC100000
0008F0000000000BE2000000
0008F0000000008F40000000
0008F000000005F800000000
0008F00000002EB000000000
0008F0000001DD1000000000
0008F000000AE30000000000
0008F000007F500000000000
0008F00004F90015ADFEC930
000000002EB0007A52013AF5
00000000CE100000000000CC
00000009F3000000000000CD
0000006F60000000000005F7
000003F90000000000007F90
00001DC100000000003CE500
0000BE200000000019FA1000
0009F40000000007ED400000
005F70000000009FFFFFFFFF
ENDCHAR
STARTCHAR threequarters
ENCODING 190
SWIDTH 978 0
DWIDTH 27 0
BBX 25 19 1 0
BITMAP
06BEFED930000000000CE10000
5941013AF4000000009F300000
00000001F700000006F6000000
0000014AC10000003FA0000000
0008FFE810000001DC10000000
0000125BD300000BE200000000
00000000CC00008F4000000000
00000000CC0005F70000000000
8831013AF5003EB00000000000
17CEFED93001DD100003EF5000
00000000000AE300003EBF5000
00000000007F500002EA3F5000
0000000004F800002DB03F5000
000000002EB00001DC103F5000
00000001CD10001CC1003F5000
0000000AF30001CD20003F5000
0000006F600005FFFFFFFFFFF0
000003F90000000000003F5000
00001EC10000000000003F5000
ENDCHAR
STARTCHAR questiondown
ENCODING 191
SWIDTH 568 0
DWIDTH 16 0
BBX 13 19 2 0
BITMAP
00000008F90000
00000008F90000
00000008F90000
00000000000000
00000000000000
00000000000000
00000002F90000
00000002F90000
0000027BF90000
0004BFFC830000
02BFB610000000
1DE40000000000
AF300000000000
FC000000000000
FD000000000000
CF600000000000
5FFB5210136B40
06EFFFFFFFFF40
0017BEFFEC8400
ENDCHAR
STARTCHAR Agrave
ENCODING 192
SWIDTH 812 0
DWIDTH 23 0
BBX 23 24 0 0
BITMAP
0000001C6000000000000000
0000003DFD60000000000000
000000004AFD600000000000
000000000028B00000000000
000000000000000000000000
0000000000DFA00000000000
0000000006FEF30000000000
000000000DE3FA0000000000
000000006F609F3000000000
00000001ED002FB000000000
00000007F50008F400000000
0000001EC00001EB00000000
0000007F4000007F40000000
000001EB0000001DC0000000
000008F300000006F5000000
00001EA000000000DC000000
00008F20000000005F500000
0002FFFFFFFFFFFFFFD00000
0009FFFFFFFFFFFFFFF60000
002FB0000000000001ED0000
009F400000000000007F6000
02FB000000000000000DE100
0AF30000000000000006F700
3FA00000000000000000DE10
ENDCHAR
STARTCHAR Aacute
ENCODING 193
SWIDTH 812 0
DWIDTH 23 0
BBX 23 24 0 0
BITMAP
000000000000017B00000000
0000000000017EFB10000000
00000000017EE93000000000
0000000001C7100000000000
000000000000000000000000
0000000000DFA00000000000
0000000006FEF30000000000
000000000DE3FA0000000000
000000006F609F3000000000
00000001ED002FB000000000
00000007F50008F400000000
0000001EC00001EB00000000
0000007F4000007F40000000
000001EB0000001DC0000000
000008F300000006F5000000
00001EA000000000DC000000
00008F20000000005F500000
0002FFFFFFFFFFFFFFD00000
0009FFFFFFFFFFFFFFF60000
002FB0000000000001ED0000
009F400000000000007F6000
02FB000000000000000DE100
0AF30000000000000006F700
3FA00000000000000000DE10
ENDCHAR
STARTCHAR Acircumflex
ENCODING 194
SWIDTH 812 0
DWIDTH 23 0
BBX 23 24 0 0
BITMAP
00000000007D600000000000
000000005DFEFC3000000000
0000003BFA305CFA20000000
000000992000004B60000000
000000000000000000000000
0000000000DFA00000000000
0000000006FEF30000000000
000000000DE3FA0000000000
000000006F609F3000000000
00000001ED002FB000000000
00000007F50008F400000000
0000001EC00001EB00000000
0000007F4000007F40000000
000001EB0000001DC0000000
000008F300000006F5000000
00001EA000000000DC000000
00008F20000000005F500000
0002FFFFFFFFFFFFFFD00000
0009FFFFFFFFFFFFFFF60000
002FB0000000000001ED0000
009F400000000000007F6000
02FB000000000000000DE100
0AF30000000000000006F700
3FA00000000000000000DE10
ENDCHAR
STARTCHAR Atilde
ENCODING 195
SWIDTH 812 0
DWIDTH 23 0
BBX 23 24 0 0
BITMAP
00000004DE91002F30000000
0000001E618E618D00000000
0000005E0003BFD300000000
000000000000000000000000
000000000000000000000000
0000000000DFA00000000000
0000000006FEF30000000000
000000000DE3FA0000000000
000000006F609F3000000000
00000001ED002FB000000000
00000007F50008F400000000
0000001EC00001EB00000000
0000007F4000007F40000000
000001EB0000001DC0000000
000008F300000006F5000000
00001EA000000000DC000000
00008F20000000005F500000
0002FFFFFFFFFFFFFFD00000
0009FFFFFFFFFFFFFFF60000
002FB0000000000001ED0000
009F400000000000007F6000
02FB000000000000000DE100
0AF30000000000000006F700
3FA00000000000000000DE10
ENDCHAR
STARTCHAR Adieresis
ENCODING 196
SWIDTH 812 0
DWIDTH 23 0
BBX 23 23 0 0
BITMAP
00000005FA000DF200000000
00000005FA000DF200000000
000000000000000000000000
000000000000000000000000
0000000000DFA00000000000
0000000006FEF30000000000
000000000DE3FA0000000000
000000006F609F3000000000
00000001ED002FB000000000
00000007F50008F400000000
0000001EC00001EB00000000
0000007F4000007F40000000
000001EB0000001DC0000000
000008F300000006F5000000
00001EA000000000DC000000
00008F20000000005F500000
0002FFFFFFFFFFFFFFD00000
0009FFFFFFFFFFFFFFF60000
002FB0000000000001ED0000
009F400000000000007F6000
02FB000000000000000DE100
0AF30000000000000006F700
3FA00000000000000000DE10
ENDCHAR
STARTCHAR Aring
ENCODING 197
SWIDTH 812 0
DWIDTH 23 0
BBX 23 25 0 0
BITMAP
000000002ADFD81000000000
00000000DA203DA000000000
00000002F40008E000000000
00000000DA203DA000000000
000000002ADFD81000000000
000000000000000000000000
0000000000DFA00000000000
0000000006FEF30000000000
000000000DE3FA0000000000
000000006F609F3000000000
00000001ED002FB000000000
00000007F50008F400000000
0000001EC00001EB00000000
0000007F4000007F40000000
000001EB0000001DC0000000
000008F300000006F5000000
00001EA000000000DC000000
00008F20000000005F500000
0002FFFFFFFFFFFFFFD00000
0009FFFFFFFFFFFFFFF60000
002FB0000000000001ED0000
009F400000000000007F6000
02FB000000000000000DE100
0AF30000000000000006F700
3FA00000000000000000DE10
ENDCHAR
STARTCHAR AE
ENCODING 198
SWIDTH 1172 0
DWIDTH 33 0
BBX 31 19 0 0
BITMAP
0000000000009FFFFFFFFFFFFFFFFF80
000000000004FFFFFFFFFFFFFFFFFF80
00000000001DF42FB000000000000000
00000000009F802FB000000000000000
0000000004FC002FB000000000000000
000000001DE2002FB000000000000000
00000000AF60002FB000000000000000
00000005FA00002FB000000000000000
0000001EE100002FFFFFFFFFFFFFFC00
000000AF4000002FFFFFFFFFFFFFFC00
000005F90000002FB000000000000000
00001ED00000002FB000000000000000
0000AFFFFFFFFFFFB000000000000000
0005FFFFFFFFFFFFB000000000000000
001EF3000000002FB000000000000000
00AF80000000002FB000000000000000
05FD00000000002FB000000000000000
1EF300000000002FFFFFFFFFFFFFFFB0
AF9000000000002FFFFFFFFFFFFFFFB0
ENDCHAR
STARTCHAR Ccedilla
ENCODING 199
SWIDTH 869 0
DWIDTH 24 0
BBX 22 24 1 -5
BITMAP
000000037BDEFEDC962000
000005DFFFFFFFFFFFFC61
0001BFFD8521001258CFF6
001DFC4000000000000296
00BFA00000000000000000
04FC000000000000000000
0AF3000000000000000000
0ED0000000000000000000
1FB0000000000000000000
2F90000000000000000000
1FB0000000000000000000
0ED0000000000000000000
0AF3000000000000000000
04FC000000000000000000
00BFA00000000000000000
001DFC4000000000000286
0001BFFD8521001258CFF6
000004CFFFFFFFFFFFFC61
000000037ACFFEEC962000
00000000000C7000000000
00000000003FFD60000000
00000000000019F1000000
000000002A301AE0000000
0000000005CFEB40000000
ENDCHAR
STARTCHAR Egrave
ENCODING 200
SWIDTH 754 0
DWIDTH 21 0
BBX 16 24 3 0
BITMAP
0008920000000000
0009FF9200000000
000018EF92000000
00000005C4000000
0000000000000000
DFFFFFFFFFFFFFFC
DFFFFFFFFFFFFFFC
DF00000000000000
DF00000000000000
DF00000000000000
DF00000000000000
DF00000000000000
DF00000000000000
DFFFFFFFFFFFFFF2
DFFFFFFFFFFFFFF2
DF00000000000000
DF00000000000000
DF00000000000000
DF00000000000000
DF00000000000000
DF00000000000000
DF00000000000000
DFFFFFFFFFFFFFFF
DFFFFFFFFFFFFFFF
ENDCHAR
STARTCHAR Eacute
ENCODING 201
SWIDTH 754 0
DWIDTH 21 0
BBX 16 24 3 0
BITMAP
00000000004B3000
000000004BFE5000
0000004BFC600000
0000008A30000000
0000000000000000
DFFFFFFFFFFFFFFC
DFFFFFFFFFFFFFFC
DF00000000000000
DF00000000000000
DF00000000000000
DF00000000000000
DF00000000000000
DF00000000000000
DFFFFFFFFFFFFFF2
DFFFFFFFFFFFFFF2
DF00000000000000
DF00000000000000
DF00000000000000
DF00000000000000
DF00000000000000
DF00000000000000
DF00000000000000
DFFFFFFFFFFFFFFF
DFFFFFFFFFFFFFFF
ENDCHAR
STARTCHAR Ecircumflex
ENCODING 202
SWIDTH 754 0
DWIDTH 21 0
BBX 16 24 3 0
BITMAP
0000003C92000000
00002AFEFE700000
0018ED7129ED5000
003C50000017C000
0000000000000000
DFFFFFFFFFFFFFFC
DFFFFFFFFFFFFFFC
DF00000000000000
DF00000000000000
DF00000000000000
DF00000000000000
DF00000000000000
DF00000000000000
DFFFFFFFFFFFFFF2
DFFFFFFFFFFFFFF2
DF00000000000000
DF00000000000000
DF00000000000000
DF00000000000000
DF00000000000000
DF00000000000000
DF00000000000000
DFFFFFFFFFFFFFFF
DFFFFFFFFFFFFFFF
ENDCHAR
STARTCHAR Edieresis
ENCODING 203
SWIDTH 754 0
DWIDTH 21 0
BBX 16 23 3 0
BITMAP
0000EF2006F90000
0000EF2006F90000
0000000000000000
0000000000000000
DFFFFFFFFFFFFFFC
DFFFFFFFFFFFFFFC
DF00000000000000
DF00000000000000
DF00000000000000
DF00000000000000
DF00000000000000
DF00000000000000
DFFFFFFFFFFFFFF2
DFFFFFFFFFFFFFF2
DF00000000000000
DF00000000000000
DF00000000000000
DF00000000000000
DF00000000000000
DF00000000000000
DF00000000000000
DFFFFFFFFFFFFFFF
DFFFFFFFFFFFFFFF
ENDCHAR
STARTCHAR Igrave
ENCODING 204
SWIDTH 287 0
DWIDTH 8 0
BBX 7 24 -1 0
BITMAP
5A300000
7EFB3000
016DFB30
00004B70
00000000
0000DD00
0000DD00
0000DD00
0000DD00
0000DD00
0000DD00
0000DD00
0000DD00
0000DD00
0000DD00
0000DD00
0000DD00
0000DD00
0000DD00
0000DD00
0000DD00
0000DD00
0000DD00
0000DD00
ENDCHAR
STARTCHAR Iacute
ENCODING 205
SWIDTH 287 0
DWIDTH 8 0
BBX 7 24 2 0
BITMAP
00003A60
003AFE70
3AFD7100
6B400000
00000000
0DD00000
0DD00000
0DD00000
0DD00000
0DD00000
0DD00000
0DD00000
0DD00000
0DD00000
0DD00000
0DD00000
0DD00000
0DD00000
0DD00000
0DD00000
0DD00000
0DD00000
0DD00000
0DD00000
ENDCHAR
STARTCHAR Icircumflex
ENCODING 206
SWIDTH 287 0
DWIDTH 8 0
BBX 12 24 -2 0
BITMAP
00002AB30000
0018FFEF9100
06EE8117EE60
1C71000016C1
000000000000
00000DD00000
00000DD00000
00000DD00000
00000DD00000
00000DD00000
00000DD00000
00000DD00000
00000DD00000
00000DD00000
00000DD00000
00000DD00000
00000DD00000
00000DD00000
00000DD00000
00000DD00000
00000DD00000
00000DD00000
00000DD00000
00000DD00000
ENDCHAR
STARTCHAR Idieresis
ENCODING 207
SWIDTH 287 0
DWIDTH 8 0
BBX 8 23 0 0
BITMAP
BF4004FC
BF4004FC
00000000
00000000
000DD000
000DD000
000DD000
000DD000
000DD000
000DD000
000DD000
000DD000
000DD000
000DD000
000DD000
000DD000
000DD000
000DD000
000DD000
000DD000
000DD000
000DD000
000DD000
ENDCHAR
STARTCHAR Eth
ENCODING 208
SWIDTH 910 0
DWIDTH 25 0
BBX 24 19 0 0
BITMAP
000DFFFFFFFFEECA85100000
000DFFFFFFFFFFFFFFE81000
000DD000000012359DFFD200
000DD00000000000004DFE10
000DD000000000000001BF90
000DD0000000000000002EF1
000DD00000000000000009F5
000DD00000000000000005F8
000DD00000000000000003F9
9FFFFFFFFFFF8000000002FA
9FFFFFFFFFFF8000000002F9
000DD00000000000000004F8
000DD00000000000000008F5
000DD0000000000000001EF1
000DD000000000000000AF90
000DD00000000000002AFE10
000DD000000011247CFFD300
000DFFFFFFFFFFFFFFE91000
000DFFFFFFFFEECA85100000
ENDCHAR
STARTCHAR Ntilde
ENCODING 209
SWIDTH 936 0
DWIDTH 26 0
BBX 21 24 3 0
BITMAP
0000008ED60007D0000000
000005E23BC41C80000000
00000AA0005CFA10000000
0000000000000000000000
0000000000000000000000
DF80000000000000009F10
DFF8000000000000009F10
DECF700000000000009F10
DD1CF70000000000009F10
DD01DF6000000000009F10
DD002DF600000000009F10
DD0002DF50000000009F10
DD00002DF5000000009F10
DD000002DF500000009F10
DD0000002EF40000009F10
DD00000003EF4000009F10
DD000000003EE400009F10
DD0000000003EE30009F10
DD00000000003EE3009F10
DD000000000004EE309F10
DD0000000000004EE39F10
DD00000000000004FECF10
DD000000000000004FFF10
DD0000000000000005FF10
ENDCHAR
STARTCHAR Ograve
ENCODING 210
SWIDTH 983 0
DWIDTH 28 0
BBX 25 24 1 0
BITMAP
00000000892000000000000000
00000000AFF920000000000000
00000000028EF9200000000000
0000000000006C400000000000
00000000000000000000000000
000000048BCDFEEC9610000000
000006DFFFFFFFFFFFFB200000
0002CFFC7521011369EFF70000
002DFC30000000000007EF8000
00CF90000000000000002DF400
05FC000000000000000003FD00
0BF3000000000000000000AF30
0ED00000000000000000005F70
1FB00000000000000000002F90
2FA00000000000000000001FA0
1FB00000000000000000002F90
0ED00000000000000000005F70
0AF3000000000000000000AF30
05FB000000000000000003FD00
00BF90000000000000002DF400
002DFB30000000000006EF8000
0002CFFC7421001359EFF70000
000006DFFFFFFFFFFFFB300000
000000038BDEFEEC9610000000
ENDCHAR
STARTCHAR Oacute
ENCODING 211
SWIDTH 983 0
DWIDTH 28 0
BBX 25 24 1 0
BITMAP
0000000000000004C300000000
00000000000004CFE500000000
000000000004CFC50000000000
00000000000993000000000000
00000000000000000000000000
000000048BCDFEEC9610000000
000006DFFFFFFFFFFFFB200000
0002CFFC7521011369EFF70000
002DFC30000000000007EF8000
00CF90000000000000002DF400
05FC000000000000000003FD00
0BF3000000000000000000AF30
0ED00000000000000000005F70
1FB00000000000000000002F90
2FA00000000000000000001FA0
1FB00000000000000000002F90
0ED00000000000000000005F70
0AF3000000000000000000AF30
05FB000000000000000003FD00
00BF90000000000000002DF400
002DFB30000000000006EF8000
0002CFFC7421001359EFF70000
000006DFFFFFFFFFFFFB300000
000000038BDEFEEC9610000000
ENDCHAR
STARTCHAR Ocircumflex
ENCODING 212
SWIDTH 983 0
DWIDTH 28 0
BBX 25 24 1 0
BITMAP
000000000004C9100000000000
0000000002AFEFE70000000000
000000018FD6129FD500000000
00000003C50000018B00000000
00000000000000000000000000
000000048BCDFEEC9610000000
000006DFFFFFFFFFFFFB200000
0002CFFC7521011369EFF70000
002DFC30000000000007EF8000
00CF90000000000000002DF400
05FC000000000000000003FD00
0BF3000000000000000000AF30
0ED00000000000000000005F70
1FB00000000000000000002F90
2FA00000000000000000001FA0
1FB00000000000000000002F90
0ED00000000000000000005F70
0AF3000000000000000000AF30
05FB000000000000000003FD00
00BF90000000000000002DF400
002DFB30000000000006EF8000
0002CFFC7421001359EFF70000
000006DFFFFFFFFFFFFB300000
000000038BDEFEEC9610000000
ENDCHAR
STARTCHAR Otilde
ENCODING 213
SWIDTH 983 0
DWIDTH 28 0
BBX 25 24 1 0
BITMAP
000000001BFC4000B900000000
000000009B15DA23E400000000
00000000E60018EE7000000000
00000000000000000000000000
00000000000000000000000000
000000048BCDFEEC9610000000
000006DFFFFFFFFFFFFB200000
0002CFFC7521011369EFF70000
002DFC30000000000007EF8000
00CF90000000000000002DF400
05FC000000000000000003FD00
0BF3000000000000000000AF30
0ED00000000000000000005F70
1FB00000000000000000002F90
2FA00000000000000000001FA0
1FB00000000000000000002F90
0ED00000000000000000005F70
0AF3000000000000000000AF30
05FB000000000000000003FD00
00BF90000000000000002DF400
002DFB30000000000006EF8000
0002CFFC7421001359EFF70000
000006DFFFFFFFFFFFFB300000
000000038BDEFEEC9610000000
ENDCHAR
STARTCHAR Odieresis
ENCODING 214
SWIDTH 983 0
DWIDTH 28 0
BBX 25 23 1 0
BITMAP
000000000EF1007F8000000000
000000000EF1007F8000000000
00000000000000000000000000
00000000000000000000000000
000000048BCDFEEC9610000000
000006DFFFFFFFFFFFFB200000
0002CFFC7521011369EFF70000
002DFC30000000000007EF8000
00CF90000000000000002DF400
05FC000000000000000003FD00
0BF3000000000000000000AF30
0ED00000000000000000005F70
1FB00000000000000000002F90
2FA00000000000000000001FA0
1FB00000000000000000002F90
0ED00000000000000000005F70
0AF3000000000000000000AF30
05FB000000000000000003FD00
00BF90000000000000002DF400
002DFB30000000000006EF8000
0002CFFC7421001359EFF70000
000006DFFFFFFFFFFFFB300000
000000038BDEFEEC9610000000
ENDCHAR
STARTCHAR multiply
ENCODING 215
SWIDTH 634 0
DWIDTH 18 0
BBX 12 12 3 4
BITMAP
5900000001A2
7F9000001CF4
08F80001BF50
009F700BF500
0009F7AF6000
0000AFF60000
00009FF60000
0009F8BF5000
008F801CF500
08F90001CF40
7F9000001CE4
5900000001C3
ENDCHAR
STARTCHAR Oslash
ENCODING 216
SWIDTH 983 0
DWIDTH 28 0
BBX 25 23 1 -2
BITMAP
00000000000000000001DC0000
0000000000000000000AE20000
000000048BCEFEDC957F400000
000006DFFFFFFFFFFFFD200000
0002CFFC752101135DFFF70000
002DFC30000000005F66EF8000
00CF900000000003E9002DF500
05FC00000000001DC00003FD00
0BF30000000000BE200000AF40
0ED00000000007F40000005F70
1FB0000000004F700000002FA0
2F9000000002EA000000001FA0
1FA00000001CD1000000002F90
0ED0000000AE20000000005F70
0BF2000006F50000000000AF30
05FA00003F800000000003FD00
00CF8001DB00000000002DF400
002EFB3BD10000000006EF8000
0002CFFFA421001359EFF70000
000007FFFFFFFFFFFFFB300000
00000AE57BDEFEEC9610000000
00007F50000000000000000000
0003F800000000000000000000
ENDCHAR
STARTCHAR Ugrave
ENCODING 217
SWIDTH 891 0
DWIDTH 25 0
BBX 19 24 3 0
BITMAP
00000C60000000000000
00002CFE710000000000
0000003AFE7000000000
0000000018C100000000
00000000000000000000
FB000000000000000BE0
FB000000000000000BE0
FB000000000000000BE0
FB000000000000000BE0
FB000000000000000BE0
FB000000000000000BE0
FB000000000000000BE0
FB000000000000000BE0
FB000000000000000BE0
FB000000000000000BE0
FB000000000000000BE0
FB000000000000000BE0
FB000000000000000BE0
ED000000000000000ED0
BF600000000000007FA0
4FF7000000000008FF30
08FFD842101259EFF700
005DFFFFFFFFFFFD5000
000049BEEFEDB9400000
ENDCHAR
STARTCHAR Uacute
ENCODING 218
SWIDTH 891 0
DWIDTH 25 0
BBX 19 24 3 0
BITMAP
0000000000017B000000
00000000017EFC200000
000000007EFA30000000
00000000C71000000000
00000000000000000000
FB000000000000000BE0
FB000000000000000BE0
FB000000000000000BE0
FB000000000000000BE0
FB000000000000000BE0
FB000000000000000BE0
FB000000000000000BE0
FB000000000000000BE0
FB000000000000000BE0
FB000000000000000BE0
FB000000000000000BE0
FB000000000000000BE0
FB000000000000000BE0
ED000000000000000ED0
BF600000000000007FA0
4FF7000000000008FF30
08FFD842101259EFF700
005DFFFFFFFFFFFD5000
000049BEEFEDB9400000
ENDCHAR
STARTCHAR Ucircumflex
ENCODING 219
SWIDTH 891 0
DWIDTH 25 0
BBX 19 24 3 0
BITMAP
000000006D6000000000
0000004DFEFD40000000
00002BFB404BFB200000
00008A3000003A800000
00000000000000000000
FB000000000000000BE0
FB000000000000000BE0
FB000000000000000BE0
FB000000000000000BE0
FB000000000000000BE0
FB000000000000000BE0
FB000000000000000BE0
FB000000000000000BE0
FB000000000000000BE0
FB000000000000000BE0
FB000000000000000BE0
FB000000000000000BE0
FB000000000000000BE0
ED000000000000000ED0
BF600000000000007FA0
4FF7000000000008FF30
08FFD842101259EFF700
005DFFFFFFFFFFFD5000
000049BEEFEDB9400000
ENDCHAR
STARTCHAR Udieresis
ENCODING 220
SWIDTH 891 0
DWIDTH 25 0
BBX 19 23 3 0
BITMAP
000004FB000CF4000000
000004FB000CF4000000
00000000000000000000
00000000000000000000
FB000000000000000BE0
FB000000000000000BE0
FB000000000000000BE0
FB000000000000000BE0
FB000000000000000BE0
FB000000000000000BE0
FB000000000000000BE0
FB000000000000000BE0
FB000000000000000BE0
FB000000000000000BE0
FB000000000000000BE0
FB000000000000000BE0
FB000000000000000BE0
ED000000000000000ED0
BF600000000000007FA0
4FF7000000000008FF30
08FFD842101259EFF700
005DFFFFFFFFFFFD5000
000049BEEFEDB9400000
ENDCHAR
STARTCHAR Yacute
ENCODING 221
SWIDTH 763 0
DWIDTH 21 0
BBX 20 24 1 0
BITMAP
0000000000005C200000
00000000005CFD400000
000000005CFB50000000
00000000A92000000000
00000000000000000000
9F700000000000002ED1
0BF5000000000001DE30
01DE30000000000BF500
003FD1000000009F8000
0006FC00000007FB0000
00008F9000004FD10000
00000BF70002EE300000
000001DF501DF5000000
0000003EE3BF80000000
00000005FFFB00000000
000000008FD100000000
000000003F8000000000
000000003F8000000000
000000003F8000000000
000000003F8000000000
000000003F8000000000
000000003F8000000000
000000003F8000000000
000000003F8000000000
ENDCHAR
STARTCHAR Thorn
ENCODING 222
SWIDTH 787 0
DWIDTH 22 0
BBX 18 19 3 0
BITMAP
DD0000000000000000
DD0000000000000000
DD0000000000000000
DFFFFFFFFFEDA61000
DFFFFFFFFFFFFFE600
DD00000000135AFF60
DD0000000000005FD0
DD0000000000000AF3
DD00000000000007F5
DD00000000000007F5
DD0000000000000AF3
DD0000000000004FD0
DD00000000024AFF50
DFFFFFFFFFFFFFE600
DFFFFFFFFFEDA71000
DD0000000000000000
DD0000000000000000
DD0000000000000000
DD0000000000000000
ENDCHAR
STARTCHAR germandbls
ENCODING 223
SWIDTH 863 0
DWIDTH 24 0
BBX 21 19 2 0
BITMAP
000016ADEFFECA62000000
0007EFFFFFFFFFFFA10000
00BFFB63100135AEFD1000
08FD300000000001BF8000
1FE20000000000001FC000
5F800000000000000EC000
6F500000000000008F7000
6F5000000000147CFB0000
6F50004FFFFFFFFC600000
6F50004FFFFFFFFEA50000
6F5000000001246AFFC100
6F500000000000001AFC00
6F5000000000000000AF40
6F50000000000000005F70
6F50000000000000007F60
6F5000000000000004EF20
6F500D9642101236BFF700
6F500FFFFFFFFFFFFE5000
6F500269BDEFFECA500000
ENDCHAR
STARTCHAR agrave
ENCODING 224
SWIDTH 888 0
DWIDTH 25 0
BBX 21 24 1 0
BITMAP
0000001C50000000000000
0000004DFD500000000000
000000005BFD5000000000
000000000029B000000000
0000000000000000000000
000358ACDEFFEDB8300000
008FFFFFFFFFFFFFFC3000
007C964211001248CFF500
000000000000000004DF20
0000000000000000003F80
0000000000000000000DB0
0000000000000000000CD0
00000000002578ABCDEFD0
00000159CFFFFFFFFFFFD0
0003AFFFFECA8653211CD0
008FFD8510000000000CD0
08FD400000000000000CD0
1FD1000000000000000CD0
4F80000000000000000CD0
3FA0000000000000002DD0
1EF500000000000049EFD0
07FFB631001247AEFFDED0
007EFFFFFFFFFFFEA50CD0
00017BDEFEDCA740000CD0
ENDCHAR
STARTCHAR aacute
ENCODING 225
SWIDTH 888 0
DWIDTH 25 0
BBX 21 24 1 0
BITMAP
000000000000018A000000
0000000000018EFB000000
00000000018EE920000000
0000000002C61000000000
0000000000000000000000
000358ACDEFFEDB8300000
008FFFFFFFFFFFFFFC3000
007C964211001248CFF500
000000000000000004DF20
0000000000000000003F80
0000000000000000000DB0
0000000000000000000CD0
00000000002578ABCDEFD0
00000159CFFFFFFFFFFFD0
0003AFFFFECA8653211CD0
008FFD8510000000000CD0
08FD400000000000000CD0
1FD1000000000000000CD0
4F80000000000000000CD0
3FA0000000000000002DD0
1EF500000000000049EFD0
07FFB631001247AEFFDED0
007EFFFFFFFFFFFEA50CD0
00017BDEFEDCA740000CD0
ENDCHAR
STARTCHAR acircumflex
ENCODING 226
SWIDTH 888 0
DWIDTH 25 0
BBX 21 24 1 0
BITMAP
00000000018D5000000000
000000006EFEFB30000000
0000004CFA305CF9100000
000000A92000004B500000
0000000000000000000000
000358ACDEFFEDB8300000
008FFFFFFFFFFFFFFC3000
007C964211001248CFF500
000000000000000004DF20
0000000000000000003F80
0000000000000000000DB0
0000000000000000000CD0
00000000002578ABCDEFD0
00000159CFFFFFFFFFFFD0
0003AFFFFECA8653211CD0
008FFD8510000000000CD0
08FD400000000000000CD0
1FD1000000000000000CD0
4F80000000000000000CD0
3FA0000000000000002DD0
1EF500000000000049EFD0
07FFB631001247AEFFDED0
007EFFFFFFFFFFFEA50CD0
00017BDEFEDCA740000CD0
ENDCHAR
STARTCHAR atilde
ENCODING 227
SWIDTH 888 0
DWIDTH 25 0
BBX 21 24 1 0
BITMAP
00000005DE81003F100000
0000002F529E619C000000
0000006D0003BFC2000000
0000000000000000000000
0000000000000000000000
000358ACDEFFEDB8300000
008FFFFFFFFFFFFFFC3000
007C964211001248CFF500
000000000000000004DF20
0000000000000000003F80
0000000000000000000DB0
0000000000000000000CD0
00000000002578ABCDEFD0
00000159CFFFFFFFFFFFD0
0003AFFFFECA8653211CD0
008FFD8510000000000CD0
08FD400000000000000CD0
1FD1000000000000000CD0
4F80000000000000000CD0
3FA0000000000000002DD0
1EF500000000000049EFD0
07FFB631001247AEFFDED0
007EFFFFFFFFFFFEA50CD0
00017BDEFEDCA740000CD0
ENDCHAR
STARTCHAR adieresis
ENCODING 228
SWIDTH 888 0
DWIDTH 25 0
BBX 21 23 1 0
BITMAP
00000007F9000EF1000000
00000007F9000EF1000000
0000000000000000000000
0000000000000000000000
000358ACDEFFEDB8300000
008FFFFFFFFFFFFFFC3000
007C964211001248CFF500
000000000000000004DF20
0000000000000000003F80
0000000000000000000DB0
0000000000000000000CD0
00000000002578ABCDEFD0
00000159CFFFFFFFFFFFD0
0003AFFFFECA8653211CD0
008FFD8510000000000CD0
08FD400000000000000CD0
1FD1000000000000000CD0
4F80000000000000000CD0
3FA0000000000000002DD0
1EF500000000000049EFD0
07FFB631001247AEFFDED0
007EFFFFFFFFFFFEA50CD0
00017BDEFEDCA740000CD0
ENDCHAR
STARTCHAR aring
ENCODING 229
SWIDTH 888 0
DWIDTH 25 0
BBX 21 25 1 0
BITMAP
000000002AEFD800000000
00000001EA203D90000000
00000003F30009D0000000
00000001EA203D90000000
000000002AEFD800000000
0000000000000000000000
000358ACDEFFEDB8300000
008FFFFFFFFFFFFFFC3000
007C964211001248CFF500
000000000000000004DF20
0000000000000000003F80
0000000000000000000DB0
0000000000000000000CD0
00000000002578ABCDEFD0
00000159CFFFFFFFFFFFD0
0003AFFFFECA8653211CD0
008FFD8510000000000CD0
08FD400000000000000CD0
1FD1000000000000000CD0
4F80000000000000000CD0
3FA0000000000000002DD0
1EF500000000000049EFD0
07FFB631001247AEFFDED0
007EFFFFFFFFFFFEA50CD0
00017BDEFEDCA740000CD0
ENDCHAR
STARTCHAR ae
ENCODING 230
SWIDTH 1551 0
DWIDTH 43 0
BBX 41 19 1 0
BITMAP
000358ACDEFFDCB830000000038BDEFEC961000000
008FFFFFFFFFFFFFFD400003CFFFFFFFFFFE800000
007C964211001248CFF6008FFC741101369EFC2000
000000000000000004DF39FC3000000000018FC100
0000000000000000003FDFA000000000000005F900
0000000000000000000DFC10000000000000009F20
0000000000000000000CF500000000000000002F60
00000000002578ABCDEFE000000000000000000DA0
00000159CFFFFFFFFFFFFFFFFFFFFFFFFFFFFFFFC0
0003AFFFFECA8653211DFFFFFFFFFFFFFFFFFFFFD0
008FFD9520000000000DE000000000000000000000
08FD500000000000000BF300000000000000000000
1FD10000000000000006F800000000000000000000
4F800000000000000001EF30000000000000000000
3FA00000000000000018EFD3000000000000000000
1EF500000000000039EFEBFE710000000000000000
07FFB6310012469DFFE8107FFEA64210012468B500
007EFFFFFFFFFFFFB6100003AFFFFFFFFFFFFFF500
00017BDEFEEDB85100000000026ACDEFFEDB963000
ENDCHAR
STARTCHAR ccedilla
ENCODING 231
SWIDTH 869 0
DWIDTH 24 0
BBX 22 24 1 -5
BITMAP
000000037BDEFEDC962000
000005DFFFFFFFFFFFFC61
0001BFFD8521001258CFF6
001DFC4000000000000296
00BFA00000000000000000
04FC000000000000000000
0AF3000000000000000000
0ED0000000000000000000
1FB0000000000000000000
2F90000000000000000000
1FB0000000000000000000
0ED0000000000000000000
0AF3000000000000000000
04FC000000000000000000
00BFA00000000000000000
001DFC4000000000000286
0001BFFD8521001258CFF6
000004CFFFFFFFFFFFFC61
000000037ACFFEEC962000
00000000000C7000000000
00000000003FFD60000000
00000000000019F1000000
000000002A301AE0000000
0000000005CFEB40000000
ENDCHAR
STARTCHAR egrave
ENCODING 232
SWIDTH 910 0
DWIDTH 25 0
BBX 23 24 1 0
BITMAP
000000089200000000000000
0000000AFF92000000000000
0000000028EF920000000000
000000000006C40000000000
000000000000000000000000
000000048CDFEDC840000000
000006DFFFFFFFFFFD600000
0001BFFB63101136BFFA0000
001CFA200000000002BFA000
00AF7000000000000009F500
03F90000000000000000CD00
09F100000000000000006F30
0EB000000000000000002F70
1FFFFFFFFFFFFFFFFFFFFF80
2FFFFFFFFFFFFFFFFFFFFF90
1FB000000000000000000000
0EE000000000000000000000
0AF500000000000000000000
04FD10000000000000000000
00AFB1000000000000000000
001CFD500000000000000000
0001AFFE953110113469C100
000005CFFFFFFFFFFFFFF100
000000037ADEFFFECB852000
ENDCHAR
STARTCHAR eacute
ENCODING 233
SWIDTH 910 0
DWIDTH 25 0
BBX 23 24 1 0
BITMAP
000000000000004C30000000
0000000000004CFE50000000
00000000004CFC5000000000
000000000099300000000000
000000000000000000000000
000000048CDFEDC840000000
000006DFFFFFFFFFFD600000
0001BFFB63101136BFFA0000
001CFA200000000002BFA000
00AF7000000000000009F500
03F90000000000000000CD00
09F100000000000000006F30
0EB000000000000000002F70
1FFFFFFFFFFFFFFFFFFFFF80
2FFFFFFFFFFFFFFFFFFFFF90
1FB000000000000000000000
0EE000000000000000000000
0AF500000000000000000000
04FD10000000000000000000
00AFB1000000000000000000
001CFD500000000000000000
0001AFFE953110113469C100
000005CFFFFFFFFFFFFFF100
000000037ADEFFFECB852000
ENDCHAR
STARTCHAR ecircumflex
ENCODING 234
SWIDTH 910 0
DWIDTH 25 0
BBX 23 24 1 0
BITMAP
00000000004C910000000000
000000002AFEFE7000000000
00000018FD6129FD50000000
0000003C50000018B0000000
000000000000000000000000
000000048CDFEDC840000000
000006DFFFFFFFFFFD600000
0001BFFB63101136BFFA0000
001CFA200000000002BFA000
00AF7000000000000009F500
03F90000000000000000CD00
09F100000000000000006F30
0EB000000000000000002F70
1FFFFFFFFFFFFFFFFFFFFF80
2FFFFFFFFFFFFFFFFFFFFF90
1FB000000000000000000000
0EE000000000000000000000
0AF500000000000000000000
04FD10000000000000000000
00AFB1000000000000000000
001CFD500000000000000000
0001AFFE953110113469C100
000005CFFFFFFFFFFFFFF100
000000037ADEFFFECB852000
ENDCHAR
STARTCHAR edieresis
ENCODING 235
SWIDTH 910 0
DWIDTH 25 0
BBX 23 23 1 0
BITMAP
00000000EF1007F800000000
00000000EF1007F800000000
000000000000000000000000
000000000000000000000000
000000048CDFEDC840000000
000006DFFFFFFFFFFD600000
0001BFFB63101136BFFA0000
001CFA200000000002BFA000
00AF7000000000000009F500
03F90000000000000000CD00
09F100000000000000006F30
0EB000000000000000002F70
1FFFFFFFFFFFFFFFFFFFFF80
2FFFFFFFFFFFFFFFFFFFFF90
1FB000000000000000000000
0EE000000000000000000000
0AF500000000000000000000
04FD10000000000000000000
00AFB1000000000000000000
001CFD500000000000000000
0001AFFE953110113469C100
000005CFFFFFFFFFFFFFF100
000000037ADEFFFECB852000
ENDCHAR
STARTCHAR igrave
ENCODING 236
SWIDTH 287 0
DWIDTH 8 0
BBX 7 24 -1 0
BITMAP
5B300000
7EFB3000
016DFB30
00004A70
00000000
0000DD00
0000DD00
0000DD00
0000DD00
0000DD00
0000DD00
0000DD00
0000DD00
0000DD00
0000DD00
0000DD00
0000DD00
0000DD00
0000DD00
0000DD00
0000DD00
0000DD00
0000DD00
0000DD00
ENDCHAR
STARTCHAR iacute
ENCODING 237
SWIDTH 287 0
DWIDTH 8 0
BBX 7 24 2 0
BITMAP
00002A60
002AFE80
2AFD7100
6B500000
00000000
0DD00000
0DD00000
0DD00000
0DD00000
0DD00000
0DD00000
0DD00000
0DD00000
0DD00000
0DD00000
0DD00000
0DD00000
0DD00000
0DD00000
0DD00000
0DD00000
0DD00000
0DD00000
0DD00000
ENDCHAR
STARTCHAR icircumflex
ENCODING 238
SWIDTH 287 0
DWIDTH 8 0
BBX 12 24 -2 0
BITMAP
00002AB30000
0018FFEF9100
06EE8117EE70
1C71000006C2
000000000000
00000DD00000
00000DD00000
00000DD00000
00000DD00000
00000DD00000
00000DD00000
00000DD00000
00000DD00000
00000DD00000
00000DD00000
00000DD00000
00000DD00000
00000DD00000
00000DD00000
00000DD00000
00000DD00000
00000DD00000
00000DD00000
00000DD00000
ENDCHAR
STARTCHAR idieresis
ENCODING 239
SWIDTH 287 0
DWIDTH 8 0
BBX 8 23 0 0
BITMAP
BF5003FC
BF5003FC
00000000
00000000
000DD000
000DD000
000DD000
000DD000
000DD000
000DD000
000DD000
000DD000
000DD000
000DD000
000DD000
000DD000
000DD000
000DD000
000DD000
000DD000
000DD000
000DD000
000DD000
ENDCHAR
STARTCHAR eth
ENCODING 240
SWIDTH 910 0
DWIDTH 25 0
BBX 24 19 0 0
BITMAP
000DFFFFFFFFEECA85100000
000DFFFFFFFFFFFFFFE81000
000DD000000012359DFFD200
000DD00000000000004DFE10
000DD000000000000001BF90
000DD0000000000000002EF1
000DD00000000000000009F5
000DD00000000000000005F8
000DD00000000000000003F9
9FFFFFFFFFFF8000000002FA
9FFFFFFFFFFF8000000002F9
000DD00000000000000004F8
000DD00000000000000008F5
000DD0000000000000001EF1
000DD000000000000000AF90
000DD00000000000002AFE10
000DD000000011247CFFD300
000DFFFFFFFFFFFFFFE91000
000DFFFFFFFFEECA85100000
ENDCHAR
STARTCHAR ntilde
ENCODING 241
SWIDTH 933 0
DWIDTH 26 0
BBX 21 24 3 0
BITMAP
000001BFC4000B80000000
000009B15DA23E40000000
00000E50018EE700000000
0000000000000000000000
0000000000000000000000
DD0000016ADEFED9400000
DD0004BFFFFFFFFFFB1000
DD04CFFE95210136DFC000
DEAFFB40000000001BF700
DFFC40000000000002FC00
DF7000000000000000CF00
DD0000000000000000BF10
DD0000000000000000AF10
DD0000000000000000AF10
DD0000000000000000AF10
DD0000000000000000AF10
DD0000000000000000AF10
DD0000000000000000AF10
DD0000000000000000AF10
DD0000000000000000AF10
DD0000000000000000AF10
DD0000000000000000AF10
DD0000000000000000AF10
DD0000000000000000AF10
ENDCHAR
STARTCHAR ograve
ENCODING 242
SWIDTH 983 0
DWIDTH 28 0
BBX 25 24 1 0
BITMAP
00000000892000000000000000
00000000AFF920000000000000
00000000028EF9200000000000
0000000000006C400000000000
00000000000000000000000000
000000048BCDFEEC9610000000
000006DFFFFFFFFFFFFB200000
0002CFFC7521011369EFF70000
002DFC30000000000007EF8000
00CF90000000000000002DF400
05FC000000000000000003FD00
0BF3000000000000000000AF30
0ED00000000000000000005F70
1FB00000000000000000002F90
2FA00000000000000000001FA0
1FB00000000000000000002F90
0ED00000000000000000005F70
0AF3000000000000000000AF30
05FB000000000000000003FD00
00BF90000000000000002DF400
002DFB30000000000006EF8000
0002CFFC7421001359EFF70000
000006DFFFFFFFFFFFFB300000
000000038BDEFEEC9610000000
ENDCHAR
STARTCHAR oacute
ENCODING 243
SWIDTH 983 0
DWIDTH 28 0
BBX 25 24 1 0
BITMAP
0000000000000004C300000000
00000000000004CFE500000000
000000000004CFC50000000000
00000000000993000000000000
00000000000000000000000000
000000048BCDFEEC9610000000
000006DFFFFFFFFFFFFB200000
0002CFFC7521011369EFF70000
002DFC30000000000007EF8000
00CF90000000000000002DF400
05FC000000000000000003FD00
0BF3000000000000000000AF30
0ED00000000000000000005F70
1FB00000000000000000002F90
2FA00000000000000000001FA0
1FB00000000000000000002F90
0ED00000000000000000005F70
0AF3000000000000000000AF30
05FB000000000000000003FD00
00BF90000000000000002DF400
002DFB30000000000006EF8000
0002CFFC7421001359EFF70000
000006DFFFFFFFFFFFFB300000
000000038BDEFEEC9610000000
ENDCHAR
STARTCHAR ocircumflex
ENCODING 244
SWIDTH 983 0
DWIDTH 28 0
BBX 25 24 1 0
BITMAP
000000000004C9100000000000
0000000002AFEFE70000000000
000000018FD6129FD500000000
00000003C50000018B00000000
00000000000000000000000000
000000048BCDFEEC9610000000
000006DFFFFFFFFFFFFB200000
0002CFFC7521011369EFF70000
002DFC30000000000007EF8000
00CF90000000000000002DF400
05FC000000000000000003FD00
0BF3000000000000000000AF30
0ED00000000000000000005F70
1FB00000000000000000002F90
2FA00000000000000000001FA0
1FB00000000000000000002F90
0ED00000000000000000005F70
0AF3000000000000000000AF30
05FB000000000000000003FD00
00BF90000000000000002DF400
002DFB30000000000006EF8000
0002CFFC7421001359EFF70000
000006DFFFFFFFFFFFFB300000
000000038BDEFEEC9610000000
ENDCHAR
STARTCHAR otilde
ENCODING 245
SWIDTH 983 0
DWIDTH 28 0
BBX 25 24 1 0
BITMAP
000000001BFC4000B900000000
000000009B15DA23E400000000
00000000E60018EE7000000000
00000000000000000000000000
00000000000000000000000000
000000048BCDFEEC9610000000
000006DFFFFFFFFFFFFB200000
0002CFFC7521011369EFF70000
002DFC30000000000007EF8000
00CF90000000000000002DF400
05FC000000000000000003FD00
0BF3000000000000000000AF30
0ED00000000000000000005F70
1FB00000000000000000002F90
2FA00000000000000000001FA0
1FB00000000000000000002F90
0ED00000000000000000005F70
0AF3000000000000000000AF30
05FB000000000000000003FD00
00BF90000000000000002DF400
002DFB30000000000006EF8000
0002CFFC7421001359EFF70000
000006DFFFFFFFFFFFFB300000
000000038BDEFEEC9610000000
ENDCHAR
STARTCHAR odieresis
ENCODING 246
SWIDTH 983 0
DWIDTH 28 0
BBX 25 23 1 0
BITMAP
000000000EF1007F8000000000
000000000EF1007F8000000000
00000000000000000000000000
00000000000000000000000000
000000048BCDFEEC9610000000
000006DFFFFFFFFFFFFB200000
0002CFFC7521011369EFF70000
002DFC30000000000007EF8000
00CF90000000000000002DF400
05FC000000000000000003FD00
0BF3000000000000000000AF30
0ED00000000000000000005F70
1FB00000000000000000002F90
2FA00000000000000000001FA0
1FB00000000000000000002F90
0ED00000000000000000005F70
0AF3000000000000000000AF30
05FB000000000000000003FD00
00BF90000000000000002DF400
002DFB30000000000006EF8000
0002CFFC7421001359EFF70000
000006DFFFFFFFFFFFFB300000
000000038BDEFEEC9610000000
ENDCHAR
STARTCHAR divide
ENCODING 247
SWIDTH 634 0
DWIDTH 18 0
BBX 14 12 2 4
BITMAP
000000FC000000
000000FC000000
00000000000000
00000000000000
00000000000000
AFFFFFFFFFFFF6
AFFFFFFFFFFFF6
00000000000000
00000000000000
00000000000000
000000FC000000
000000FC000000
ENDCHAR
STARTCHAR oslash
ENCODING 248
SWIDTH 983 0
DWIDTH 28 0
BBX 25 23 1 -2
BITMAP
00000000000000000001DC0000
0000000000000000000AE20000
000000048BCEFEDC957F400000
000006DFFFFFFFFFFFFD200000
0002CFFC752101135DFFF70000
002DFC30000000005F66EF8000
00CF900000000003E9002DF500
05FC00000000001DC00003FD00
0BF30000000000BE200000AF40
0ED00000000007F40000005F70
1FB0000000004F700000002FA0
2F9000000002EA000000001FA0
1FA00000001CD1000000002F90
0ED0000000AE20000000005F70
0BF2000006F50000000000AF30
05FA00003F800000000003FD00
00CF8001DB00000000002DF400
002EFB3BD10000000006EF8000
0002CFFFA421001359EFF70000
000007FFFFFFFFFFFFFB300000
00000AE57BDEFEEC9610000000
00007F50000000000000000000
0003F800000000000000000000
ENDCHAR
STARTCHAR ugrave
ENCODING 249
SWIDTH 931 0
DWIDTH 26 0
BBX 20 24 3 0
BITMAP
000006A3000000000000
000007EFA30000000000
00000017DFA300000000
0000000004B700000000
00000000000000000000
EC0000000000000000CE
EC0000000000000000CE
EC0000000000000000CE
EC0000000000000000CE
EC0000000000000000CE
EC0000000000000000CE
EC0000000000000000CE
EC0000000000000000CE
EC0000000000000000CE
EC0000000000000000CE
EC0000000000000000CE
EC0000000000000000CE
ED0000000000000000CE
DE0000000000000007FE
AF40000000000003CFFE
4FC10000000004BFFADE
0AFD73101259EFFC40CE
019FFFFFFFFFFC5000CE
00039CEFEDB7200000CE
ENDCHAR
STARTCHAR uacute
ENCODING 250
SWIDTH 931 0
DWIDTH 26 0
BBX 20 24 3 0
BITMAP
0000000000003A600000
00000000003AFE700000
000000003AFD71000000
000000006B4000000000
00000000000000000000
EC0000000000000000CE
EC0000000000000000CE
EC0000000000000000CE
EC0000000000000000CE
EC0000000000000000CE
EC0000000000000000CE
EC0000000000000000CE
EC0000000000000000CE
EC0000000000000000CE
EC0000000000000000CE
EC0000000000000000CE
EC0000000000000000CE
ED0000000000000000CE
DE0000000000000007FE
AF40000000000003CFFE
4FC10000000004BFFADE
0AFD73101259EFFC40CE
019FFFFFFFFFFC5000CE
00039CEFEDB7200000CE
ENDCHAR
STARTCHAR ucircumflex
ENCODING 251
SWIDTH 931 0
DWIDTH 26 0
BBX 20 24 3 0
BITMAP
000000002BB200000000
00000018FEEF91000000
000006EE8118EE600000
00001C61000016C10000
00000000000000000000
EC0000000000000000CE
EC0000000000000000CE
EC0000000000000000CE
EC0000000000000000CE
EC0000000000000000CE
EC0000000000000000CE
EC0000000000000000CE
EC0000000000000000CE
EC0000000000000000CE
EC0000000000000000CE
EC0000000000000000CE
EC0000000000000000CE
ED0000000000000000CE
DE0000000000000007FE
AF40000000000003CFFE
4FC10000000004BFFADE
0AFD73101259EFFC40CE
019FFFFFFFFFFC5000CE
00039CEFEDB7200000CE
ENDCHAR
STARTCHAR udieresis
ENCODING 252
SWIDTH 931 0
DWIDTH 26 0
BBX 20 23 3 0
BITMAP
000000BF4004FB000000
000000BF4004FB000000
00000000000000000000
00000000000000000000
EC0000000000000000CE
EC0000000000000000CE
EC0000000000000000CE
EC0000000000000000CE
EC0000000000000000CE
EC0000000000000000CE
EC0000000000000000CE
EC0000000000000000CE
EC0000000000000000CE
EC0000000000000000CE
EC0000000000000000CE
EC0000000000000000CE
ED0000000000000000CE
DE0000000000000007FE
AF40000000000003CFFE
4FC10000000004BFFADE
0AFD73101259EFFC40CE
019FFFFFFFFFFC5000CE
00039CEFEDB7200000CE
ENDCHAR
STARTCHAR yacute
ENCODING 253
SWIDTH 911 0
DWIDTH 26 0
BBX 21 24 2 0
BITMAP
00000000000017B0000000
000000000017EFB1000000
0000000017EE9300000000
000000001C710000000000
0000000000000000000000
7F40000000000000006F50
7F40000000000000006F50
7F40000000000000006F50
7F40000000000000006F50
7F40000000000000006F50
6F50000000000000006F50
5F8000000000000001DF50
1FC00000000000000BFF50
0CF6000000000001CFDF50
04FE50000000004DFA6F50
008FFC6310136CFF806F50
0006EFFFFFFFFFB3006F50
000016ADEFEC8200008F40
000000000000000000DF20
000000000000000009FB00
0000000000000003CFE200
7C964311001248CFFD3000
7FFFFFFFFFFFFFFE810000
0479BDEEFFEDB951000000
ENDCHAR
STARTCHAR thorn
ENCODING 254
SWIDTH 787 0
DWIDTH 22 0
BBX 18 19 3 0
BITMAP
DD0000000000000000
DD0000000000000000
DD0000000000000000
DFFFFFFFFFEDA61000
DFFFFFFFFFFFFFE600
DD00000000135AFF60
DD0000000000005FD0
DD0000000000000AF3
DD00000000000007F5
DD00000000000007F5
DD0000000000000AF3
DD0000000000004FD0
DD00000000024AFF50
DFFFFFFFFFFFFFE600
DFFFFFFFFFEDA71000
DD0000000000000000
DD0000000000000000
DD0000000000000000
DD0000000000000000
ENDCHAR
STARTCHAR ydieresis
ENCODING 255
SWIDTH 911 0
DWIDTH 26 0
BBX 21 23 2 0
BITMAP
0000005FA000DF20000000
0000005FA000DF20000000
0000000000000000000000
0000000000000000000000
7F40000000000000006F50
7F40000000000000006F50
7F40000000000000006F50
7F40000000000000006F50
7F40000000000000006F50
6F50000000000000006F50
5F8000000000000001DF50
1FC00000000000000BFF50
0CF6000000000001CFDF50
04FE50000000004DFA6F50
008FFC6310136CFF806F50
0006EFFFFFFFFFB3006F50
000016ADEFEC8200008F40
000000000000000000DF20
000000000000000009FB00
0000000000000003CFE200
7C964311001248CFFD3000
7FFFFFFFFFFFFFFE810000
0479BDEEFFEDB951000000
ENDCHAR
STARTCHAR Amacron
ENCODING 256
SWIDTH 812 0
DWIDTH 23 0
BBX 23 23 0 0
BITMAP
00000005FFFFFFF200000000
00000005FFFFFFF200000000
000000000000000000000000
000000000000000000000000
0000000000DFA00000000000
0000000006FEF30000000000
000000000DE3FA0000000000
000000006F609F3000000000
00000001ED002FB000000000
00000007F50008F400000000
0000001EC00001EB00000000
0000007F4000007F40000000
000001EB0000001DC0000000
000008F300000006F5000000
00001EA000000000DC000000
00008F20000000005F500000
0002FFFFFFFFFFFFFFD00000
0009FFFFFFFFFFFFFFF60000
002FB0000000000001ED0000
009F400000000000007F6000
02FB000000000000000DE100
0AF30000000000000006F700
3FA00000000000000000DE10
ENDCHAR
STARTCHAR amacron
ENCODING 257
SWIDTH 888 0
DWIDTH 25 0
BBX 21 23 1 0
BITMAP
00000007FFFFFFF1000000
00000007FFFFFFF1000000
0000000000000000000000
0000000000000000000000
000358ACDEFFEDB8300000
008FFFFFFFFFFFFFFC3000
007C964211001248CFF500
000000000000000004DF20
0000000000000000003F80
0000000000000000000DB0
0000000000000000000CD0
00000000002578ABCDEFD0
00000159CFFFFFFFFFFFD0
0003AFFFFECA8653211CD0
008FFD8510000000000CD0
08FD400000000000000CD0
1FD1000000000000000CD0
4F80000000000000000CD0
3FA0000000000000002DD0
1EF500000000000049EFD0
07FFB631001247AEFFDED0
007EFFFFFFFFFFFEA50CD0
00017BDEFEDCA740000CD0
ENDCHAR
STARTCHAR Abreve
ENCODING 258
SWIDTH 812 0
DWIDTH 23 0
BBX 23 24 0 0
BITMAP
0000002F800000BD00000000
00000007F8103AF400000000
000000005BEFEA3000000000
000000000000000000000000
000000000000000000000000
0000000000DFA00000000000
0000000006FEF30000000000
000000000DE3FA0000000000
000000006F609F3000000000
00000001ED002FB000000000
00000007F50008F400000000
0000001EC00001EB00000000
0000007F4000007F40000000
000001EB0000001DC0000000
000008F300000006F5000000
00001EA000000000DC000000
00008F20000000005F500000
0002FFFFFFFFFFFFFFD00000
0009FFFFFFFFFFFFFFF60000
002FB0000000000001ED0000
009F400000000000007F6000
02FB000000000000000DE100
0AF30000000000000006F700
3FA00000000000000000DE10
ENDCHAR
STARTCHAR abreve
ENCODING 259
SWIDTH 888 0
DWIDTH 25 0
BBX 21 24 1 0
BITMAP
0000003F600000CD000000
00000008F7113BF3000000
000000005BEFDA30000000
0000000000000000000000
0000000000000000000000
000358ACDEFFEDB8300000
008FFFFFFFFFFFFFFC3000
007C964211001248CFF500
000000000000000004DF20
0000000000000000003F80
0000000000000000000DB0
0000000000000000000CD0
00000000002578ABCDEFD0
00000159CFFFFFFFFFFFD0
0003AFFFFECA8653211CD0
008FFD8510000000000CD0
08FD400000000000000CD0
1FD1000000000000000CD0
4F80000000000000000CD0
3FA0000000000000002DD0
1EF500000000000049EFD0
07FFB631001247AEFFDED0
007EFFFFFFFFFFFEA50CD0
00017BDEFEDCA740000CD0
ENDCHAR
STARTCHAR Aogonek
ENCODING 260
SWIDTH 812 0
DWIDTH 23 0
BBX 25 24 0 -5
BITMAP
0000000000DFA0000000000000
0000000006FEF3000000000000
000000000DE3FA000000000000
000000006F609F300000000000
00000001ED002FB00000000000
00000007F50008F40000000000
0000001EC00001EB0000000000
0000007F4000007F4000000000
000001EB0000001DC000000000
000008F300000006F500000000
00001EA000000000DC00000000
00008F20000000005F50000000
0002FFFFFFFFFFFFFFD0000000
0009FFFFFFFFFFFFFFF6000000
002FB0000000000001ED000000
009F400000000000007F600000
02FB000000000000000DE10000
0AF30000000000000006F70000
3FA00000000000000000DE1000
00000000000000000007E60000
0000000000000000007F300000
000000000000000000DB000000
000000000000000000CD302A10
0000000000000000002BEFC500
ENDCHAR
STARTCHAR aogonek
ENCODING 261
SWIDTH 888 0
DWIDTH 25 0
BBX 23 24 1 -5
BITMAP
000358ACDEFFEDB830000000
008FFFFFFFFFFFFFFC300000
007C964211001248CFF50000
000000000000000004DF2000
0000000000000000003F8000
0000000000000000000DB000
0000000000000000000CD000
00000000002578ABCDEFD000
00000159CFFFFFFFFFFFD000
0003AFFFFECA8653211CD000
008FFD8510000000000CD000
08FD400000000000000CD000
1FD1000000000000000CD000
4F80000000000000000CD000
3FA0000000000000000DD000
1EF500000000000027DFD000
07FFB6310012469DFFDED000
007EFFFFFFFFFFFEA50CD000
00017BDEFEDCA740000DD000
0000000000000000009C3000
00000000000000000AD10000
00000000000000001F700000
00000000000000000EB204A0
000000000000000004CEEB30
ENDCHAR
STARTCHAR Cacute
ENCODING 262
SWIDTH 869 0
DWIDTH 24 0
BBX 22 24 1 0
BITMAP
0000000000000005C10000
00000000000005DFD30000
000000000005DFB4000000
00000000000B8200000000
0000000000000000000000
000000037BDEFEDC962000
000005DFFFFFFFFFFFFC61
0001BFFD8521001258CFF6
001DFC4000000000000296
00BFA00000000000000000
04FC000000000000000000
0AF3000000000000000000
0ED0000000000000000000
1FB0000000000000000000
2F90000000000000000000
1FB0000000000000000000
0ED0000000000000000000
0AF3000000000000000000
04FC000000000000000000
00BFA00000000000000000
001DFC4000000000000286
0001BFFD8521001258CFF6
000005DFFFFFFFFFFFFC61
000000037BDEFEEC962000
ENDCHAR
STARTCHAR cacute
ENCODING 263
SWIDTH 869 0
DWIDTH 24 0
BBX 22 24 1 0
BITMAP
0000000000000005C10000
00000000000005DFD40000
000000000005DFB4000000
00000000000A9200000000
0000000000000000000000
000000037BDEFEDC962000
000005DFFFFFFFFFFFFC61
0001BFFD8521001258CFF6
001DFC4000000000000296
00BFA00000000000000000
04FC000000000000000000
0AF3000000000000000000
0ED0000000000000000000
1FB0000000000000000000
2F90000000000000000000
1FB0000000000000000000
0ED0000000000000000000
0AF3000000000000000000
04FC000000000000000000
00BFA00000000000000000
001DFC4000000000000286
0001BFFD8521001258CFF6
000005DFFFFFFFFFFFFC61
000000037BDEFEEC962000
ENDCHAR
STARTCHAR Ccircumflex
ENCODING 264
SWIDTH 869 0
DWIDTH 24 0
BBX 22 24 1 0
BITMAP
000000000005D810000000
0000000003BFEFD5000000
000000019FC503AFC30000
00000006B40000029A0000
0000000000000000000000
000000037BDEFEDC962000
000005DFFFFFFFFFFFFC61
0001BFFD8521001258CFF6
001DFC4000000000000296
00BFA00000000000000000
04FC000000000000000000
0AF3000000000000000000
0ED0000000000000000000
1FB0000000000000000000
2F90000000000000000000
1FB0000000000000000000
0ED0000000000000000000
0AF3000000000000000000
04FC000000000000000000
00BFA00000000000000000
001DFC4000000000000286
0001BFFD8521001258CFF6
000005DFFFFFFFFFFFFC61
000000037BDEFEEC962000
ENDCHAR
STARTCHAR ccircumflex
ENCODING 265
SWIDTH 869 0
DWIDTH 24 0
BBX 22 24 1 0
BITMAP
000000000005D810000000
0000000003BFEFE6000000
000000019FC503AFC40000
00000005B40000029A0000
0000000000000000000000
000000037BDEFEDC962000
000005DFFFFFFFFFFFFC61
0001BFFD8521001258CFF6
001DFC4000000000000296
00BFA00000000000000000
04FC000000000000000000
0AF3000000000000000000
0ED0000000000000000000
1FB0000000000000000000
2F90000000000000000000
1FB0000000000000000000
0ED0000000000000000000
0AF3000000000000000000
04FC000000000000000000
00BFA00000000000000000
001DFC4000000000000286
0001BFFD8521001258CFF6
000005DFFFFFFFFFFFFC61
000000037BDEFEEC962000
ENDCHAR
STARTCHAR Cdotaccent
ENCODING 266
SWIDTH 869 0
DWIDTH 24 0
BBX 22 23 1 0
BITMAP
000000000006FB00000000
000000000006FB00000000
0000000000000000000000
0000000000000000000000
000000037BDEFEDC962000
000005DFFFFFFFFFFFFC61
0001BFFD8521001258CFF6
001DFC4000000000000296
00BFA00000000000000000
04FC000000000000000000
0AF3000000000000000000
0ED0000000000000000000
1FB0000000000000000000
2F90000000000000000000
1FB0000000000000000000
0ED0000000000000000000
0AF3000000000000000000
04FC000000000000000000
00BFA00000000000000000
001DFC4000000000000286
0001BFFD8521001258CFF6
000005DFFFFFFFFFFFFC61
000000037BDEFEEC962000
ENDCHAR
STARTCHAR cdotaccent
ENCODING 267
SWIDTH 869 0
DWIDTH 24 0
BBX 22 23 1 0
BITMAP
000000000006FB00000000
000000000006FB00000000
0000000000000000000000
0000000000000000000000
000000037BDEFEDC962000
000005DFFFFFFFFFFFFC61
0001BFFD8521001258CFF6
001DFC4000000000000296
00BFA00000000000000000
04FC000000000000000000
0AF3000000000000000000
0ED0000000000000000000
1FB0000000000000000000
2F90000000000000000000
1FB0000000000000000000
0ED0000000000000000000
0AF3000000000000000000
04FC000000000000000000
00BFA00000000000000000
001DFC4000000000000286
0001BFFD8521001258CFF6
000005DFFFFFFFFFFFFC61
000000037BDEFEEC962000
ENDCHAR
STARTCHAR Ccaron
ENCODING 268
SWIDTH 869 0
DWIDTH 24 0
BBX 22 24 1 0
BITMAP
00000006B40000029A0000
00000002AFC503AFC40000
0000000003CFEFE6000000
000000000005D810000000
0000000000000000000000
000000037BDEFEDC962000
000005DFFFFFFFFFFFFC61
0001BFFD8521001258CFF6
001DFC4000000000000296
00BFA00000000000000000
04FC000000000000000000
0AF3000000000000000000
0ED0000000000000000000
1FB0000000000000000000
2F90000000000000000000
1FB0000000000000000000
0ED0000000000000000000
0AF3000000000000000000
04FC000000000000000000
00BFA00000000000000000
001DFC4000000000000286
0001BFFD8521001258CFF6
000005DFFFFFFFFFFFFC61
000000037BDEFEEC962000
ENDCHAR
STARTCHAR ccaron
ENCODING 269
SWIDTH 869 0
DWIDTH 24 0
BBX 22 24 1 0
BITMAP
00000005B40000028A0000
000000019FC503AFC40000
0000000003BFEFE6000000
000000000005D810000000
0000000000000000000000
000000037BDEFEDC962000
000005DFFFFFFFFFFFFC61
0001BFFD8521001258CFF6
001DFC4000000000000296
00BFA00000000000000000
04FC000000000000000000
0AF3000000000000000000
0ED0000000000000000000
1FB0000000000000000000
2F90000000000000000000
1FB0000000000000000000
0ED0000000000000000000
0AF3000000000000000000
04FC000000000000000000
00BFA00000000000000000
001DFC4000000000000286
0001BFFD8521001258CFF6
000005DFFFFFFFFFFFFC61
000000037BDEFEEC962000
ENDCHAR
STARTCHAR Dcaron
ENCODING 270
SWIDTH 910 0
DWIDTH 25 0
BBX 21 24 3 0
BITMAP
004B40000018B000000000
0019FC6029FD4000000000
00002BFEFE600000000000
0000004C91000000000000
0000000000000000000000
DFFFFFFFFFEECA61000000
DFFFFFFFFFFFFFFF910000
DD000000001136AFFD2000
DD00000000000002AFD100
DD0000000000000009F900
DD0000000000000001EF10
DD00000000000000008F50
DD00000000000000004F80
DD00000000000000002F90
DD00000000000000002FA0
DD00000000000000003F90
DD00000000000000004F80
DD00000000000000009F50
DD0000000000000001EF10
DD000000000000000AF900
DD00000000000002AFE100
DD000000000135AEFE3000
DFFFFFFFFFFFFFFFA10000
DFFFFFFFFFEDC962000000
ENDCHAR
STARTCHAR dcaron
ENCODING 271
SWIDTH 910 0
DWIDTH 25 0
BBX 21 24 3 0
BITMAP
004C50000018B000000000
0019FD6029FD4000000000
00002BFEFE700000000000
0000004C91000000000000
0000000000000000000000
DFFFFFFFFFEECA61000000
DFFFFFFFFFFFFFFF910000
DD000000001136AFFD2000
DD00000000000002AFD100
DD0000000000000009F900
DD0000000000000001EF10
DD00000000000000008F50
DD00000000000000004F80
DD00000000000000002F90
DD00000000000000002FA0
DD00000000000000003F90
DD00000000000000004F80
DD00000000000000009F50
DD0000000000000001EF10
DD000000000000000AF900
DD00000000000002AFE100
DD000000000135AEFE3000
DFFFFFFFFFFFFFFFA10000
DFFFFFFFFFEDC962000000
ENDCHAR
STARTCHAR Dcroat
ENCODING 272
SWIDTH 910 0
DWIDTH 25 0
BBX 24 19 0 0
BITMAP
000DFFFFFFFFEECA85100000
000DFFFFFFFFFFFFFFE81000
000DD000000012359DFFD200
000DD00000000000004DFE10
000DD000000000000001BF90
000DD0000000000000002EF1
000DD00000000000000009F5
000DD00000000000000005F8
000DD00000000000000003F9
9FFFFFFFFFFF8000000002FA
9FFFFFFFFFFF8000000002F9
000DD00000000000000004F8
000DD00000000000000008F5
000DD0000000000000001EF1
000DD000000000000000AF90
000DD00000000000002AFE10
000DD000000011247CFFD300
000DFFFFFFFFFFFFFFE91000
000DFFFFFFFFEECA85100000
ENDCHAR
STARTCHAR dcroat
ENCODING 273
SWIDTH 910 0
DWIDTH 25 0
BBX 24 19 0 0
BITMAP
000DFFFFFFFFEECA85100000
000DFFFFFFFFFFFFFFE81000
000DD000000012359DFFD200
000DD00000000000004DFE10
000DD000000000000001BF90
000DD0000000000000002EF1
000DD00000000000000009F5
000DD00000000000000005F8
000DD00000000000000003F9
9FFFFFFFFFFF8000000002FA
9FFFFFFFFFFF8000000002F9
000DD00000000000000004F8
000DD00000000000000008F5
000DD0000000000000001EF1
000DD000000000000000AF90
000DD00000000000002AFE10
000DD000000011247CFFD300
000DFFFFFFFFFFFFFFE91000
000DFFFFFFFFEECA85100000
ENDCHAR
STARTCHAR Emacron
ENCODING 274
SWIDTH 754 0
DWIDTH 21 0
BBX 16 23 3 0
BITMAP
0000EFFFFFF90000
0000EFFFFFF90000
0000000000000000
0000000000000000
DFFFFFFFFFFFFFFC
DFFFFFFFFFFFFFFC
DF00000000000000
DF00000000000000
DF00000000000000
DF00000000000000
DF00000000000000
DF00000000000000
DFFFFFFFFFFFFFF2
DFFFFFFFFFFFFFF2
DF00000000000000
DF00000000000000
DF00000000000000
DF00000000000000
DF00000000000000
DF00000000000000
DF00000000000000
DFFFFFFFFFFFFFFF
DFFFFFFFFFFFFFFF
ENDCHAR
STARTCHAR emacron
ENCODING 275
SWIDTH 910 0
DWIDTH 25 0
BBX 23 23 1 0
BITMAP
00000000EFFFFFF800000000
00000000EFFFFFF800000000
000000000000000000000000
000000000000000000000000
000000048CDFEDC840000000
000006DFFFFFFFFFFD600000
0001BFFB63101136BFFA0000
001CFA200000000002BFA000
00AF7000000000000009F500
03F90000000000000000CD00
09F100000000000000006F30
0EB000000000000000002F70
1FFFFFFFFFFFFFFFFFFFFF80
2FFFFFFFFFFFFFFFFFFFFF90
1FB000000000000000000000
0EE000000000000000000000
0AF500000000000000000000
04FD10000000000000000000
00AFB1000000000000000000
001CFD500000000000000000
0001AFFE953110113469C100
000005CFFFFFFFFFFFFFF100
000000037ADEFFFECB852000
ENDCHAR
STARTCHAR Ebreve
ENCODING 276
SWIDTH 754 0
DWIDTH 21 0
BBX 16 24 3 0
BITMAP
000AE100004F6000
0002EC3016EB0000
000029DFEC700000
0000000000000000
0000000000000000
DFFFFFFFFFFFFFFC
DFFFFFFFFFFFFFFC
DF00000000000000
DF00000000000000
DF00000000000000
DF00000000000000
DF00000000000000
DF00000000000000
DFFFFFFFFFFFFFF2
DFFFFFFFFFFFFFF2
DF00000000000000
DF00000000000000
DF00000000000000
DF00000000000000
DF00000000000000
DF00000000000000
DF00000000000000
DFFFFFFFFFFFFFFF
DFFFFFFFFFFFFFFF
ENDCHAR
STARTCHAR ebreve
ENCODING 277
SWIDTH 910 0
DWIDTH 25 0
BBX 23 24 1 0
BITMAP
0000000BD100005F50000000
00000002EB3026EA00000000
0000000029DFEC6000000000
000000000000000000000000
000000000000000000000000
000000048CDFEDC840000000
000006DFFFFFFFFFFD600000
0001BFFB63101136BFFA0000
001CFA200000000002BFA000
00AF7000000000000009F500
03F90000000000000000CD00
09F100000000000000006F30
0EB000000000000000002F70
1FFFFFFFFFFFFFFFFFFFFF80
2FFFFFFFFFFFFFFFFFFFFF90
1FB000000000000000000000
0EE000000000000000000000
0AF500000000000000000000
04FD10000000000000000000
00AFB1000000000000000000
001CFD500000000000000000
0001AFFE953110113469C100
000005CFFFFFFFFFFFFFF100
000000037ADEFFFECB852000
ENDCHAR
STARTCHAR Edotaccent
ENCODING 278
SWIDTH 754 0
DWIDTH 21 0
BBX 16 23 3 0
BITMAP
0000003FE0000000
0000003FE0000000
0000000000000000
0000000000000000
DFFFFFFFFFFFFFFC
DFFFFFFFFFFFFFFC
DF00000000000000
DF00000000000000
DF00000000000000
DF00000000000000
DF00000000000000
DF00000000000000
DFFFFFFFFFFFFFF2
DFFFFFFFFFFFFFF2
DF00000000000000
DF00000000000000
DF00000000000000
DF00000000000000
DF00000000000000
DF00000000000000
DF00000000000000
DFFFFFFFFFFFFFFF
DFFFFFFFFFFFFFFF
ENDCHAR
STARTCHAR edotaccent
ENCODING 279
SWIDTH 910 0
DWIDTH 25 0
BBX 23 23 1 0
BITMAP
00000000004FD00000000000
00000000004FD00000000000
000000000000000000000000
000000000000000000000000
000000048CDFEDC840000000
000006DFFFFFFFFFFD600000
0001BFFB63101136BFFA0000
001CFA200000000002BFA000
00AF7000000000000009F500
03F90000000000000000CD00
09F100000000000000006F30
0EB000000000000000002F70
1FFFFFFFFFFFFFFFFFFFFF80
2FFFFFFFFFFFFFFFFFFFFF90
1FB000000000000000000000
0EE000000000000000000000
0AF500000000000000000000
04FD10000000000000000000
00AFB1000000000000000000
001CFD500000000000000000
0001AFFE953110113469C100
000005CFFFFFFFFFFFFFF100
000000037ADEFFFECB852000
ENDCHAR
STARTCHAR Eogonek
ENCODING 280
SWIDTH 754 0
DWIDTH 21 0
BBX 16 24 3 -5
BITMAP
DFFFFFFFFFFFFFFC
DFFFFFFFFFFFFFFC
DF00000000000000
DF00000000000000
DF00000000000000
DF00000000000000
DF00000000000000
DF00000000000000
DFFFFFFFFFFFFFF2
DFFFFFFFFFFFFFF2
DF00000000000000
DF00000000000000
DF00000000000000
DF00000000000000
DF00000000000000
DF00000000000000
DF00000000000000
DFFFFFFFFFFFFFFF
DFFFFFFFFFFFFFFF
000000000008F931
00000000008F5000
0000000000EA0000
0000000000CD203A
00000000003BEFC4
ENDCHAR
STARTCHAR eogonek
ENCODING 281
SWIDTH 910 0
DWIDTH 25 0
BBX 23 23 1 -4
BITMAP
000000048CDFEDC840000000
000006DFFFFFFFFFFD600000
0001BFFB63101136BFFA0000
001CFA200000000002BFA000
00AF7000000000000009F500
03F90000000000000000CD00
09F100000000000000006F30
0EB000000000000000002F70
1FFFFFFFFFFFFFFFFFFFFF80
2FFFFFFFFFFFFFFFFFFFFF90
1FB000000000000000000000
0EE000000000000000000000
0AF500000000000000000000
04FD10000000000000000000
00AFB1000000000000000000
001CFD500000000000000000
0001AFFE953110113469C100
000005CFFFFFFFFFFFFFF100
000000037ADEFFEECCFC4000
00000000000000002EA00000
00000000000000009E100000
00000000000000008F401840
000000000000000019EFD700
ENDCHAR
STARTCHAR Ecaron
ENCODING 282
SWIDTH 754 0
DWIDTH 21 0
BBX 16 24 3 0
BITMAP
003C50000017C000
0018FD6128ED5000
00002AFEFE710000
0000003CA2000000
0000000000000000
DFFFFFFFFFFFFFFC
DFFFFFFFFFFFFFFC
DF00000000000000
DF00000000000000
DF00000000000000
DF00000000000000
DF00000000000000
DF00000000000000
DFFFFFFFFFFFFFF2
DFFFFFFFFFFFFFF2
DF00000000000000
DF00000000000000
DF00000000000000
DF00000000000000
DF00000000000000
DF00000000000000
DF00000000000000
DFFFFFFFFFFFFFFF
DFFFFFFFFFFFFFFF
ENDCHAR
STARTCHAR ecaron
ENCODING 283
SWIDTH 910 0
DWIDTH 25 0
BBX 23 24 1 0
BITMAP
0000003C50000018B0000000
00000018FD6029ED50000000
000000002AFEFE7000000000
00000000004C910000000000
000000000000000000000000
000000048CDFEDC840000000
000006DFFFFFFFFFFD600000
0001BFFB63101136BFFA0000
001CFA200000000002BFA000
00AF7000000000000009F500
03F90000000000000000CD00
09F100000000000000006F30
0EB000000000000000002F70
1FFFFFFFFFFFFFFFFFFFFF80
2FFFFFFFFFFFFFFFFFFFFF90
1FB000000000000000000000
0EE000000000000000000000
0AF500000000000000000000
04FD10000000000000000000
00AFB1000000000000000000
001CFD500000000000000000
0001AFFE953110113469C100
000005CFFFFFFFFFFFFFF100
000000037ADEFFFECB852000
ENDCHAR
STARTCHAR Gcircumflex
ENCODING 284
SWIDTH 910 0
DWIDTH 25 0
BBX 23 24 1 0
BITMAP
000000000003CA2000000000
0000000002AFEFE710000000
000000017ED7128ED5000000
00000003C50000017C000000
000000000000000000000000
000000027ACEFFEDA8300000
000004CFFFFFFFFFFFFD8200
0001AFFE9632101247BFFB00
001CFD500000000000017900
00AFB1000000000000000000
04FD00000000000000000000
0AF400000000000000000000
0ED000000000000000000000
1FB000000000000000000000
2FA000000000000000000000
1FB0000000002FFFFFFFFF30
0EE0000000002FFFFFFFFF30
0AF400000000000000008F30
04FD10000000000000008F30
00AFC1000000000000008F30
001CFE600000000000008F30
0001BFFE963210012357CF30
000005CFFFFFFFFFFFFFFD20
000000027ACEEFEEDB852000
ENDCHAR
STARTCHAR gcircumflex
ENCODING 285
SWIDTH 910 0
DWIDTH 25 0
BBX 23 24 1 0
BITMAP
000000000003CA2000000000
0000000002AFEFE710000000
000000017ED7128ED5000000
00000003C50000017C000000
000000000000000000000000
000000027ACEFFEDA8300000
000004CFFFFFFFFFFFFD8200
0001AFFE9632101247BFFB00
001CFD500000000000017900
00AFB1000000000000000000
04FD00000000000000000000
0AF400000000000000000000
0ED000000000000000000000
1FB000000000000000000000
2FA000000000000000000000
1FB0000000002FFFFFFFFF30
0EE0000000002FFFFFFFFF30
0AF400000000000000008F30
04FD10000000000000008F30
00AFC1000000000000008F30
001CFE600000000000008F30
0001BFFE963210012357CF30
000005CFFFFFFFFFFFFFFD20
000000027ACEEFEEDB852000
ENDCHAR
STARTCHAR Gbreve
ENCODING 286
SWIDTH 910 0
DWIDTH 25 0
BBX 23 24 1 0
BITMAP
00000000AE100004F6000000
000000002EC4015EB0000000
00000000029DFEC700000000
000000000000000000000000
000000000000000000000000
000000027ACEFFEDA8300000
000004CFFFFFFFFFFFFD8200
0001AFFE9632101247BFFB00
001CFD500000000000017900
00AFB1000000000000000000
04FD00000000000000000000
0AF400000000000000000000
0ED000000000000000000000
1FB000000000000000000000
2FA000000000000000000000
1FB0000000002FFFFFFFFF30
0EE0000000002FFFFFFFFF30
0AF400000000000000008F30
04FD10000000000000008F30
00AFC1000000000000008F30
001CFE600000000000008F30
0001BFFE963210012357CF30
000005CFFFFFFFFFFFFFFD20
000000027ACEEFEEDB852000
ENDCHAR
STARTCHAR gbreve
ENCODING 287
SWIDTH 910 0
DWIDTH 25 0
BBX 23 24 1 0
BITMAP
00000000AE100004F6000000
000000002EC4015EB0000000
00000000029DFEC700000000
000000000000000000000000
000000000000000000000000
000000027ACEFFEDA8300000
000004CFFFFFFFFFFFFD8200
0001AFFE9632101247BFFB00
001CFD500000000000017900
00AFB1000000000000000000
04FD00000000000000000000
0AF400000000000000000000
0ED000000000000000000000
1FB000000000000000000000
2FA000000000000000000000
1FB0000000002FFFFFFFFF30
0EE0000000002FFFFFFFFF30
0AF400000000000000008F30
04FD10000000000000008F30
00AFC1000000000000008F30
001CFE600000000000008F30
0001BFFE963210012357CF30
000005CFFFFFFFFFFFFFFD20
000000027ACEEFEEDB852000
ENDCHAR
STARTCHAR Gdotaccent
ENCODING 288
SWIDTH 910 0
DWIDTH 25 0
BBX 23 23 1 0
BITMAP
000000000003FE0000000000
000000000003FE0000000000
000000000000000000000000
000000000000000000000000
000000027ACEFFEDA8300000
000004CFFFFFFFFFFFFD8200
0001AFFE9632101247BFFB00
001CFD500000000000017900
00AFB1000000000000000000
04FD00000000000000000000
0AF400000000000000000000
0ED000000000000000000000
1FB000000000000000000000
2FA000000000000000000000
1FB0000000002FFFFFFFFF30
0EE0000000002FFFFFFFFF30
0AF400000000000000008F30
04FD10000000000000008F30
00AFC1000000000000008F30
001CFE600000000000008F30
0001BFFE963210012357CF30
000005CFFFFFFFFFFFFFFD20
000000027ACEEFEEDB852000
ENDCHAR
STARTCHAR gdotaccent
ENCODING 289
SWIDTH 910 0
DWIDTH 25 0
BBX 23 23 1 0
BITMAP
000000000003FE0000000000
000000000003FE0000000000
000000000000000000000000
000000000000000000000000
000000027ACEFFEDA8300000
000004CFFFFFFFFFFFFD8200
0001AFFE9632101247BFFB00
001CFD500000000000017900
00AFB1000000000000000000
04FD00000000000000000000
0AF400000000000000000000
0ED000000000000000000000
1FB000000000000000000000
2FA000000000000000000000
1FB0000000002FFFFFFFFF30
0EE0000000002FFFFFFFFF30
0AF400000000000000008F30
04FD10000000000000008F30
00AFC1000000000000008F30
001CFE600000000000008F30
0001BFFE963210012357CF30
000005CFFFFFFFFFFFFFFD20
000000027ACEEFEEDB852000
ENDCHAR
STARTCHAR Gcommaaccent
ENCODING 290
SWIDTH 910 0
DWIDTH 25 0
BBX 23 25 1 -6
BITMAP
000000027ACEFFEDA8300000
000004CFFFFFFFFFFFFD8200
0001AFFE9632101247BFFB00
001CFD500000000000017900
00AFB1000000000000000000
04FD00000000000000000000
0AF400000000000000000000
0ED000000000000000000000
1FB000000000000000000000
2FA000000000000000000000
1FB0000000002FFFFFFFFF30
0EE0000000002FFFFFFFFF30
0AF400000000000000008F30
04FD10000000000000008F30
00AFC1000000000000008F30
001CFE600000000000008F30
0001BFFE963210012357CF30
000005CFFFFFFFFFFFFFFD20
000000027ACEEFEEDB852000
000000000000000000000000
000000000000000000000000
000000000000AF3000000000
000000000000CE0000000000
000000000000EA0000000000
000000000001F50000000000
ENDCHAR
STARTCHAR gcommaaccent
ENCODING 291
SWIDTH 910 0
DWIDTH 25 0
BBX 23 25 1 -6
BITMAP
000000027ACEFFEDA8300000
000004CFFFFFFFFFFFFD8200
0001AFFE9632101247BFFB00
001CFD500000000000017900
00AFB1000000000000000000
04FD00000000000000000000
0AF400000000000000000000
0ED000000000000000000000
1FB000000000000000000000
2FA000000000000000000000
1FB0000000002FFFFFFFFF30
0EE0000000002FFFFFFFFF30
0AF400000000000000008F30
04FD10000000000000008F30
00AFC1000000000000008F30
001CFE600000000000008F30
0001BFFE963210012357CF30
000005CFFFFFFFFFFFFFFD20
000000027ACEEFEEDB852000
000000000000000000000000
000000000000000000000000
000000000000AF3000000000
000000000000CE0000000000
000000000000EA0000000000
000000000001F50000000000
ENDCHAR
STARTCHAR Hcircumflex
ENCODING 292
SWIDTH 949 0
DWIDTH 27 0
BBX 21 24 3 0
BITMAP
0000000018D50000000000
00000006EFEFB300000000
000004CFA305CF91000000
00000A82000004B5000000
0000000000000000000000
DD00000000000000004F60
DD00000000000000004F60
DD00000000000000004F60
DD00000000000000004F60
DD00000000000000004F60
DD00000000000000004F60
DD00000000000000004F60
DD00000000000000004F60
DFFFFFFFFFFFFFFFFFFF60
DFFFFFFFFFFFFFFFFFFF60
DD00000000000000004F60
DD00000000000000004F60
DD00000000000000004F60
DD00000000000000004F60
DD00000000000000004F60
DD00000000000000004F60
DD00000000000000004F60
DD00000000000000004F60
DD00000000000000004F60
ENDCHAR
STARTCHAR hcircumflex
ENCODING 293
SWIDTH 949 0
DWIDTH 27 0
BBX 21 24 3 0
BITMAP
0000000018D50000000000
00000006EFEFB300000000
000004CFA305CF91000000
00000A82000004B5000000
0000000000000000000000
DD00000000000000004F60
DD00000000000000004F60
DD00000000000000004F60
DD00000000000000004F60
DD00000000000000004F60
DD00000000000000004F60
DD00000000000000004F60
DD00000000000000004F60
DFFFFFFFFFFFFFFFFFFF60
DFFFFFFFFFFFFFFFFFFF60
DD00000000000000004F60
DD00000000000000004F60
DD00000000000000004F60
DD00000000000000004F60
DD00000000000000004F60
DD00000000000000004F60
DD00000000000000004F60
DD00000000000000004F60
DD00000000000000004F60
ENDCHAR
STARTCHAR Hbar
ENCODING 294
SWIDTH 949 0
DWIDTH 27 0
BBX 26 19 0 0
BITMAP
000DD00000000000000004F600
000DD00000000000000004F600
000DD00000000000000004F600
000DD00000000000000004F600
4FFFFFFFFFFFFFFFFFFFFFFFFC
4FFFFFFFFFFFFFFFFFFFFFFFFC
000DD00000000000000004F600
000DD00000000000000004F600
000DFFFFFFFFFFFFFFFFFFF600
000DFFFFFFFFFFFFFFFFFFF600
000DD00000000000000004F600
000DD00000000000000004F600
000DD00000000000000004F600
000DD00000000000000004F600
000DD00000000000000004F600
000DD00000000000000004F600
000DD00000000000000004F600
000DD00000000000000004F600
000DD00000000000000004F600
ENDCHAR
STARTCHAR hbar
ENCODING 295
SWIDTH 949 0
DWIDTH 27 0
BBX 26 19 0 0
BITMAP
000DD00000000000000004F600
000DD00000000000000004F600
000DD00000000000000004F600
000DD00000000000000004F600
4FFFFFFFFFFFFFFFFFFFFFFFFC
4FFFFFFFFFFFFFFFFFFFFFFFFC
000DD00000000000000004F600
000DD00000000000000004F600
000DFFFFFFFFFFFFFFFFFFF600
000DFFFFFFFFFFFFFFFFFFF600
000DD00000000000000004F600
000DD00000000000000004F600
000DD00000000000000004F600
000DD00000000000000004F600
000DD00000000000000004F600
000DD00000000000000004F600
000DD00000000000000004F600
000DD00000000000000004F600
000DD00000000000000004F600
ENDCHAR
STARTCHAR Itilde
ENCODING 296
SWIDTH 287 0
DWIDTH 8 0
BBX 10 24 -1 0
BITMAP
08ED60007C
6E23CC41C7
A90006DFA0
0000000000
0000000000
0000DD0000
0000DD0000
0000DD0000
0000DD0000
0000DD0000
0000DD0000
0000DD0000
0000DD0000
0000DD0000
0000DD0000
0000DD0000
0000DD0000
0000DD0000
0000DD0000
0000DD0000
0000DD0000
0000DD0000
0000DD0000
0000DD0000
ENDCHAR
STARTCHAR itilde
ENCODING 297
SWIDTH 287 0
DWIDTH 8 0
BBX 10 24 -1 0
BITMAP
08ED60007C
6E23CC41C8
A90006DFA0
0000000000
0000000000
0000DD0000
0000DD0000
0000DD0000
0000DD0000
0000DD0000
0000DD0000
0000DD0000
0000DD0000
0000DD0000
0000DD0000
0000DD0000
0000DD0000
0000DD0000
0000DD0000
0000DD0000
0000DD0000
0000DD0000
0000DD0000
0000DD0000
ENDCHAR
STARTCHAR Imacron
ENCODING 298
SWIDTH 287 0
DWIDTH 8 0
BBX 8 23 0 0
BITMAP
BFFFFFFC
BFFFFFFC
00000000
00000000
000DD000
000DD000
000DD000
000DD000
000DD000
000DD000
000DD000
000DD000
000DD000
000DD000
000DD000
000DD000
000DD000
000DD000
000DD000
000DD000
000DD000
000DD000
000DD000
ENDCHAR
STARTCHAR imacron
ENCODING 299
SWIDTH 287 0
DWIDTH 8 0
BBX 8 23 0 0
BITMAP
BFFFFFFC
BFFFFFFC
00000000
00000000
000DD000
000DD000
000DD000
000DD000
000DD000
000DD000
000DD000
000DD000
000DD000
000DD000
000DD000
000DD000
000DD000
000DD000
000DD000
000DD000
000DD000
000DD000
000DD000
ENDCHAR
STARTCHAR Ibreve
ENCODING 300
SWIDTH 287 0
DWIDTH 8 0
BBX 10 24 -1 0
BITMAP
8F200002E8
1CD5114DC1
018DFFD810
0000000000
0000000000
0000DD0000
0000DD0000
0000DD0000
0000DD0000
0000DD0000
0000DD0000
0000DD0000
0000DD0000
0000DD0000
0000DD0000
0000DD0000
0000DD0000
0000DD0000
0000DD0000
0000DD0000
0000DD0000
0000DD0000
0000DD0000
0000DD0000
ENDCHAR
STARTCHAR ibreve
ENCODING 301
SWIDTH 287 0
DWIDTH 8 0
BBX 10 24 -1 0
BITMAP
7F300002E9
1CD5114DD1
017CFFD810
0000000000
0000000000
0000DD0000
0000DD0000
0000DD0000
0000DD0000
0000DD0000
0000DD0000
0000DD0000
0000DD0000
0000DD0000
0000DD0000
0000DD0000
0000DD0000
0000DD0000
0000DD0000
0000DD0000
0000DD0000
0000DD0000
0000DD0000
0000DD0000
ENDCHAR
STARTCHAR Iogonek
ENCODING 302
SWIDTH 287 0
DWIDTH 8 0
BBX 7 24 0 -5
BITMAP
000DD000
000DD000
000DD000
000DD000
000DD000
000DD000
000DD000
000DD000
000DD000
000DD000
000DD000
000DD000
000DD000
000DD000
000DD000
000DD000
000DD000
000DD000
000DD000
02CB1000
0DC00000
4F500000
3F911580
06DEE920
ENDCHAR
STARTCHAR iogonek
ENCODING 303
SWIDTH 287 0
DWIDTH 8 0
BBX 7 24 0 -5
BITMAP
000DD000
000DD000
000DD000
000DD000
000DD000
000DD000
000DD000
000DD000
000DD000
000DD000
000DD000
000DD000
000DD000
000DD000
000DD000
000DD000
000DD000
000DD000
000DD000
02CB1000
0DC00000
4F500000
3F911580
06DEE920
ENDCHAR
STARTCHAR Idotaccent
ENCODING 304
SWIDTH 287 0
DWIDTH 8 0
BBX 4 23 2 0
BITMAP
1FF1
1FF1
0000
0000
0DD0
0DD0
0DD0
0DD0
0DD0
0DD0
0DD0
0DD0
0DD0
0DD0
0DD0
0DD0
0DD0
0DD0
0DD0
0DD0
0DD0
0DD0
0DD0
ENDCHAR
STARTCHAR dotlessi
ENCODING 305
SWIDTH 287 0
DWIDTH 8 0
BBX 2 19 3 0
BITMAP
DD
DD
DD
DD
DD
DD
DD
DD
DD
DD
DD
DD
DD
DD
DD
DD
DD
DD
DD
ENDCHAR
STARTCHAR IJ
ENCODING 306
SWIDTH 877 0
DWIDTH 25 0
BBX 19 19 3 0
BITMAP
DD000000000000003F80
DD000000000000003F80
DD000000000000003F80
DD000000000000003F80
DD000000000000003F80
DD000000000000003F80
DD000000000000003F80
DD000000000000003F80
DD000000000000003F80
DD000000000000003F80
DD000000000000003F80
DD000000000000003F80
DD000000000000003F80
DD000000000000005F70
DD00000000000000AF40
DD00000000000006FE00
DD000C85310014AFF500
DD000EFFFFFFFFFE5000
DD000269CEFFEB710000
ENDCHAR
STARTCHAR ij
ENCODING 307
SWIDTH 877 0
DWIDTH 25 0
BBX 19 19 3 0
BITMAP
DD000000000000003F80
DD000000000000003F80
DD000000000000003F80
DD000000000000003F80
DD000000000000003F80
DD000000000000003F80
DD000000000000003F80
DD000000000000003F80
DD000000000000003F80
DD000000000000003F80
DD000000000000003F80
DD000000000000003F80
DD000000000000003F80
DD000000000000005F70
DD00000000000000AF40
DD00000000000006FE00
DD000C85310014AFF500
DD000EFFFFFFFFFE5000
DD000269CEFFEB710000
ENDCHAR
STARTCHAR Jcircumflex
ENCODING 308
SWIDTH 590 0
DWIDTH 17 0
BBX 18 24 0 0
BITMAP
000000000005D81000
0000000003CFEFD500
000000029FC503AFC3
00000006B400000299
000000000000000000
000000000004F70000
000000000004F70000
000000000004F70000
000000000004F70000
000000000004F70000
000000000004F70000
000000000004F70000
000000000004F70000
000000000004F70000
000000000004F70000
000000000004F70000
000000000004F70000
000000000004F70000
000000000006F60000
00000000000BF40000
00000000007FD00000
D85310015BFF400000
FFFFFFFFFFE5000000
26ACEFFDB610000000
ENDCHAR
STARTCHAR jcircumflex
ENCODING 309
SWIDTH 590 0
DWIDTH 17 0
BBX 18 24 0 0
BITMAP
000000000005D81000
0000000003CFEFD500
000000029FC503AFC3
00000006B400000299
000000000000000000
000000000004F70000
000000000004F70000
000000000004F70000
000000000004F70000
000000000004F70000
000000000004F70000
000000000004F70000
000000000004F70000
000000000004F70000
000000000004F70000
000000000004F70000
000000000004F70000
000000000004F70000
000000000006F60000
00000000000BF40000
00000000007FD00000
D85310015BFF400000
FFFFFFFFFFE5000000
26ACEFFDB610000000
ENDCHAR
STARTCHAR Kcommaaccent
ENCODING 310
SWIDTH 806 0
DWIDTH 23 0
BBX 19 25 3 -6
BITMAP
DD0000000000002BF700
DD000000000007FC3000
DD0000000003CF700000
DD000000018FC3000000
DD0000004DF700000000
DD00001AFC2000000000
DD0006EE700000000000
DD02BFC2000000000000
DE7EE700000000000000
DEBFD300000000000000
DD06EF80000000000000
DD002BFC300000000000
DD00007EF70000000000
DD000002CFC300000000
DD00000007FF70000000
DD000000003CFC200000
DD00000000008FE60000
DD000000000003CFB200
DD00000000000008FE60
00000000000000000000
00000000000000000000
00000008F50000000000
0000000AF10000000000
0000000CC00000000000
0000000E800000000000
ENDCHAR
STARTCHAR kcommaaccent
ENCODING 311
SWIDTH 867 0
DWIDTH 24 0
BBX 20 25 3 -6
BITMAP
DD000000000000007F40
DD00000000000000BF10
DD00000000000003FB00
DD0000000000001CF200
DD000000000001BF7000
DD00000000003CF80000
DD000000003AFE600000
DD0001359DFE91000000
DFFFFFFFFC6100000000
DFFFFFFFFFE930000000
DD00012369DFFC300000
DD0000000005CFF80000
DD000000000004DFA000
DD0000000000001CF800
DD00000000000002DF30
DD000000000000005FA0
DD000000000000000DF1
DD0000000000000007F5
DD0000000000000005F7
00000000000000000000
00000000000000000000
00000000AF3000000000
00000000CE0000000000
00000000EA0000000000
00000001F60000000000
ENDCHAR
STARTCHAR kgreenlandic
ENCODING 312
SWIDTH 867 0
DWIDTH 24 0
BBX 20 19 3 0
BITMAP
DD000000000000007F40
DD00000000000000BF10
DD00000000000003FB00
DD0000000000001CF200
DD000000000001BF7000
DD00000000003CF80000
DD000000003AFE600000
DD0001359DFE91000000
DFFFFFFFFC6100000000
DFFFFFFFFFE930000000
DD00012369DFFC300000
DD0000000005CFF80000
DD000000000004DFA000
DD0000000000001CF800
DD00000000000002DF30
DD000000000000005FA0
DD000000000000000DF1
DD0000000000000007F5
DD0000000000000005F7
ENDCHAR
STARTCHAR Lacute
ENCODING 313
SWIDTH 701 0
DWIDTH 20 0
BBX 17 24 2 0
BITMAP
00002A600000000000
002AFE800000000000
2AFD71000000000000
6B5000000000000000
000000000000000000
0DD000000000000000
0DD000000000000000
0DD000000000000000
0DD000000000000000
0DD000000000000000
0DD000000000000000
0DD000000000000000
0DD000000000000000
0DD000000000000000
0DD000000000000000
0DD000000000000000
0DD000000000000000
0DD000000000000000
0DD000000000000000
0DD000000000000000
0DD000000000000000
0DD000000000000000
0DFFFFFFFFFFFFFF90
0DFFFFFFFFFFFFFF90
ENDCHAR
STARTCHAR lacute
ENCODING 314
SWIDTH 709 0
DWIDTH 20 0
BBX 18 24 2 0
BITMAP
00002A600000000000
002AFE800000000000
2AFD71000000000000
6B5000000000000000
000000000000000000
0DD000000000000000
0DD000000000000000
0DD000000000000000
0DD000000000000000
0DD000000000000000
0DD000000000000000
0DD000000000000000
0DD000000000000000
0DD000000000000000
0DD000000000000000
0DD000000000000000
0DD000000000000000
0DD000000000000000
0CE000000000000000
0BF200000000000000
07FA00000000000000
02EFC6310000000000
004EFFFFFFFFFFFFF9
00017BDEFFFFFFFFF9
ENDCHAR
STARTCHAR Lcommaaccent
ENCODING 315
SWIDTH 701 0
DWIDTH 20 0
BBX 16 25 3 -6
BITMAP
DD00000000000000
DD00000000000000
DD00000000000000
DD00000000000000
DD00000000000000
DD00000000000000
DD00000000000000
DD00000000000000
DD00000000000000
DD00000000000000
DD00000000000000
DD00000000000000
DD00000000000000
DD00000000000000
DD00000000000000
DD00000000000000
DD00000000000000
DFFFFFFFFFFFFFF9
DFFFFFFFFFFFFFF9
0000000000000000
0000000000000000
0000000CF1000000
0000000EC0000000
0000001F80000000
0000003F40000000
ENDCHAR
STARTCHAR lcommaaccent
ENCODING 316
SWIDTH 709 0
DWIDTH 20 0
BBX 17 25 3 -6
BITMAP
DD0000000000000000
DD0000000000000000
DD0000000000000000
DD0000000000000000
DD0000000000000000
DD0000000000000000
DD0000000000000000
DD0000000000000000
DD0000000000000000
DD0000000000000000
DD0000000000000000
DD0000000000000000
DD0000000000000000
CE0000000000000000
BF2000000000000000
7FA000000000000000
2EFC63100000000000
04EFFFFFFFFFFFFF90
0017BDEFFFFFFFFF90
000000000000000000
000000000000000000
00000003FA00000000
00000005F600000000
00000007F200000000
00000009C000000000
ENDCHAR
STARTCHAR Lcaron
ENCODING 317
SWIDTH 701 0
DWIDTH 20 0
BBX 16 19 3 0
BITMAP
DD00000002FC0000
DD00000004F70000
DD00000007F30000
DD0000000AD00000
DD0000000D900000
DD00000000000000
DD00000000000000
DD00000000000000
DD00000000000000
DD00000000000000
DD00000000000000
DD00000000000000
DD00000000000000
DD00000000000000
DD00000000000000
DD00000000000000
DD00000000000000
DFFFFFFFFFFFFFF9
DFFFFFFFFFFFFFF9
ENDCHAR
STARTCHAR lcaron
ENCODING 318
SWIDTH 709 0
DWIDTH 20 0
BBX 17 19 3 0
BITMAP
DD00000001FC000000
DD00000004F8000000
DD00000007F3000000
DD0000000AE0000000
DD0000000C90000000
DD0000000000000000
DD0000000000000000
DD0000000000000000
DD0000000000000000
DD0000000000000000
DD0000000000000000
DD0000000000000000
DD0000000000000000
CE0000000000000000
BF2000000000000000
7FA000000000000000
2EFC63100000000000
04EFFFFFFFFFFFFF90
0017BDEFFFFFFFFF90
ENDCHAR
STARTCHAR Ldot
ENCODING 319
SWIDTH 701 0
DWIDTH 20 0
BBX 16 19 3 0
BITMAP
DD00000000000000
DD00000000000000
DD00000000000000
DD00000000000000
DD00000000000000
DD00000000000000
DD00000000000000
DD00000000000000
DD00000006FF0000
DD00000006FF0000
DD00000006FF0000
DD00000000000000
DD00000000000000
DD00000000000000
DD00000000000000
DD00000000000000
DD00000000000000
DFFFFFFFFFFFFFF9
DFFFFFFFFFFFFFF9
ENDCHAR
STARTCHAR ldotaccent
ENCODING 320
SWIDTH 709 0
DWIDTH 20 0
BBX 17 19 3 0
BITMAP
DD0000000000000000
DD0000000000000000
DD0000000000000000
DD0000000000000000
DD0000000000000000
DD0000000000000000
DD0000000000000000
DD0000000000000000
DD00000002FF400000
DD00000002FF400000
DD00000002FF400000
DD0000000000000000
DD0000000000000000
CE0000000000000000
BF2000000000000000
7FA000000000000000
2EFC63100000000000
04EFFFFFFFFFFFFF90
0017BDEFFFFFFFFF90
ENDCHAR
STARTCHAR Lslash
ENCODING 321
SWIDTH 701 0
DWIDTH 20 0
BBX 19 19 0 0
BITMAP
000DD000000000000000
000DD000000000000000
000DD000000000000000
000DD000000000000000
000DD000000000000000
000DD000000000000000
000DD0004B3000000000
000DD05CFC3000000000
000DEDFB400000000000
017EFB30000000000000
8EFFD000000000000000
992DD000000000000000
000DD000000000000000
000DD000000000000000
000DD000000000000000
000DD000000000000000
000DD000000000000000
000DFFFFFFFFFFFFFF90
000DFFFFFFFFFFFFFF90
ENDCHAR
STARTCHAR lslash
ENCODING 322
SWIDTH 709 0
DWIDTH 20 0
BBX 20 19 0 0
BITMAP
000DD000000000000000
000DD000000000000000
000DD000000000000000
000DD000000000000000
000DD000000000000000
000DD000000000000000
000DD0004B3000000000
000DD05CFC3000000000
000DEDFB400000000000
017EFB30000000000000
8EFFD000000000000000
992DD000000000000000
000DD000000000000000
000CE000000000000000
000BF200000000000000
0007F900000000000000
0002EFC6310000000000
00004EFFFFFFFFFFFFF9
0000017BDEFFFFFFFFF9
ENDCHAR
STARTCHAR Nacute
ENCODING 323
SWIDTH 936 0
DWIDTH 26 0
BBX 21 24 3 0
BITMAP
0000000000002A70000000
00000000002AFF80000000
000000002AFD7100000000
000000005B500000000000
0000000000000000000000
DF80000000000000009F10
DFF8000000000000009F10
DECF700000000000009F10
DD1CF70000000000009F10
DD01DF6000000000009F10
DD002DF600000000009F10
DD0002DF50000000009F10
DD00002DF5000000009F10
DD000002DF500000009F10
DD0000002EF40000009F10
DD00000003EF4000009F10
DD000000003EE400009F10
DD0000000003EE30009F10
DD00000000003EE3009F10
DD000000000004EE309F10
DD0000000000004EE39F10
DD00000000000004FECF10
DD000000000000004FFF10
DD0000000000000005FF10
ENDCHAR
STARTCHAR nacute
ENCODING 324
SWIDTH 933 0
DWIDTH 26 0
BBX 21 24 3 0
BITMAP
0000000000004C30000000
00000000004CFE50000000
000000004CFC5000000000
0000000099300000000000
0000000000000000000000
DD0000016ADEFED9400000
DD0004BFFFFFFFFFFB1000
DD04CFFE95210136DFC000
DEAFFB40000000001BF700
DFFC40000000000002FC00
DF7000000000000000CF00
DD0000000000000000BF10
DD0000000000000000AF10
DD0000000000000000AF10
DD0000000000000000AF10
DD0000000000000000AF10
DD0000000000000000AF10
DD0000000000000000AF10
DD0000000000000000AF10
DD0000000000000000AF10
DD0000000000000000AF10
DD0000000000000000AF10
DD0000000000000000AF10
DD0000000000000000AF10
ENDCHAR
STARTCHAR Ncommaaccent
ENCODING 325
SWIDTH 936 0
DWIDTH 26 0
BBX 21 25 3 -6
BITMAP
DF80000000000000009F10
DFF8000000000000009F10
DECF700000000000009F10
DD1CF70000000000009F10
DD01DF6000000000009F10
DD002DF600000000009F10
DD0002DF50000000009F10
DD00002DF5000000009F10
DD000002DF500000009F10
DD0000002EF40000009F10
DD00000003EF4000009F10
DD000000003EE400009F10
DD0000000003EE30009F10
DD00000000003EE3009F10
DD000000000004EE309F10
DD0000000000004EE39F10
DD00000000000004FECF10
DD000000000000004FFF10
DD0000000000000005FF10
0000000000000000000000
0000000000000000000000
000000000AF30000000000
000000000CE00000000000
000000000EA00000000000
000000001F500000000000
ENDCHAR
STARTCHAR ncommaaccent
ENCODING 326
SWIDTH 933 0
DWIDTH 26 0
BBX 21 25 3 -6
BITMAP
DD0000016ADEFED9400000
DD0004BFFFFFFFFFFB1000
DD04CFFE95210136DFC000
DEAFFB40000000001BF700
DFFC40000000000002FC00
DF7000000000000000CF00
DD0000000000000000BF10
DD0000000000000000AF10
DD0000000000000000AF10
DD0000000000000000AF10
DD0000000000000000AF10
DD0000000000000000AF10
DD0000000000000000AF10
DD0000000000000000AF10
DD0000000000000000AF10
DD0000000000000000AF10
DD0000000000000000AF10
DD0000000000000000AF10
DD0000000000000000AF10
0000000000000000000000
0000000000000000000000
000000000BF20000000000
000000000DD00000000000
000000000F900000000000
000000002F400000000000
ENDCHAR
STARTCHAR Ncaron
ENCODING 327
SWIDTH 936 0
DWIDTH 26 0
BBX 21 24 3 0
BITMAP
00001C71000006C2000000
000006EE8117DE70000000
00000018FFEF9100000000
000000002AB30000000000
0000000000000000000000
DF80000000000000009F10
DFF8000000000000009F10
DECF700000000000009F10
DD1CF70000000000009F10
DD01DF6000000000009F10
DD002DF600000000009F10
DD0002DF50000000009F10
DD00002DF5000000009F10
DD000002DF500000009F10
DD0000002EF40000009F10
DD00000003EF4000009F10
DD000000003EE400009F10
DD0000000003EE30009F10
DD00000000003EE3009F10
DD000000000004EE309F10
DD0000000000004EE39F10
DD00000000000004FECF10
DD000000000000004FFF10
DD0000000000000005FF10
ENDCHAR
STARTCHAR ncaron
ENCODING 328
SWIDTH 933 0
DWIDTH 26 0
BBX 21 24 3 0
BITMAP
00003C50000018B0000000
000018FD6029ED50000000
0000002AFEFE7000000000
000000004C910000000000
0000000000000000000000
DD0000016ADEFED9400000
DD0004BFFFFFFFFFFB1000
DD04CFFE95210136DFC000
DEAFFB40000000001BF700
DFFC40000000000002FC00
DF7000000000000000CF00
DD0000000000000000BF10
DD0000000000000000AF10
DD0000000000000000AF10
DD0000000000000000AF10
DD0000000000000000AF10
DD0000000000000000AF10
DD0000000000000000AF10
DD0000000000000000AF10
DD0000000000000000AF10
DD0000000000000000AF10
DD0000000000000000AF10
DD0000000000000000AF10
DD0000000000000000AF10
ENDCHAR
STARTCHAR napostrophe
ENCODING 329
SWIDTH 1025 0
DWIDTH 29 0
BBX 26 19 0 0
BITMAP
2FB004F70000038BDFFEB72000
5F7004F70017DFFFFFFFFFF700
8F2004F717EFFC74100149FF70
BD0004FBDFE820000000003FE1
E80004FFF910000000000008F6
000004FD3000000000000003F8
000004F70000000000000002FA
000004F70000000000000001FA
000004F70000000000000001FA
000004F70000000000000001FA
000004F70000000000000001FA
000004F70000000000000001FA
000004F70000000000000001FA
000004F70000000000000001FA
000004F70000000000000001FA
000004F70000000000000001FA
000004F70000000000000001FA
000004F70000000000000001FA
000004F70000000000000001FA
ENDCHAR
STARTCHAR Eng
ENCODING 330
SWIDTH 936 0
DWIDTH 26 0
BBX 21 19 3 0
BITMAP
DFA100000000000000AF10
DFFD20000000000000AF10
DD5EE5000000000000AF10
DD02DF900000000000AF10
DD001AFC2000000000AF10
DD00006FE500000000AF10
DD000003DF80000000AF10
DD0000001BFB100000AF10
DD000000007FE40000AF10
DD0000000004EF7000AF10
DD00000000002BFB10AF10
DD0000000000008FD3AF10
DD00000000000005EFDF10
DD000000000000002CFF00
DD0000000000000001ED00
DD0000000000000008F800
DD000004B7310014AFE100
DD000005FFFFFFFFFD3000
DD00000048BEFFEB710000
ENDCHAR
STARTCHAR eng
ENCODING 331
SWIDTH 933 0
DWIDTH 26 0
BBX 21 19 3 0
BITMAP
DD0000016ADEFED9400000
DD0004BFFFFFFFFFFB1000
DD04CFFE95210136CFC100
DEAFFB40000000000BF700
DFFC40000000000002FC00
DF7000000000000000CF00
DD0000000000000000AF10
DD0000000000000000AF10
DD0000000000000000AF10
DD0000000000000000AF10
DD0000000000000000AF10
DD0000000000000000AF10
DD0000000000000000AF10
DD0000000000000000BF00
DD0000000000000001ED00
DD0000000000000008F900
DD000000C8421014AFE200
DD000000FFFFFFFFFE4000
DD00000037ADEFEC710000
ENDCHAR
STARTCHAR Omacron
ENCODING 332
SWIDTH 983 0
DWIDTH 28 0
BBX 25 23 1 0
BITMAP
000000000EFFFFFF8000000000
000000000EFFFFFF8000000000
00000000000000000000000000
00000000000000000000000000
000000048BCDFEEC9610000000
000006DFFFFFFFFFFFFB200000
0002CFFC7521011369EFF70000
002DFC30000000000007EF8000
00CF90000000000000002DF400
05FC000000000000000003FD00
0BF3000000000000000000AF30
0ED00000000000000000005F70
1FB00000000000000000002F90
2FA00000000000000000001FA0
1FB00000000000000000002F90
0ED00000000000000000005F70
0AF3000000000000000000AF30
05FB000000000000000003FD00
00BF90000000000000002DF400
002DFB30000000000006EF8000
0002CFFC7421001359EFF70000
000006DFFFFFFFFFFFFB300000
000000038BDEFEEC9610000000
ENDCHAR
STARTCHAR omacron
ENCODING 333
SWIDTH 983 0
DWIDTH 28 0
BBX 25 23 1 0
BITMAP
000000000EFFFFFF8000000000
000000000EFFFFFF8000000000
00000000000000000000000000
00000000000000000000000000
000000048BCDFEEC9610000000
000006DFFFFFFFFFFFFB200000
0002CFFC7521011369EFF70000
002DFC30000000000007EF8000
00CF90000000000000002DF400
05FC000000000000000003FD00
0BF3000000000000000000AF30
0ED00000000000000000005F70
1FB00000000000000000002F90
2FA00000000000000000001FA0
1FB00000000000000000002F90
0ED00000000000000000005F70
0AF3000000000000000000AF30
05FB000000000000000003FD00
00BF90000000000000002DF400
002DFB30000000000006EF8000
0002CFFC7421001359EFF70000
000006DFFFFFFFFFFFFB300000
000000038BDEFEEC9610000000
ENDCHAR
STARTCHAR Obreve
ENCODING 334
SWIDTH 983 0
DWIDTH 28 0
BBX 25 24 1 0
BITMAP
00000000BD100005F500000000
000000002EB3026EA000000000
00000000029DFEC60000000000
00000000000000000000000000
00000000000000000000000000
000000048BCDFEEC9610000000
000006DFFFFFFFFFFFFB200000
0002CFFC7521011369EFF70000
002DFC30000000000007EF8000
00CF90000000000000002DF400
05FC000000000000000003FD00
0BF3000000000000000000AF30
0ED00000000000000000005F70
1FB00000000000000000002F90
2FA00000000000000000001FA0
1FB00000000000000000002F90
0ED00000000000000000005F70
0AF3000000000000000000AF30
05FB000000000000000003FD00
00BF90000000000000002DF400
002DFB30000000000006EF8000
0002CFFC7421001359EFF70000
000006DFFFFFFFFFFFFB300000
000000038BDEFEEC9610000000
ENDCHAR
STARTCHAR obreve
ENCODING 335
SWIDTH 983 0
DWIDTH 28 0
BBX 25 24 1 0
BITMAP
00000000BD100005F500000000
000000002EB3026EA000000000
00000000029DFEC60000000000
00000000000000000000000000
00000000000000000000000000
000000048BCDFEEC9610000000
000006DFFFFFFFFFFFFB200000
0002CFFC7521011369EFF70000
002DFC30000000000007EF8000
00CF90000000000000002DF400
05FC000000000000000003FD00
0BF3000000000000000000AF30
0ED00000000000000000005F70
1FB00000000000000000002F90
2FA00000000000000000001FA0
1FB00000000000000000002F90
0ED00000000000000000005F70
0AF3000000000000000000AF30
05FB000000000000000003FD00
00BF90000000000000002DF400
002DFB30000000000006EF8000
0002CFFC7421001359EFF70000
000006DFFFFFFFFFFFFB300000
000000038BDEFEEC9610000000
ENDCHAR
STARTCHAR Ohungarumlaut
ENCODING 336
SWIDTH 983 0
DWIDTH 28 0
BBX 25 24 1 0
BITMAP
000000000001B3002B10000000
00000000003DF605EE40000000
0000000006FC308FB200000000
000000000A7000B50000000000
00000000000000000000000000
000000048BCDFEEC9610000000
000006DFFFFFFFFFFFFB200000
0002CFFC7521011369EFF70000
002DFC30000000000007EF8000
00CF90000000000000002DF400
05FC000000000000000003FD00
0BF3000000000000000000AF30
0ED00000000000000000005F70
1FB00000000000000000002F90
2FA00000000000000000001FA0
1FB00000000000000000002F90
0ED00000000000000000005F70
0AF3000000000000000000AF30
05FB000000000000000003FD00
00BF90000000000000002DF400
002DFB30000000000006EF8000
0002CFFC7421001359EFF70000
000006DFFFFFFFFFFFFB300000
000000038BDEFEEC9610000000
ENDCHAR
STARTCHAR ohungarumlaut
ENCODING 337
SWIDTH 983 0
DWIDTH 28 0
BBX 25 24 1 0
BITMAP
000000000001B3002B10000000
00000000003DF605EE40000000
0000000006FC308FB200000000
000000000A7000B50000000000
00000000000000000000000000
000000048BCDFEEC9610000000
000006DFFFFFFFFFFFFB200000
0002CFFC7521011369EFF70000
002DFC30000000000007EF8000
00CF90000000000000002DF400
05FC000000000000000003FD00
0BF3000000000000000000AF30
0ED00000000000000000005F70
1FB00000000000000000002F90
2FA00000000000000000001FA0
1FB00000000000000000002F90
0ED00000000000000000005F70
0AF3000000000000000000AF30
05FB000000000000000003FD00
00BF90000000000000002DF400
002DFB30000000000006EF8000
0002CFFC7421001359EFF70000
000006DFFFFFFFFFFFFB300000
000000038BDEFEEC9610000000
ENDCHAR
STARTCHAR OE
ENCODING 338
SWIDTH 1338 0
DWIDTH 37 0
BBX 35 19 1 0
BITMAP
000000038BCEFFFFFFFFFFFFFFFFFFFFFF30
000006DFFFFFFFFFFFFFFFFFFFFFFFFFFF30
0001BFFC7421011235BF6000000000000000
001DFC4000000000007F6000000000000000
00BFA00000000000007F6000000000000000
04FC000000000000007F6000000000000000
0AF4000000000000007F6000000000000000
0ED0000000000000007F6000000000000000
1FB0000000000000007FFFFFFFFFFFFFF700
2F90000000000000007FFFFFFFFFFFFFF700
1FB0000000000000007F6000000000000000
0ED0000000000000007F6000000000000000
0AF3000000000000007F6000000000000000
05FB000000000000007F6000000000000000
00BF900000000000007F6000000000000000
002DFB3000000000007F6000000000000000
0002DFFB7421001235BF6000000000000000
000007EFFFFFFFFFFFFFFFFFFFFFFFFFFF60
000000048BDEFFFFFFFFFFFFFFFFFFFFFF60
ENDCHAR
STARTCHAR oe
ENCODING 339
SWIDTH 1688 0
DWIDTH 47 0
BBX 45 19 1 0
BITMAP
000000048BCEFFECA62000000000049CEFFDC950000000
000006DFFFFFFFFFFFFB30000005DFFFFFFFFFFD600000
0002CFFC7521011369EFF80001AFFB63100136AFFB1000
002DFC30000000000007EF900BFB200000000002AFB000
00CF90000000000000002DF58F8000000000000008F600
05FC000000000000000003FEFB0000000000000000BE00
0BF3000000000000000000AFF200000000000000004F40
0ED00000000000000000005FC000000000000000001F80
1FB00000000000000000002FFFFFFFFFFFFFFFFFFFFF90
2FA00000000000000000001FFFFFFFFFFFFFFFFFFFFFB0
1FB00000000000000000002FC000000000000000000000
0ED00000000000000000005FF100000000000000000000
0AF3000000000000000000AFF600000000000000000000
05FB000000000000000003FEFE10000000000000000000
00BF90000000000000002DF59FC1000000000000000000
002DFB30000000000006EF801CFE600000000000000000
0002CFFC7421001359EFF80001AFFE963110012469C300
000006DFFFFFFFFFFFFB30000005CFFFFFFFFFFFFFF300
000000038BDEFFECA62000000000037ADEFFFEDB862000
ENDCHAR
STARTCHAR Racute
ENCODING 340
SWIDTH 833 0
DWIDTH 23 0
BBX 20 24 3 0
BITMAP
00000000005C10000000
000000005DFD30000000
0000005DFB4000000000
000000B8200000000000
00000000000000000000
DFFFFFFFFFEEB8300000
DFFFFFFFFFFFFFFA1000
DD000000001248DFB000
DD0000000000001CF400
DD00000000000005F700
DD00000000000003F800
DD00000000000005F700
DD0000000000000CF400
DD000000001247DFC000
DFFFFFFFFFFFFFFC1000
DFFFFFFFFFFFF9400000
DD0000000007F7000000
DD0000000000BF400000
DD00000000001DE20000
DD000000000003FC0000
DD0000000000007F9000
DD0000000000000BF600
DD00000000000001DE30
DD000000000000003FD1
ENDCHAR
STARTCHAR racute
ENCODING 341
SWIDTH 609 0
DWIDTH 17 0
BBX 15 24 3 0
BITMAP
0000000018A00000
00000018EFB10000
000018EE92000000
00002C7100000000
0000000000000000
DD0000049DEFEC10
DD0006EFFFFFFF10
DD03CFE952101400
DD5EF81000000000
DFFD300000000000
DFC1000000000000
DE10000000000000
DD00000000000000
DD00000000000000
DD00000000000000
DD00000000000000
DD00000000000000
DD00000000000000
DD00000000000000
DD00000000000000
DD00000000000000
DD00000000000000
DD00000000000000
DD00000000000000
ENDCHAR
STARTCHAR Rcommaaccent
ENCODING 342
SWIDTH 833 0
DWIDTH 23 0
BBX 20 25 3 -6
BITMAP
DFFFFFFFFFEEB8300000
DFFFFFFFFFFFFFFA1000
DD000000001248DFB000
DD0000000000001CF400
DD00000000000005F700
DD00000000000003F800
DD00000000000005F700
DD0000000000000CF400
DD000000001247DFC000
DFFFFFFFFFFFFFFC1000
DFFFFFFFFFFFF9400000
DD0000000007F7000000
DD0000000000BF400000
DD00000000001DE20000
DD000000000003FC0000
DD0000000000007F9000
DD0000000000000BF600
DD00000000000001DE30
DD000000000000003FD1
00000000000000000000
00000000000000000000
00000002FB0000000000
00000004F70000000000
00000006F30000000000
00000008D00000000000
ENDCHAR
STARTCHAR rcommaaccent
ENCODING 343
SWIDTH 609 0
DWIDTH 17 0
BBX 16 25 2 -6
BITMAP
0DD0000049DEFEC1
0DD0006EFFFFFFF1
0DD03CFE95210140
0DD5EF8100000000
0DFFD30000000000
0DFC100000000000
0DE1000000000000
0DD0000000000000
0DD0000000000000
0DD0000000000000
0DD0000000000000
0DD0000000000000
0DD0000000000000
0DD0000000000000
0DD0000000000000
0DD0000000000000
0DD0000000000000
0DD0000000000000
0DD0000000000000
0000000000000000
0000000000000000
0BF2000000000000
0DD0000000000000
0F90000000000000
2F50000000000000
ENDCHAR
STARTCHAR Rcaron
ENCODING 344
SWIDTH 833 0
DWIDTH 23 0
BBX 20 24 3 0
BITMAP
006B40000029A0000000
002AFC503AFC40000000
00003CFEFE6000000000
0000005D810000000000
00000000000000000000
DFFFFFFFFFEEB8300000
DFFFFFFFFFFFFFFA1000
DD000000001248DFB000
DD0000000000001CF400
DD00000000000005F700
DD00000000000003F800
DD00000000000005F700
DD0000000000000CF400
DD000000001247DFC000
DFFFFFFFFFFFFFFC1000
DFFFFFFFFFFFF9400000
DD0000000007F7000000
DD0000000000BF400000
DD00000000001DE20000
DD000000000003FC0000
DD0000000000007F9000
DD0000000000000BF600
DD00000000000001DE30
DD000000000000003FD1
ENDCHAR
STARTCHAR rcaron
ENCODING 345
SWIDTH 609 0
DWIDTH 17 0
BBX 15 24 3 0
BITMAP
0A92000004B60000
04CFA305CFA20000
0006DFEFC3000000
000018D500000000
0000000000000000
DD0000049DEFEC10
DD0006EFFFFFFF10
DD03CFE952101400
DD5EF81000000000
DFFD300000000000
DFC1000000000000
DE10000000000000
DD00000000000000
DD00000000000000
DD00000000000000
DD00000000000000
DD00000000000000
DD00000000000000
DD00000000000000
DD00000000000000
DD00000000000000
DD00000000000000
DD00000000000000
DD00000000000000
ENDCHAR
STARTCHAR Sacute
ENCODING 346
SWIDTH 787 0
DWIDTH 22 0
BBX 18 24 2 0
BITMAP
000000000004B30000
0000000004BFE50000
00000004BFC6000000
00000008A300000000
000000000000000000
00027ADEFFEDB86300
02AFFFFFFFFFFFFF50
1DFD74210012358C50
8F9000000000000000
BF1000000000000000
AF4000000000000000
4FE610000000000000
06FFEA620000000000
0029EFFFEA62000000
0000159DFFFFD72000
00000000269DFFF910
00000000000027DFD1
0000000000000009F9
0000000000000000ED
0000000000000001FD
000000000000000AF9
9B753211011258EFD1
9FFFFFFFFFFFFFF910
1369CDEFFFECA62000
ENDCHAR
STARTCHAR sacute
ENCODING 347
SWIDTH 787 0
DWIDTH 22 0
BBX 18 24 2 0
BITMAP
000000000004B30000
0000000004BFE50000
00000004BFC6000000
00000008A300000000
000000000000000000
00027ADEFFEDB86300
02AFFFFFFFFFFFFF50
1DFD74210012358C50
8F9000000000000000
BF1000000000000000
AF4000000000000000
4FE610000000000000
06FFEA620000000000
0029EFFFEA62000000
0000159DFFFFD72000
00000000269DFFF910
00000000000027DFD1
0000000000000009F9
0000000000000000ED
0000000000000001FD
000000000000000AF9
9B753211011258EFD1
9FFFFFFFFFFFFFF910
1369CDEFFFECA62000
ENDCHAR
STARTCHAR Scircumflex
ENCODING 348
SWIDTH 787 0
DWIDTH 22 0
BBX 18 24 2 0
BITMAP
00000003C920000000
000002AFEFE7000000
00018ED7129ED50000
0003C50000017C0000
000000000000000000
00027ADEFFEDB86300
02AFFFFFFFFFFFFF50
1DFD74210012358C50
8F9000000000000000
BF1000000000000000
AF4000000000000000
4FE610000000000000
06FFEA620000000000
0029EFFFEA62000000
0000159DFFFFD72000
00000000269DFFF910
00000000000027DFD1
0000000000000009F9
0000000000000000ED
0000000000000001FD
000000000000000AF9
9B753211011258EFD1
9FFFFFFFFFFFFFF910
1369CDEFFFECA62000
ENDCHAR
STARTCHAR scircumflex
ENCODING 349
SWIDTH 787 0
DWIDTH 22 0
BBX 18 24 2 0
BITMAP
00000003C920000000
000002AFEFE7000000
00018ED7129ED50000
0003C50000017C0000
000000000000000000
00027ADEFFEDB86300
02AFFFFFFFFFFFFF50
1DFD74210012358C50
8F9000000000000000
BF1000000000000000
AF4000000000000000
4FE610000000000000
06FFEA620000000000
0029EFFFEA62000000
0000159DFFFFD72000
00000000269DFFF910
00000000000027DFD1
0000000000000009F9
0000000000000000ED
0000000000000001FD
000000000000000AF9
9B753211011258EFD1
9FFFFFFFFFFFFFF910
1369CDEFFFECA62000
ENDCHAR
STARTCHAR Scedilla
ENCODING 350
SWIDTH 787 0
DWIDTH 22 0
BBX 18 24 2 -5
BITMAP
00027ADEFFEDB86300
02AFFFFFFFFFFFFF50
1DFD84210012358C50
8FA000000000000000
BF2000000000000000
AF3000000000000000
4FD300000000000000
06FFC6200000000000
0029EFFDA620000000
000015ADFFFD940000
00000000269DFFD600
00000000000027DFA0
0000000000000009F7
0000000000000000ED
0000000000000001FD
000000000000000AF9
9B753211011258EFE2
9FFFFFFFFFFFFFFA20
1369CDEFFFEDA72000
00000000C700000000
00000003FFD6000000
00000000019F100000
000002A301AE000000
0000005CFEB4000000
ENDCHAR
STARTCHAR scedilla
ENCODING 351
SWIDTH 787 0
DWIDTH 22 0
BBX 18 24 2 -5
BITMAP
00027ADEFFEDB86300
02AFFFFFFFFFFFFF50
1DFD84210012358C50
8FA000000000000000
BF2000000000000000
AF3000000000000000
4FD300000000000000
06FFC6200000000000
0029EFFDA620000000
000015ADFFFD940000
00000000269DFFD600
00000000000027DFA0
0000000000000009F7
0000000000000000ED
0000000000000001FD
000000000000000AF9
9B753211011258EFE2
9FFFFFFFFFFFFFFA20
1369CDEFFFEDA72000
00000000C700000000
00000003FFD6000000
00000000019F100000
000002A301AE000000
0000005CFEB4000000
ENDCHAR
STARTCHAR Scaron
ENCODING 352
SWIDTH 787 0
DWIDTH 22 0
BBX 18 24 2 0
BITMAP
0003C50000017C0000
00018FD6128ED50000
000002AFEFE7100000
00000003CA20000000
000000000000000000
00027ADEFFEDB86300
02AFFFFFFFFFFFFF50
1DFD74210012358C50
8F9000000000000000
BF1000000000000000
AF4000000000000000
4FE610000000000000
06FFEA620000000000
0029EFFFEA62000000
0000159DFFFFD72000
00000000269DFFF910
00000000000027DFD1
0000000000000009F9
0000000000000000ED
0000000000000001FD
000000000000000AF9
9B753211011258EFD1
9FFFFFFFFFFFFFF910
1369CDEFFFECA62000
ENDCHAR
STARTCHAR scaron
ENCODING 353
SWIDTH 787 0
DWIDTH 22 0
BBX 18 24 2 0
BITMAP
0003C50000017C0000
00018FD6128ED50000
000002AFEFE7100000
00000003CA20000000
000000000000000000
00027ADEFFEDB86300
02AFFFFFFFFFFFFF50
1DFD74210012358C50
8F9000000000000000
BF1000000000000000
AF4000000000000000
4FE610000000000000
06FFEA620000000000
0029EFFFEA62000000
0000159DFFFFD72000
00000000269DFFF910
00000000000027DFD1
0000000000000009F9
0000000000000000ED
0000000000000001FD
000000000000000AF9
9B753211011258EFD1
9FFFFFFFFFFFFFF910
1369CDEFFFECA62000
ENDCHAR
STARTCHAR Tcommaaccent
ENCODING 354
SWIDTH 708 0
DWIDTH 20 0
BBX 20 25 0 -6
BITMAP
7FFFFFFFFFFFFFFFFFF5
7FFFFFFFFFFFFFFFFFF5
000000000EC000000000
000000000EC000000000
000000000EC000000000
000000000EC000000000
000000000EC000000000
000000000EC000000000
000000000EC000000000
000000000EC000000000
000000000EC000000000
000000000EC000000000
000000000EC000000000
000000000EC000000000
000000000EC000000000
000000000EC000000000
000000000EC000000000
000000000EC000000000
000000000EC000000000
00000000000000000000
00000000000000000000
000000000DF100000000
000000000FB000000000
000000002F7000000000
000000004F2000000000
ENDCHAR
STARTCHAR tcommaaccent
ENCODING 355
SWIDTH 708 0
DWIDTH 20 0
BBX 20 25 0 -6
BITMAP
7FFFFFFFFFFFFFFFFFF5
7FFFFFFFFFFFFFFFFFF5
000000000EC000000000
000000000EC000000000
000000000EC000000000
000000000EC000000000
000000000EC000000000
000000000EC000000000
000000000EC000000000
000000000EC000000000
000000000EC000000000
000000000EC000000000
000000000EC000000000
000000000EC000000000
000000000EC000000000
000000000EC000000000
000000000EC000000000
000000000EC000000000
000000000EC000000000
00000000000000000000
00000000000000000000
000000000DF100000000
000000000FB000000000
000000002F7000000000
000000004F2000000000
ENDCHAR
STARTCHAR Tcaron
ENCODING 356
SWIDTH 708 0
DWIDTH 20 0
BBX 20 24 0 0
BITMAP
00002C60000017C10000
000007ED7118EE600000
00000019FEFF81000000
000000003BA200000000
00000000000000000000
7FFFFFFFFFFFFFFFFFF5
7FFFFFFFFFFFFFFFFFF5
000000000EC000000000
000000000EC000000000
000000000EC000000000
000000000EC000000000
000000000EC000000000
000000000EC000000000
000000000EC000000000
000000000EC000000000
000000000EC000000000
000000000EC000000000
000000000EC000000000
000000000EC000000000
000000000EC000000000
000000000EC000000000
000000000EC000000000
000000000EC000000000
000000000EC000000000
ENDCHAR
STARTCHAR tcaron
ENCODING 357
SWIDTH 708 0
DWIDTH 20 0
BBX 20 24 0 0
BITMAP
00002C60000017C10000
000007EE7118EE600000
00000019FEEF81000000
000000003BA200000000
00000000000000000000
7FFFFFFFFFFFFFFFFFF5
7FFFFFFFFFFFFFFFFFF5
000000000EC000000000
000000000EC000000000
000000000EC000000000
000000000EC000000000
000000000EC000000000
000000000EC000000000
000000000EC000000000
000000000EC000000000
000000000EC000000000
000000000EC000000000
000000000EC000000000
000000000EC000000000
000000000EC000000000
000000000EC000000000
000000000EC000000000
000000000EC000000000
000000000EC000000000
ENDCHAR
STARTCHAR Tbar
ENCODING 358
SWIDTH 708 0
DWIDTH 20 0
BBX 20 19 0 0
BITMAP
7FFFFFFFFFFFFFFFFFF5
7FFFFFFFFFFFFFFFFFF5
000000000EC000000000
000000000EC000000000
000000000EC000000000
000000000EC000000000
000000000EC000000000
008FFFFFFFFFFFFFF500
008FFFFFFFFFFFFFF500
000000000EC000000000
000000000EC000000000
000000000EC000000000
000000000EC000000000
000000000EC000000000
000000000EC000000000
000000000EC000000000
000000000EC000000000
000000000EC000000000
000000000EC000000000
ENDCHAR
STARTCHAR tbar
ENCODING 359
SWIDTH 708 0
DWIDTH 20 0
BBX 20 19 0 0
BITMAP
7FFFFFFFFFFFFFFFFFF5
7FFFFFFFFFFFFFFFFFF5
000000000EC000000000
000000000EC000000000
000000000EC000000000
000000000EC000000000
000000000EC000000000
008FFFFFFFFFFFFFF500
008FFFFFFFFFFFFFF500
000000000EC000000000
000000000EC000000000
000000000EC000000000
000000000EC000000000
000000000EC000000000
000000000EC000000000
000000000EC000000000
000000000EC000000000
000000000EC000000000
000000000EC000000000
ENDCHAR
STARTCHAR Utilde
ENCODING 360
SWIDTH 891 0
DWIDTH 25 0
BBX 19 24 3 0
BITMAP
000003DE92001F400000
00000E718E717E100000
00003F1002AED4000000
00000000000000000000
00000000000000000000
FB000000000000000BE0
FB000000000000000BE0
FB000000000000000BE0
FB000000000000000BE0
FB000000000000000BE0
FB000000000000000BE0
FB000000000000000BE0
FB000000000000000BE0
FB000000000000000BE0
FB000000000000000BE0
FB000000000000000BE0
FB000000000000000BE0
FB000000000000000BE0
ED000000000000000ED0
BF600000000000007FA0
4FF7000000000008FF30
08FFD842101259EFF700
005DFFFFFFFFFFFD5000
000049BEEFEDB9400000
ENDCHAR
STARTCHAR utilde
ENCODING 361
SWIDTH 931 0
DWIDTH 26 0
BBX 20 24 3 0
BITMAP
0000009ED50008C00000
000006D23CC31D700000
00000B90006DFA000000
00000000000000000000
00000000000000000000
EC0000000000000000CE
EC0000000000000000CE
EC0000000000000000CE
EC0000000000000000CE
EC0000000000000000CE
EC0000000000000000CE
EC0000000000000000CE
EC0000000000000000CE
EC0000000000000000CE
EC0000000000000000CE
EC0000000000000000CE
EC0000000000000000CE
ED0000000000000000CE
DE0000000000000007FE
AF40000000000003CFFE
4FC10000000004BFFADE
0AFD73101259EFFC40CE
019FFFFFFFFFFC5000CE
00039CEFEDB7200000CE
ENDCHAR
STARTCHAR Umacron
ENCODING 362
SWIDTH 891 0
DWIDTH 25 0
BBX 19 23 3 0
BITMAP
000004FFFFFFF4000000
000004FFFFFFF4000000
00000000000000000000
00000000000000000000
FB000000000000000BE0
FB000000000000000BE0
FB000000000000000BE0
FB000000000000000BE0
FB000000000000000BE0
FB000000000000000BE0
FB000000000000000BE0
FB000000000000000BE0
FB000000000000000BE0
FB000000000000000BE0
FB000000000000000BE0
FB000000000000000BE0
FB000000000000000BE0
ED000000000000000ED0
BF600000000000007FA0
4FF7000000000008FF30
08FFD842101259EFF700
005DFFFFFFFFFFFD5000
000049BEEFEDB9400000
ENDCHAR
STARTCHAR umacron
ENCODING 363
SWIDTH 931 0
DWIDTH 26 0
BBX 20 23 3 0
BITMAP
000000BFFFFFFB000000
000000BFFFFFFB000000
00000000000000000000
00000000000000000000
EC0000000000000000CE
EC0000000000000000CE
EC0000000000000000CE
EC0000000000000000CE
EC0000000000000000CE
EC0000000000000000CE
EC0000000000000000CE
EC0000000000000000CE
EC0000000000000000CE
EC0000000000000000CE
EC0000000000000000CE
EC0000000000000000CE
ED0000000000000000CE
DE0000000000000007FE
AF40000000000003CFFE
4FC10000000004BFFADE
0AFD73101259EFFC40CE
019FFFFFFFFFFC5000CE
00039CEFEDB7200000CE
ENDCHAR
STARTCHAR Ubreve
ENCODING 364
SWIDTH 891 0
DWIDTH 25 0
BBX 19 24 3 0
BITMAP
00001E9000009E100000
000006F82029F5000000
0000004BEFEB40000000
00000000000000000000
00000000000000000000
FB000000000000000BE0
FB000000000000000BE0
FB000000000000000BE0
FB000000000000000BE0
FB000000000000000BE0
FB000000000000000BE0
FB000000000000000BE0
FB000000000000000BE0
FB000000000000000BE0
FB000000000000000BE0
FB000000000000000BE0
FB000000000000000BE0
FB000000000000000BE0
ED000000000000000ED0
BF600000000000007FA0
4FF7000000000008FF30
08FFD842101259EFF700
005DFFFFFFFFFFFD5000
000049BEEFEDB9400000
ENDCHAR
STARTCHAR ubreve
ENCODING 365
SWIDTH 931 0
DWIDTH 26 0
BBX 20 24 3 0
BITMAP
000008F200002F800000
000001CD4115DC100000
00000018DFFD81000000
00000000000000000000
00000000000000000000
EC0000000000000000CE
EC0000000000000000CE
EC0000000000000000CE
EC0000000000000000CE
EC0000000000000000CE
EC0000000000000000CE
EC0000000000000000CE
EC0000000000000000CE
EC0000000000000000CE
EC0000000000000000CE
EC0000000000000000CE
EC0000000000000000CE
ED0000000000000000CE
DE0000000000000007FE
AF40000000000003CFFE
4FC10000000004BFFADE
0AFD73101259EFFC40CE
019FFFFFFFFFFC5000CE
00039CEFEDB7200000CE
ENDCHAR
STARTCHAR Uring
ENCODING 366
SWIDTH 891 0
DWIDTH 25 0
BBX 19 25 3 0
BITMAP
00000019DFD910000000
000000CB202CC0000000
000001F50006F1000000
000000CB202CC0000000
00000019DFD910000000
00000000000000000000
FB000000000000000BE0
FB000000000000000BE0
FB000000000000000BE0
FB000000000000000BE0
FB000000000000000BE0
FB000000000000000BE0
FB000000000000000BE0
FB000000000000000BE0
FB000000000000000BE0
FB000000000000000BE0
FB000000000000000BE0
FB000000000000000BE0
FB000000000000000BE0
ED000000000000000ED0
BF600000000000007FA0
4FF7000000000008FF30
08FFD842101259EFF700
005DFFFFFFFFFFFD5000
000049BEEFEDB9400000
ENDCHAR
STARTCHAR uring
ENCODING 367
SWIDTH 931 0
DWIDTH 26 0
BBX 20 25 3 0
BITMAP
00000005CEEC50000000
0000004F6116F4000000
0000008D0000E8000000
0000004F6116F4000000
00000005CEEC50000000
00000000000000000000
EC0000000000000000CE
EC0000000000000000CE
EC0000000000000000CE
EC0000000000000000CE
EC0000000000000000CE
EC0000000000000000CE
EC0000000000000000CE
EC0000000000000000CE
EC0000000000000000CE
EC0000000000000000CE
EC0000000000000000CE
EC0000000000000000CE
ED0000000000000000CE
DE0000000000000007FE
AF40000000000003CFFE
4FC10000000004BFFADE
0AFD73101259EFFC40CE
019FFFFFFFFFFC5000CE
00039CEFEDB7200000CE
ENDCHAR
STARTCHAR Uhungarumlaut
ENCODING 368
SWIDTH 891 0
DWIDTH 25 0
BBX 19 24 3 0
BITMAP
000000004B0005A00000
00000007FE208FD10000
000001AF912CF8000000
000001C4003C30000000
00000000000000000000
FB000000000000000BE0
FB000000000000000BE0
FB000000000000000BE0
FB000000000000000BE0
FB000000000000000BE0
FB000000000000000BE0
FB000000000000000BE0
FB000000000000000BE0
FB000000000000000BE0
FB000000000000000BE0
FB000000000000000BE0
FB000000000000000BE0
FB000000000000000BE0
ED000000000000000ED0
BF600000000000007FA0
4FF7000000000008FF30
08FFD842101259EFF700
005DFFFFFFFFFFFD5000
000049BEEFEDB9400000
ENDCHAR
STARTCHAR uhungarumlaut
ENCODING 369
SWIDTH 931 0
DWIDTH 26 0
BBX 20 24 3 0
BITMAP
00000000095001A30000
00000002CF903DF70000
0000004ED406FC300000
00000079100970000000
00000000000000000000
EC0000000000000000CE
EC0000000000000000CE
EC0000000000000000CE
EC0000000000000000CE
EC0000000000000000CE
EC0000000000000000CE
EC0000000000000000CE
EC0000000000000000CE
EC0000000000000000CE
EC0000000000000000CE
EC0000000000000000CE
EC0000000000000000CE
ED0000000000000000CE
DE0000000000000007FE
AF40000000000003CFFE
4FC10000000004BFFADE
0AFD73101259EFFC40CE
019FFFFFFFFFFC5000CE
00039CEFEDB7200000CE
ENDCHAR
STARTCHAR Uogonek
ENCODING 370
SWIDTH 891 0
DWIDTH 25 0
BBX 19 24 3 -5
BITMAP
FB000000000000000BE0
FB000000000000000BE0
FB000000000000000BE0
FB000000000000000BE0
FB000000000000000BE0
FB000000000000000BE0
FB000000000000000BE0
FB000000000000000BE0
FB000000000000000BE0
FB000000000000000BE0
FB000000000000000BE0
FB000000000000000BE0
FB000000000000000BE0
ED000000000000000ED0
BF600000000000007FA0
4FF7000000000008FF30
08FFD842101259EFF700
005DFFFFFFFFFFFD5000
000059CEFFFEC9500000
00000002D90000000000
0000000CD00000000000
0000001F800000000000
0000000DC203A0000000
00000003BEFB40000000
ENDCHAR
STARTCHAR uogonek
ENCODING 371
SWIDTH 931 0
DWIDTH 26 0
BBX 22 24 3 -5
BITMAP
EC0000000000000000CE00
EC0000000000000000CE00
EC0000000000000000CE00
EC0000000000000000CE00
EC0000000000000000CE00
EC0000000000000000CE00
EC0000000000000000CE00
EC0000000000000000CE00
EC0000000000000000CE00
EC0000000000000000CE00
EC0000000000000000CE00
EC0000000000000000CE00
ED0000000000000000CE00
DE0000000000000007FE00
AF40000000000003CFFE00
4FC10000000004BFFADE00
0AFD73101259EFFC40CE00
019FFFFFFFFFFC5000CE00
00039CEFEDB7200000DE00
00000000000000001BC300
0000000000000000BD1000
0000000000000002F60000
0000000000000001FA1049
00000000000000005CEEA2
ENDCHAR
STARTCHAR Wcircumflex
ENCODING 372
SWIDTH 1266 0
DWIDTH 35 0
BBX 34 24 1 0
BITMAP
0000000000000005C81000000000000000
00000000000003BFEFE600000000000000
0000000000019FC603AFC4000000000000
000000000005B40000028A000000000000
0000000000000000000000000000000000
BF20000000000009FF1000000000000AF3
5F8000000000001EFF7000000000001FC0
0EE000000000006F8EC000000000007F60
08F50000000000BF1AF30000000000DE10
03FB0000000002FA04F90000000004F900
00CF2000000008F500DE000000000AF300
006F700000000DE0007F500000001FC000
001ED00000004F80002FB00000007F6000
0009F4000000AF20000BF2000000DE1000
0003FA000001FC000005F7000003F90000
0000CF100006F6000000ED000009F40000
00006F70000CE10000009F40001ED00000
00001ED0002F900000003F90006F700000
000009F4008F400000000CE100CF100000
000003FA00ED0000000006F603FA000000
000000CF15F70000000001FB09F4000000
0000006F7AF20000000000AF3ED0000000
0000001EDFB000000000004FDF70000000
00000009FF5000000000000DFF10000000
ENDCHAR
STARTCHAR wcircumflex
ENCODING 373
SWIDTH 1266 0
DWIDTH 35 0
BBX 34 24 1 0
BITMAP
0000000000000005C81000000000000000
00000000000003BFEFE600000000000000
0000000000019FC603AFC4000000000000
000000000005B40000028A000000000000
0000000000000000000000000000000000
BF20000000000009FF1000000000000AF3
5F8000000000001EFF7000000000001FC0
0EE000000000006F8EC000000000007F60
08F50000000000BF1AF30000000000DE10
03FB0000000002FA04F90000000004F900
00CF2000000008F500DE000000000AF300
006F700000000DE0007F500000001FC000
001ED00000004F80002FB00000007F6000
0009F4000000AF20000BF2000000DE1000
0003FA000001FC000005F7000003F90000
0000CF100006F6000000ED000009F40000
00006F70000CE10000009F40001ED00000
00001ED0002F900000003F90006F700000
000009F4008F400000000CE100CF100000
000003FA00ED0000000006F603FA000000
000000CF15F70000000001FB09F4000000
0000006F7AF20000000000AF3ED0000000
0000001EDFB000000000004FDF70000000
00000009FF5000000000000DFF10000000
ENDCHAR
STARTCHAR Ycircumflex
ENCODING 374
SWIDTH 763 0
DWIDTH 21 0
BBX 20 24 1 0
BITMAP
000000005C8100000000
0000003BFEFE60000000
000019FC603AFC400000
00005B40000028A00000
00000000000000000000
9F700000000000002ED1
0BF5000000000001DE30
01DE30000000000BF500
003FD1000000009F8000
0006FC00000007FB0000
00008F9000004FD10000
00000BF70002EE300000
000001DF501DF5000000
0000003EE3BF80000000
00000005FFFB00000000
000000008FD100000000
000000003F8000000000
000000003F8000000000
000000003F8000000000
000000003F8000000000
000000003F8000000000
000000003F8000000000
000000003F8000000000
000000003F8000000000
ENDCHAR
STARTCHAR ycircumflex
ENCODING 375
SWIDTH 911 0
DWIDTH 26 0
BBX 21 24 2 0
BITMAP
0000000007D60000000000
00000005DFEFC400000000
000003BFA405CFA2000000
00000992000003A7000000
0000000000000000000000
7F40000000000000006F50
7F40000000000000006F50
7F40000000000000006F50
7F40000000000000006F50
7F40000000000000006F50
6F50000000000000006F50
5F8000000000000001DF50
1FC00000000000000BFF50
0CF6000000000001CFDF50
04FE50000000004DFA6F50
008FFC6310136CFF806F50
0006EFFFFFFFFFB3006F50
000016ADEFEC8200008F40
000000000000000000DF20
000000000000000009FB00
0000000000000003CFE200
7C964311001248CFFD3000
7FFFFFFFFFFFFFFE810000
0479BDEEFFEDB951000000
ENDCHAR
STARTCHAR Ydieresis
ENCODING 376
SWIDTH 763 0
DWIDTH 21 0
BBX 20 23 1 0
BITMAP
000001FF0008F7000000
000001FF0008F7000000
00000000000000000000
00000000000000000000
9F700000000000002ED1
0BF5000000000001DE30
01DE30000000000BF500
003FD1000000009F8000
0006FC00000007FB0000
00008F9000004FD10000
00000BF70002EE300000
000001DF501DF5000000
0000003EE3BF80000000
00000005FFFB00000000
000000008FD100000000
000000003F8000000000
000000003F8000000000
000000003F8000000000
000000003F8000000000
000000003F8000000000
000000003F8000000000
000000003F8000000000
000000003F8000000000
ENDCHAR
STARTCHAR Zacute
ENCODING 377
SWIDTH 728 0
DWIDTH 20 0
BBX 17 24 2 0
BITMAP
000000000017B00000
0000000017EFB10000
00000017EE93000000
0000001C7100000000
000000000000000000
9FFFFFFFFFFFFFFF40
9FFFFFFFFFFFFFFD10
0000000000001CE200
000000000000BF3000
000000000009F50000
00000000008F600000
0000000006F8000000
000000004FA0000000
00000003EB00000000
0000002EC100000000
000001DD2000000000
00001CE30000000000
0000BF400000000000
000AF5000000000000
008F70000000000000
06F900000000000000
5FA000000000000000
EFFFFFFFFFFFFFFF80
FFFFFFFFFFFFFFFF80
ENDCHAR
STARTCHAR zacute
ENCODING 378
SWIDTH 728 0
DWIDTH 20 0
BBX 17 24 2 0
BITMAP
000000000017B00000
0000000017EFB10000
00000017EE93000000
0000001C7100000000
000000000000000000
9FFFFFFFFFFFFFFF40
9FFFFFFFFFFFFFFD10
0000000000001CE200
000000000000BF3000
000000000009F50000
00000000008F600000
0000000006F8000000
000000004FA0000000
00000003EB00000000
0000002EC100000000
000001DD2000000000
00001CE30000000000
0000BF400000000000
000AF5000000000000
008F70000000000000
06F900000000000000
5FA000000000000000
EFFFFFFFFFFFFFFF80
FFFFFFFFFFFFFFFF80
ENDCHAR
STARTCHAR Zdotaccent
ENCODING 379
SWIDTH 728 0
DWIDTH 20 0
BBX 17 23 2 0
BITMAP
0000000AF700000000
0000000AF700000000
000000000000000000
000000000000000000
9FFFFFFFFFFFFFFF40
9FFFFFFFFFFFFFFD10
0000000000001CE200
000000000000BF3000
000000000009F50000
00000000008F600000
0000000006F8000000
000000004FA0000000
00000003EB00000000
0000002EC100000000
000001DD2000000000
00001CE30000000000
0000BF400000000000
000AF5000000000000
008F70000000000000
06F900000000000000
5FA000000000000000
EFFFFFFFFFFFFFFF80
FFFFFFFFFFFFFFFF80
ENDCHAR
STARTCHAR zdotaccent
ENCODING 380
SWIDTH 728 0
DWIDTH 20 0
BBX 17 23 2 0
BITMAP
0000000AF700000000
0000000AF700000000
000000000000000000
000000000000000000
9FFFFFFFFFFFFFFF40
9FFFFFFFFFFFFFFD10
0000000000001CE200
000000000000BF3000
000000000009F50000
00000000008F600000
0000000006F8000000
000000004FA0000000
00000003EB00000000
0000002EC100000000
000001DD2000000000
00001CE30000000000
0000BF400000000000
000AF5000000000000
008F70000000000000
06F900000000000000
5FA000000000000000
EFFFFFFFFFFFFFFF80
FFFFFFFFFFFFFFFF80
ENDCHAR
STARTCHAR Zcaron
ENCODING 381
SWIDTH 728 0
DWIDTH 20 0
BBX 17 24 2 0
BITMAP
000992000003A60000
0003CFA305CFA20000
000005DFEFC4000000
00000017D600000000
000000000000000000
9FFFFFFFFFFFFFFF40
9FFFFFFFFFFFFFFD10
0000000000001CE200
000000000000BF3000
000000000009F50000
00000000008F600000
0000000006F8000000
000000004FA0000000
00000003EB00000000
0000002EC100000000
000001DD2000000000
00001CE30000000000
0000BF400000000000
000AF5000000000000
008F70000000000000
06F900000000000000
5FA000000000000000
EFFFFFFFFFFFFFFF80
FFFFFFFFFFFFFFFF80
ENDCHAR
STARTCHAR zcaron
ENCODING 382
SWIDTH 728 0
DWIDTH 20 0
BBX 17 24 2 0
BITMAP
000992000003A60000
0003CFA305CFA20000
000005DFEFC4000000
00000017D600000000
000000000000000000
9FFFFFFFFFFFFFFF40
9FFFFFFFFFFFFFFD10
0000000000001CE200
000000000000BF3000
000000000009F50000
00000000008F600000
0000000006F8000000
000000004FA0000000
00000003EB00000000
0000002EC100000000
000001DD2000000000
00001CE30000000000
0000BF400000000000
000AF5000000000000
008F70000000000000
06F900000000000000
5FA000000000000000
EFFFFFFFFFFFFFFF80
FFFFFFFFFFFFFFFF80
ENDCHAR
STARTCHAR florin
ENCODING 402
SWIDTH 835 0
DWIDTH 23 0
BBX 23 20 0 -1
BITMAP
0000000000000006BEFEB610
00000000000000BFFFFFFF90
00000000000007FD62013770
0000000000000EF300000000
0000000000004FA000000000
0000000000008F4000000000
000000000000DE0000000000
00000009FFFFFFFFFF300000
00000009FFFFFFFFFF300000
000000000009F30000000000
00000000000EE00000000000
00000000004F900000000000
00000000009F400000000000
0000000000EE000000000000
0000000005F9000000000000
000000000BF4000000000000
000000005FD0000000000000
2A520127FF50000000000000
3FFFFFFFF700000000000000
04ADFFD93000000000000000
ENDCHAR
STARTCHAR AEacute
ENCODING 508
SWIDTH 1172 0
DWIDTH 33 0
BBX 31 24 0 0
BITMAP
000000000000000000000005C2000000
0000000000000000000005CFD4000000
00000000000000000005CFB500000000
0000000000000000000A920000000000
00000000000000000000000000000000
0000000000009FFFFFFFFFFFFFFFFF80
000000000004FFFFFFFFFFFFFFFFFF80
00000000001DF42FB000000000000000
00000000009F802FB000000000000000
0000000004FC002FB000000000000000
000000001DE2002FB000000000000000
00000000AF60002FB000000000000000
00000005FA00002FB000000000000000
0000001EE100002FFFFFFFFFFFFFFC00
000000AF4000002FFFFFFFFFFFFFFC00
000005F90000002FB000000000000000
00001ED00000002FB000000000000000
0000AFFFFFFFFFFFB000000000000000
0005FFFFFFFFFFFFB000000000000000
001EF3000000002FB000000000000000
00AF80000000002FB000000000000000
05FD00000000002FB000000000000000
1EF300000000002FFFFFFFFFFFFFFFB0
AF9000000000002FFFFFFFFFFFFFFFB0
ENDCHAR
STARTCHAR aeacute
ENCODING 509
SWIDTH 1551 0
DWIDTH 43 0
BBX 41 24 1 0
BITMAP
000000000000000000000002A70000000000000000
0000000000000000000002AFE80000000000000000
00000000000000000002AFD7100000000000000000
00000000000000000005B500000000000000000000
000000000000000000000000000000000000000000
000358ACDEFFDCB830000000038BDEFEC961000000
008FFFFFFFFFFFFFFD400003CFFFFFFFFFFE800000
007C964211001248CFF6008FFC741101369EFC2000
000000000000000004DF39FC3000000000018FC100
0000000000000000003FDFA000000000000005F900
0000000000000000000DFC10000000000000009F20
0000000000000000000CF500000000000000002F60
00000000002578ABCDEFE000000000000000000DA0
00000159CFFFFFFFFFFFFFFFFFFFFFFFFFFFFFFFC0
0003AFFFFECA8653211DFFFFFFFFFFFFFFFFFFFFD0
008FFD9520000000000DE000000000000000000000
08FD500000000000000BF300000000000000000000
1FD10000000000000006F800000000000000000000
4F800000000000000001EF30000000000000000000
3FA00000000000000018EFD3000000000000000000
1EF500000000000039EFEBFE710000000000000000
07FFB6310012469DFFE8107FFEA64210012468B500
007EFFFFFFFFFFFFB6100003AFFFFFFFFFFFFFF500
00017BDEFEEDB85100000000026ACDEFFEDB963000
ENDCHAR
STARTCHAR Oslashacute
ENCODING 510
SWIDTH 983 0
DWIDTH 28 0
BBX 25 26 1 -2
BITMAP
0000000000000004B300000000
00000000000004BFE500000000
000000000004BFC50000000000
000000000009A3000001DC0000
0000000000000000000AE20000
000000048BCEFEDC957F400000
000006DFFFFFFFFFFFFD200000
0002CFFC752101135DFFF70000
002DFC30000000005F66EF8000
00CF900000000003E9002DF500
05FC00000000001DC00003FD00
0BF30000000000BE200000AF40
0ED00000000007F40000005F70
1FB0000000004F700000002FA0
2F9000000002EA000000001FA0
1FA00000001CD1000000002F90
0ED0000000AE20000000005F70
0BF2000006F50000000000AF30
05FA00003F800000000003FD00
00CF8001DB00000000002DF400
002EFB3BD10000000006EF8000
0002CFFFA421001359EFF70000
000007FFFFFFFFFFFFFB300000
00000AE57BDEFEEC9610000000
00007F50000000000000000000
0003F800000000000000000000
ENDCHAR
STARTCHAR oslashacute
ENCODING 511
SWIDTH 983 0
DWIDTH 28 0
BBX 25 26 1 -2
BITMAP
0000000000000004B300000000
00000000000004BFE500000000
000000000004BFC50000000000
000000000009A3000001DC0000
0000000000000000000AE20000
000000048BCEFEDC957F400000
000006DFFFFFFFFFFFFD200000
0002CFFC752101135DFFF70000
002DFC30000000005F66EF8000
00CF900000000003E9002DF500
05FC00000000001DC00003FD00
0BF30000000000BE200000AF40
0ED00000000007F40000005F70
1FB0000000004F700000002FA0
2F9000000002EA000000001FA0
1FA00000001CD1000000002F90
0ED0000000AE20000000005F70
0BF2000006F50000000000AF30
05FA00003F800000000003FD00
00CF8001DB00000000002DF400
002EFB3BD10000000006EF8000
0002CFFFA421001359EFF70000
000007FFFFFFFFFFFFFB300000
00000AE57BDEFEEC9610000000
00007F50000000000000000000
0003F800000000000000000000
ENDCHAR
STARTCHAR dotlessj
ENCODING 567
SWIDTH 590 0
DWIDTH 17 0
BBX 14 19 0 0
BITMAP
000000000004F7
000000000004F7
000000000004F7
000000000004F7
000000000004F7
000000000004F7
000000000004F7
000000000004F7
000000000004F7
000000000004F7
000000000004F7
000000000004F7
000000000004F7
000000000006F6
00000000000BF4
00000000007FD0
D85310015BFF40
FFFFFFFFFFE500
26ACEFFDB61000
ENDCHAR
STARTCHAR circumflex
ENCODING 710
SWIDTH 527 0
DWIDTH 15 0
BBX 11 4 2 15
BITMAP
00007D600000
005DFEFC3000
3BFA305CFA20
992000004B60
ENDCHAR
STARTCHAR caron
ENCODING 711
SWIDTH 527 0
DWIDTH 15 0
BBX 11 4 2 15
BITMAP
992000003A60
3CFA305CFA20
005DFEFC4000
00017D600000
ENDCHAR
STARTCHAR breve
ENCODING 728
SWIDTH 527 0
DWIDTH 15 0
BBX 10 3 2 16
BITMAP
2F800000BD
07F8103AF4
005BEFEA30
ENDCHAR
STARTCHAR dotaccent
ENCODING 729
SWIDTH 527 0
DWIDTH 15 0
BBX 3 2 6 16
BITMAP
AF70
AF70
ENDCHAR
STARTCHAR ring
ENCODING 730
SWIDTH 527 0
DWIDTH 15 0
BBX 8 5 3 15
BITMAP
02ADFD81
0DA203DA
2F40008E
0DA203DA
02ADFD81
ENDCHAR
STARTCHAR ogonek
ENCODING 731
SWIDTH 527 0
DWIDTH 15 0
BBX 7 5 4 -5
BITMAP
02BA1000
2E900000
9E000000
9F402840
1AEFD700
ENDCHAR
STARTCHAR tilde
ENCODING 732
SWIDTH 527 0
DWIDTH 15 0
BBX 11 3 2 16
BITMAP
04DE81002F20
1F519E618D00
5E0003BFD300
ENDCHAR
STARTCHAR hungarumlaut
ENCODING 733
SWIDTH 527 0
DWIDTH 15 0
BBX 10 4 3 15
BITMAP
0004A00068
008FD21AFC
1BF812CE70
2C3004B200
ENDCHAR
STARTCHAR commaaccent
ENCODING 806
SWIDTH 527 0
DWIDTH 15 0
BBX 3 4 6 -6
BITMAP
7F70
9F30
BD00
D900
ENDCHAR
STARTCHAR mu
ENCODING 956
SWIDTH 705 0
DWIDTH 20 0
BBX 17 19 1 -6
BITMAP
0008F200000000AF10
000BE000000000DD00
000EB000000001FA00
002F8000000005F700
005F5000000008F400
008F100000000BF100
00AD000000000ED000
00DA000000003FA000
01FB00000002DF8000
04FF4000003DEF6000
07FDE61039FD5F6000
0AE3EFFFFFB12F8000
0CC03BEEB5000DC000
0F9000000000000000
3F7000000000000000
6F4000000000000000
9F1000000000000000
CE0000000000000000
EB0000000000000000
ENDCHAR
STARTCHAR Wgrave
ENCODING 7808
SWIDTH 1266 0
DWIDTH 35 0
BBX 34 24 1 0
BITMAP
0000000000009810000000000000000000
000000000000BFE8100000000000000000
000000000000028EE81000000000000000
00000000000000016C2000000000000000
0000000000000000000000000000000000
BF20000000000009FF1000000000000AF3
5F8000000000001EFF7000000000001FC0
0EE000000000006F8EC000000000007F60
08F50000000000BF1AF30000000000DE10
03FB0000000002FA04F90000000004F900
00CF2000000008F500DE000000000AF300
006F700000000DE0007F500000001FC000
001ED00000004F80002FB00000007F6000
0009F4000000AF20000BF2000000DE1000
0003FA000001FC000005F7000003F90000
0000CF100006F6000000ED000009F40000
00006F70000CE10000009F40001ED00000
00001ED0002F900000003F90006F700000
000009F4008F400000000CE100CF100000
000003FA00ED0000000006F603FA000000
000000CF15F70000000001FB09F4000000
0000006F7AF20000000000AF3ED0000000
0000001EDFB000000000004FDF70000000
00000009FF5000000000000DFF10000000
ENDCHAR
STARTCHAR wgrave
ENCODING 7809
SWIDTH 1266 0
DWIDTH 35 0
BBX 34 24 1 0
BITMAP
0000000000009810000000000000000000
000000000000BFE8100000000000000000
000000000000028EE81000000000000000
00000000000000016C2000000000000000
0000000000000000000000000000000000
BF20000000000009FF1000000000000AF3
5F8000000000001EFF7000000000001FC0
0EE000000000006F8EC000000000007F60
08F50000000000BF1AF30000000000DE10
03FB0000000002FA04F90000000004F900
00CF2000000008F500DE000000000AF300
006F700000000DE0007F500000001FC000
001ED00000004F80002FB00000007F6000
0009F4000000AF20000BF2000000DE1000
0003FA000001FC000005F7000003F90000
0000CF100006F6000000ED000009F40000
00006F70000CE10000009F40001ED00000
00001ED0002F900000003F90006F700000
000009F4008F400000000CE100CF100000
000003FA00ED0000000006F603FA000000
000000CF15F70000000001FB09F4000000
0000006F7AF20000000000AF3ED0000000
0000001EDFB000000000004FDF70000000
00000009FF5000000000000DFF10000000
ENDCHAR
STARTCHAR Wacute
ENCODING 7810
SWIDTH 1266 0
DWIDTH 35 0
BBX 34 24 1 0
BITMAP
00000000000000000005C2000000000000
000000000000000005CFD4000000000000
0000000000000005CFB500000000000000
000000000000000A920000000000000000
0000000000000000000000000000000000
BF20000000000009FF1000000000000AF3
5F8000000000001EFF7000000000001FC0
0EE000000000006F8EC000000000007F60
08F50000000000BF1AF30000000000DE10
03FB0000000002FA04F90000000004F900
00CF2000000008F500DE000000000AF300
006F700000000DE0007F500000001FC000
001ED00000004F80002FB00000007F6000
0009F4000000AF20000BF2000000DE1000
0003FA000001FC000005F7000003F90000
0000CF100006F6000000ED000009F40000
00006F70000CE10000009F40001ED00000
00001ED0002F900000003F90006F700000
000009F4008F400000000CE100CF100000
000003FA00ED0000000006F603FA000000
000000CF15F70000000001FB09F4000000
0000006F7AF20000000000AF3ED0000000
0000001EDFB000000000004FDF70000000
00000009FF5000000000000DFF10000000
ENDCHAR
STARTCHAR wacute
ENCODING 7811
SWIDTH 1266 0
DWIDTH 35 0
BBX 34 24 1 0
BITMAP
00000000000000000005C2000000000000
000000000000000005CFD4000000000000
0000000000000005CFB500000000000000
000000000000000A920000000000000000
0000000000000000000000000000000000
BF20000000000009FF1000000000000AF3
5F8000000000001EFF7000000000001FC0
0EE000000000006F8EC000000000007F60
08F50000000000BF1AF30000000000DE10
03FB0000000002FA04F90000000004F900
00CF2000000008F500DE000000000AF300
006F700000000DE0007F500000001FC000
001ED00000004F80002FB00000007F6000
0009F4000000AF20000BF2000000DE1000
0003FA000001FC000005F7000003F90000
0000CF100006F6000000ED000009F40000
00006F70000CE10000009F40001ED00000
00001ED0002F900000003F90006F700000
000009F4008F400000000CE100CF100000
000003FA00ED0000000006F603FA000000
000000CF15F70000000001FB09F4000000
0000006F7AF20000000000AF3ED0000000
0000001EDFB000000000004FDF70000000
00000009FF5000000000000DFF10000000
ENDCHAR
STARTCHAR Wdieresis
ENCODING 7812
SWIDTH 1266 0
DWIDTH 35 0
BBX 34 23 1 0
BITMAP
0000000000001FF0008F70000000000000
0000000000001FF0008F70000000000000
0000000000000000000000000000000000
0000000000000000000000000000000000
BF20000000000009FF1000000000000AF3
5F8000000000001EFF7000000000001FC0
0EE000000000006F8EC000000000007F60
08F50000000000BF1AF30000000000DE10
03FB0000000002FA04F90000000004F900
00CF2000000008F500DE000000000AF300
006F700000000DE0007F500000001FC000
001ED00000004F80002FB00000007F6000
0009F4000000AF20000BF2000000DE1000
0003FA000001FC000005F7000003F90000
0000CF100006F6000000ED000009F40000
00006F70000CE10000009F40001ED00000
00001ED0002F900000003F90006F700000
000009F4008F400000000CE100CF100000
000003FA00ED0000000006F603FA000000
000000CF15F70000000001FB09F4000000
0000006F7AF20000000000AF3ED0000000
0000001EDFB000000000004FDF70000000
00000009FF5000000000000DFF10000000
ENDCHAR
STARTCHAR wdieresis
ENCODING 7813
SWIDTH 1266 0
DWIDTH 35 0
BBX 34 23 1 0
BITMAP
0000000000001FF0008F70000000000000
0000000000001FF0008F70000000000000
0000000000000000000000000000000000
0000000000000000000000000000000000
BF20000000000009FF1000000000000AF3
5F8000000000001EFF7000000000001FC0
0EE000000000006F8EC000000000007F60
08F50000000000BF1AF30000000000DE10
03FB0000000002FA04F90000000004F900
00CF2000000008F500DE000000000AF300
006F700000000DE0007F500000001FC000
001ED00000004F80002FB00000007F6000
0009F4000000AF20000BF2000000DE1000
0003FA000001FC000005F7000003F90000
0000CF100006F6000000ED000009F40000
00006F70000CE10000009F40001ED00000
00001ED0002F900000003F90006F700000
000009F4008F400000000CE100CF100000
000003FA00ED0000000006F603FA000000
000000CF15F70000000001FB09F4000000
0000006F7AF20000000000AF3ED0000000
0000001EDFB000000000004FDF70000000
00000009FF5000000000000DFF10000000
ENDCHAR
STARTCHAR Ygrave
ENCODING 7922
SWIDTH 763 0
DWIDTH 21 0
BBX 20 24 1 0
BITMAP
00000981000000000000
00000BFE810000000000
00000028EE8100000000
0000000016C200000000
00000000000000000000
9F700000000000002ED1
0BF5000000000001DE30
01DE30000000000BF500
003FD1000000009F8000
0006FC00000007FB0000
00008F9000004FD10000
00000BF70002EE300000
000001DF501DF5000000
0000003EE3BF80000000
00000005FFFB00000000
000000008FD100000000
000000003F8000000000
000000003F8000000000
000000003F8000000000
000000003F8000000000
000000003F8000000000
000000003F8000000000
000000003F8000000000
000000003F8000000000
ENDCHAR
STARTCHAR ygrave
ENCODING 7923
SWIDTH 911 0
DWIDTH 26 0
BBX 21 24 2 0
BITMAP
000001C600000000000000
000003DFD6000000000000
00000004AFD60000000000
00000000028C0000000000
0000000000000000000000
7F40000000000000006F50
7F40000000000000006F50
7F40000000000000006F50
7F40000000000000006F50
7F40000000000000006F50
6F50000000000000006F50
5F8000000000000001DF50
1FC00000000000000BFF50
0CF6000000000001CFDF50
04FE50000000004DFA6F50
008FFC6310136CFF806F50
0006EFFFFFFFFFB3006F50
000016ADEFEC8200008F40
000000000000000000DF20
000000000000000009FB00
0000000000000003CFE200
7C964311001248CFFD3000
7FFFFFFFFFFFFFFE810000
0479BDEEFFEDB951000000
ENDCHAR
STARTCHAR endash
ENCODING 8211
SWIDTH 419 0
DWIDTH 12 0
BBX 12 2 0 9
BITMAP
7FFFFFFFFFF3
7FFFFFFFFFF3
ENDCHAR
STARTCHAR emdash
ENCODING 8212
SWIDTH 1000 0
DWIDTH 28 0
BBX 28 2 0 9
BITMAP
FFFFFFFFFFFFFFFFFFFFFFFFFFFF
FFFFFFFFFFFFFFFFFFFFFFFFFFFF
ENDCHAR
STARTCHAR quoteleft
ENCODING 8216
SWIDTH 163 0
DWIDTH 5 0
BBX 4 5 0 14
BITMAP
00C9
02F7
06F4
0BF1
1FD0
ENDCHAR
STARTCHAR quoteright
ENCODING 8217
SWIDTH 163 0
DWIDTH 5 0
BBX 4 5 0 14
BITMAP
05F9
08F4
0BE0
0DA0
1F60
ENDCHAR
STARTCHAR quotesinglbase
ENCODING 8218
SWIDTH 163 0
DWIDTH 5 0
BBX 4 5 0 -3
BITMAP
05F9
08F4
0BE0
0DA0
1F60
ENDCHAR
STARTCHAR quotedblleft
ENCODING 8220
SWIDTH 303 0
DWIDTH 8 0
BBX 8 5 0 14
BITMAP
00C900D8
02F703F6
06F407F3
0BF10CF0
1FD01FC0
ENDCHAR
STARTCHAR quotedblright
ENCODING 8221
SWIDTH 303 0
DWIDTH 8 0
BBX 8 5 0 14
BITMAP
05F906F7
08F409F3
0BE00CD0
0DA00E90
1F602F40
ENDCHAR
STARTCHAR quotedblbase
ENCODING 8222
SWIDTH 303 0
DWIDTH 8 0
BBX 8 5 0 -3
BITMAP
05F906F7
08F409F3
0BE00CD0
0DA00E90
1F602F40
ENDCHAR
STARTCHAR dagger
ENCODING 8224
SWIDTH 500 0
DWIDTH 14 0
BBX 10 19 2 0
BITMAP
0000CC0000
0000CC0000
0000CC0000
0000CC0000
0000CC0000
7FFFFFFFF7
7FFFFFFFF7
0000CC0000
0000CC0000
0000CC0000
0000CC0000
0000CC0000
0000CC0000
0000CC0000
0000CC0000
0000CC0000
0000CC0000
0000CC0000
0000CC0000
ENDCHAR
STARTCHAR daggerdbl
ENCODING 8225
SWIDTH 500 0
DWIDTH 14 0
BBX 10 19 2 0
BITMAP
0000CC0000
0000CC0000
0000CC0000
0000CC0000
0000CC0000
7FFFFFFFF7
7FFFFFFFF7
0000CC0000
0000CC0000
0000CC0000
0000CC0000
7FFFFFFFF7
7FFFFFFFF7
0000CC0000
0000CC0000
0000CC0000
0000CC0000
0000CC0000
0000CC0000
ENDCHAR
STARTCHAR bullet
ENCODING 8226
SWIDTH 352 0
DWIDTH 10 0
BBX 6 5 2 7
BITMAP
08ED70
7FFFF5
BFFFF8
7FFFF5
09ED70
ENDCHAR
STARTCHAR ellipsis
ENCODING 8230
SWIDTH 555 0
DWIDTH 16 0
BBX 14 3 1 0
BITMAP
9FC006FE004FF2
9FC006FE004FF2
9FC006FE004FF2
ENDCHAR
STARTCHAR perthousand
ENCODING 8240
SWIDTH 1401 0
DWIDTH 39 0
BBX 37 19 1 0
BITMAP
0018DFEB50000000007F500000000000000000
03EB3017F900000004F8000000000000000000
1DC000005F6000002EB0000000000000000000
6F4000000CD00001CD10000000000000000000
8F10000009F0000AF300000000000000000000
8F10000009F0007F6000000000000000000000
5F4000000CC004F90000000000000000000000
1DC000005F602EC00000000000000000000000
03EB3017F900CE200000000000000000000000
0018DFEB4009F4017CEEC60000003ADFEA3000
00000000006F702DD4116EB10006FA2029F600
0000000003FA00BE100003F9002F9000008F30
000000001DC103F7000000AE109F1000001F90
00000000BE2005F40000007F30CD0000000DC0
00000008F50005F40000007F30CD0000000DC0
0000005F800002F7000000AE109F1000001F90
000003EB000000BE100003F8002F9000008F30
00001DD10000001CD4116EB00005FA2029F600
0000BE30000000017CFEC60000003AEFEA3000
ENDCHAR
STARTCHAR guilsinglleft
ENCODING 8249
SWIDTH 257 0
DWIDTH 7 0
BBX 5 11 1 4
BITMAP
000680
003FC0
01DE20
0BF400
8F7000
DD0000
8F7000
0BF400
01DE20
003FC0
000680
ENDCHAR
STARTCHAR guilsinglright
ENCODING 8250
SWIDTH 257 0
DWIDTH 7 0
BBX 6 11 1 4
BITMAP
4A0000
8F7000
0BF400
01DE20
003FC1
0009F3
003FC1
01DE20
0BF400
8F7000
4A0000
ENDCHAR
STARTCHAR fraction
ENCODING 8260
SWIDTH 200 0
DWIDTH 6 0
BBX 17 19 -6 0
BITMAP
000000000000002EC0
00000000000000CE20
00000000000009F400
0000000000006F7000
000000000003FA0000
00000000001DC10000
0000000000BE200000
0000000008F5000000
000000005F80000000
00000002EB00000000
0000001DD100000000
000000AE3000000000
000007F50000000000
00004F900000000000
0002EC000000000000
001CE1000000000000
00AF40000000000000
06F600000000000000
4FA000000000000000
ENDCHAR
STARTCHAR Euro
ENCODING 8364
SWIDTH 833 0
DWIDTH 23 0
BBX 22 19 0 0
BITMAP
00000000038CEFEDB83000
00000003CFFFFFFFFFFC50
0000006FFD74101247BFF3
000005FE60000000000293
00001EE300000000000000
00009F5000000000000000
0000ED0000000000000000
0DFFFFFFFFFFFFFF900000
2FFFFFFFFFFFFFFF600000
0006F40000000000000000
0007F40000000000000000
0DFFFFFFFFFFFFF4000000
2FFFFFFFFFFFFFF1000000
0000EC0000000000000000
00008F8000000000000000
00001DF910000000000293
000002DFEA53201247BFF3
00000018EFFFFFFFFFFC50
0000000016ACEFEDB72000
ENDCHAR
STARTCHAR trademark
ENCODING 8482
SWIDTH 773 0
DWIDTH 22 0
BBX 19 8 0 11
BITMAP
3FFFFFF84F9000001ED0
0007C0004FE200007ED0
0007C0004F7A0001E8D0
0007C0004F1E300895D0
0007C0004F07B01E25D0
0007C0004F00D38805D0
0007C0004F006CE105D0
0007C0004F000D8005D0
ENDCHAR
STARTCHAR partialdiff
ENCODING 8706
SWIDTH 790 0
DWIDTH 22 0
BBX 20 19 1 0
BITMAP
00000159CEFEDA610000
000008FFFFFFFFFE6000
000009A6310125BFF800
0000000000000004EF50
00000000000000004FC0
00000000000000000BF2
000000000000000007F5
0000059CEFEDA61005F6
0005DFFFFFFFFFE815F6
008FFB6310025AEFD9F5
06FC200000000018FFF3
0EE10000000000003EE0
3F800000000000001FA0
4F60000000000000AF30
3FA0000000000007FA00
0CF70000000001AFD100
03EFC63101259EFC2000
003DFFFFFFFFFE800000
00005ADEFEDA61000000
ENDCHAR
STARTCHAR minus
ENCODING 8722
SWIDTH 634 0
DWIDTH 18 0
BBX 14 2 2 9
BITMAP
AFFFFFFFFFFFF6
AFFFFFFFFFFFF6
ENDCHAR
STARTCHAR uni2215
ENCODING 8725
SWIDTH 200 0
DWIDTH 6 0
BBX 17 19 -6 0
BITMAP
000000000000002EC0
00000000000000CE20
00000000000009F400
0000000000006F7000
000000000003FA0000
00000000001DC10000
0000000000BE200000
0000000008F5000000
000000005F80000000
00000002EB00000000
0000001DD100000000
000000AE3000000000
000007F50000000000
00004F900000000000
0002EC000000000000
001CE1000000000000
00AF40000000000000
06F600000000000000
4FA000000000000000
ENDCHAR
STARTCHAR approxequal
ENCODING 8776
SWIDTH 634 0
DWIDTH 18 0
BBX 14 8 2 6
BITMAP
39DFEC96310278
DFFFFFFFFFFFFA
A5102469CEFD81
00000000000000
00000000000000
39DFEC96310278
DFFFFFFFFFFFFA
A5102469CEFD81
ENDCHAR
STARTCHAR notequal
ENCODING 8800
SWIDTH 634 0
DWIDTH 18 0
BBX 14 15 2 2
BITMAP
00000000BE0000
00000001F90000
00000006F40000
0000000BD00000
AFFFFFFFFFFFF6
AFFFFFFFFFFFF6
0000009E100000
000001F9000000
000007F3000000
AFFFFFFFFFFFF6
AFFFFFFFFFFFF6
00005F50000000
0000AE00000000
0001F900000000
0006F400000000
ENDCHAR
STARTCHAR lessequal
ENCODING 8804
SWIDTH 634 0
DWIDTH 18 0
BBX 14 14 2 1
BITMAP
000000000004A6
0000000028DFF7
0000016BFFE940
0004AEFD830000
28DFB720000000
DFB20000000000
28DFB720000000
0004AEFD830000
0000016CFFE940
0000000028DFF7
000000000004A6
00000000000000
AFFFFFFFFFFFF6
AFFFFFFFFFFFF6
ENDCHAR
STARTCHAR greaterequal
ENCODING 8805
SWIDTH 634 0
DWIDTH 18 0
BBX 14 14 2 1
BITMAP
98300000000000
AFFC7100000000
15AEFFA5000000
000049EFE83000
000000038DFC61
00000000004DFA
000000038DFC71
000049EFE83000
15AEFFA5000000
AFFC7100000000
98300000000000
00000000000000
AFFFFFFFFFFFF6
AFFFFFFFFFFFF6
ENDCHAR
STARTCHAR fi
ENCODING 64257
SWIDTH 1104 0
DWIDTH 31 0
BBX 25 19 3 0
BITMAP
000159CEEFFFFFFFFF30000EC0
007EFFFFFFFFFFFFFF30000EC0
09FFC742100000000000000EC0
4FF60000000000000000000EC0
9F700000000000000000000EC0
CF100000000000000000000EC0
DE000000000000000000000EC0
DD000000000000000000000EC0
DD000000000000000000000EC0
DFFFFFFFFFFFFFFFFE00000EC0
DFFFFFFFFFFFFFFFFE00000EC0
DD000000000000000000000EC0
DD000000000000000000000EC0
DD000000000000000000000EC0
DD000000000000000000000EC0
DD000000000000000000000EC0
DD000000000000000000000EC0
DD000000000000000000000EC0
DD000000000000000000000EC0
ENDCHAR
STARTCHAR fl
ENCODING 64258
SWIDTH 1527 0
DWIDTH 43 0
BBX 40 19 3 0
BITMAP
000159CEEFFFFFFFFF30000EC000000000000000
007EFFFFFFFFFFFFFF30000EC000000000000000
09FFC742100000000000000EC000000000000000
4FF60000000000000000000EC000000000000000
9F700000000000000000000EC000000000000000
CF100000000000000000000EC000000000000000
DE000000000000000000000EC000000000000000
DD000000000000000000000EC000000000000000
DD000000000000000000000EC000000000000000
DFFFFFFFFFFFFFFFFE00000EC000000000000000
DFFFFFFFFFFFFFFFFE00000EC000000000000000
DD000000000000000000000EC000000000000000
DD000000000000000000000EC000000000000000
DD000000000000000000000DD000000000000000
DD000000000000000000000CF100000000000000
DD0000000000000000000009F800000000000000
DD0000000000000000000003FFB5310000000000
DD00000000000000000000005EFFFFFFFFFFFFF8
DD0000000000000000000000027BDEFFFFFFFFF8
ENDCHAR
STARTCHAR .notdef
ENCODING -1
SWIDTH 1000 0
DWIDTH 28 0
BBX 1 1 0 0
BITMAP
00
ENDCHAR
ENDFONT
